<ttFont>
    <TTGlyph name=".notdef" xMin="42" yMin="0" xMax="588" yMax="660">
      <contour>
        <pt x="172" y="660" on="1"/>
        <pt x="588" y="660" on="1"/>
        <pt x="458" y="0" on="1"/>
        <pt x="42" y="0" on="1"/>
      </contour>
      <contour>
        <pt x="202" y="610" on="1"/>
        <pt x="96" y="72" on="1"/>
        <pt x="294" y="340" on="1"/>
      </contour>
      <contour>
        <pt x="434" y="72" on="1"/>
        <pt x="544" y="610" on="1"/>
        <pt x="342" y="340" on="1"/>
      </contour>
      <contour>
        <pt x="96" y="32" on="1"/>
        <pt x="414" y="32" on="1"/>
        <pt x="354" y="208" on="1"/>
        <pt x="314" y="312" on="1"/>
        <pt x="310" y="312" on="1"/>
        <pt x="228" y="208" on="1"/>
      </contour>
      <contour>
        <pt x="396" y="456" on="1"/>
        <pt x="522" y="628" on="1"/>
        <pt x="230" y="628" on="1"/>
        <pt x="286" y="456" on="1"/>
        <pt x="320" y="364" on="1"/>
        <pt x="324" y="364" on="1"/>
      </contour>
    </TTGlyph>
    <TTGlyph name="A" xMin="-46" yMin="0" xMax="434" yMax="660">
      <contour>
        <pt x="372" y="264" on="1"/>
        <pt x="356" y="396" on="1"/>
        <pt x="350" y="452" on="0"/>
        <pt x="336" y="566" on="0"/>
        <pt x="330" y="626" on="1"/>
        <pt x="326" y="626" on="1"/>
        <pt x="296" y="564" on="0"/>
        <pt x="236" y="455" on="0"/>
        <pt x="204" y="396" on="1"/>
        <pt x="132" y="264" on="1"/>
      </contour>
      <contour>
        <pt x="375" y="238" on="1"/>
        <pt x="118" y="238" on="1"/>
        <pt x="-12" y="0" on="1"/>
        <pt x="-46" y="0" on="1"/>
        <pt x="320" y="660" on="1"/>
        <pt x="350" y="660" on="1"/>
        <pt x="434" y="0" on="1"/>
        <pt x="404" y="0" on="1"/>
      </contour>
    </TTGlyph>
    <TTGlyph name="AE" xMin="-32" yMin="0" xMax="804" yMax="660">
      <contour>
        <pt x="470" y="632" on="1"/>
        <pt x="466" y="632" on="1"/>
        <pt x="292" y="392" on="1"/>
        <pt x="189" y="252" on="1"/>
        <pt x="394" y="252" on="1"/>
      </contour>
      <contour>
        <pt x="500" y="634" on="1"/>
        <pt x="446" y="364" on="1"/>
        <pt x="696" y="364" on="1"/>
        <pt x="690" y="338" on="1"/>
        <pt x="442" y="338" on="1"/>
        <pt x="378" y="26" on="1"/>
        <pt x="686" y="26" on="1"/>
        <pt x="680" y="0" on="1"/>
        <pt x="344" y="0" on="1"/>
        <pt x="389" y="226" on="1"/>
        <pt x="170" y="226" on="1"/>
        <pt x="4" y="0" on="1"/>
        <pt x="-32" y="0" on="1"/>
        <pt x="458" y="660" on="1"/>
        <pt x="804" y="660" on="1"/>
        <pt x="798" y="634" on="1"/>
      </contour>
    </TTGlyph>
    <TTGlyph name="Aacute" xMin="-46" yMin="0" xMax="450" yMax="812">
      <component glyphName="A" x="0" y="0" flags="0x204"/>
      <component glyphName="uni0301.cap" x="208" y="0" flags="0x4"/>
    </TTGlyph>
    <TTGlyph name="Abreve" xMin="-46" yMin="0" xMax="456" yMax="812">
      <component glyphName="A" x="0" y="0" flags="0x204"/>
      <component glyphName="uni0306.cap" x="208" y="0" flags="0x4"/>
    </TTGlyph>
    <TTGlyph name="Acircumflex" xMin="-46" yMin="0" xMax="436" yMax="812">
      <component glyphName="A" x="0" y="0" flags="0x204"/>
      <component glyphName="uni0302.cap" x="208" y="0" flags="0x4"/>
    </TTGlyph>
    <TTGlyph name="Adieresis" xMin="-46" yMin="0" xMax="444" yMax="790">
      <component glyphName="A" x="0" y="0" flags="0x204"/>
      <component glyphName="uni0308.cap" x="208" y="0" flags="0x4"/>
    </TTGlyph>
    <TTGlyph name="Agrave" xMin="-46" yMin="0" xMax="434" yMax="812">
      <component glyphName="A" x="0" y="0" flags="0x204"/>
      <component glyphName="uni0300.cap" x="208" y="0" flags="0x4"/>
    </TTGlyph>
    <TTGlyph name="Amacron" xMin="-46" yMin="0" xMax="448" yMax="762">
      <component glyphName="A" x="0" y="0" flags="0x204"/>
      <component glyphName="uni0304.cap" x="208" y="0" flags="0x4"/>
    </TTGlyph>
    <TTGlyph name="Aogonek" xMin="-46" yMin="-202" xMax="434" yMax="660">
      <contour>
        <pt x="372" y="264" on="1"/>
        <pt x="356" y="396" on="1"/>
        <pt x="350" y="452" on="0"/>
        <pt x="336" y="566" on="0"/>
        <pt x="330" y="626" on="1"/>
        <pt x="326" y="626" on="1"/>
        <pt x="296" y="564" on="0"/>
        <pt x="236" y="455" on="0"/>
        <pt x="204" y="396" on="1"/>
        <pt x="132" y="264" on="1"/>
      </contour>
      <contour>
        <pt x="434" y="0" on="1"/>
        <pt x="395" y="-30" on="0"/>
        <pt x="342" y="-99" on="0"/>
        <pt x="342" y="-134" on="1"/>
        <pt x="342" y="-154" on="0"/>
        <pt x="363" y="-176" on="0"/>
        <pt x="380" y="-176" on="1"/>
        <pt x="392" y="-176" on="0"/>
        <pt x="411" y="-170" on="0"/>
        <pt x="422" y="-164" on="1"/>
        <pt x="432" y="-186" on="1"/>
        <pt x="403" y="-202" on="0"/>
        <pt x="378" y="-202" on="1"/>
        <pt x="349" y="-202" on="0"/>
        <pt x="312" y="-172" on="0"/>
        <pt x="312" y="-140" on="1"/>
        <pt x="312" y="-121" on="0"/>
        <pt x="328" y="-82" on="0"/>
        <pt x="354" y="-45" on="0"/>
        <pt x="388" y="-13" on="0"/>
        <pt x="406" y="0" on="1"/>
        <pt x="404" y="0" on="1"/>
        <pt x="375" y="238" on="1"/>
        <pt x="118" y="238" on="1"/>
        <pt x="-12" y="0" on="1"/>
        <pt x="-46" y="0" on="1"/>
        <pt x="320" y="660" on="1"/>
        <pt x="350" y="660" on="1"/>
      </contour>
    </TTGlyph>
    <TTGlyph name="Aring" xMin="-46" yMin="0" xMax="434" yMax="862">
      <component glyphName="A" x="0" y="0" flags="0x204"/>
      <component glyphName="uni030A.cap" x="208" y="0" flags="0x4"/>
    </TTGlyph>
    <TTGlyph name="Atilde" xMin="-46" yMin="0" xMax="467" yMax="802">
      <component glyphName="A" x="0" y="0" flags="0x204"/>
      <component glyphName="uni0303.cap" x="208" y="0" flags="0x4"/>
    </TTGlyph>
    <TTGlyph name="B" xMin="40" yMin="0" xMax="518" yMax="660">
      <contour>
        <pt x="172" y="660" on="1"/>
        <pt x="328" y="660" on="1"/>
        <pt x="420" y="660" on="0"/>
        <pt x="518" y="584" on="0"/>
        <pt x="518" y="518" on="1"/>
        <pt x="518" y="480" on="0"/>
        <pt x="489" y="422" on="0"/>
        <pt x="444" y="380" on="0"/>
        <pt x="391" y="356" on="0"/>
        <pt x="368" y="352" on="1"/>
        <pt x="368" y="348" on="1"/>
        <pt x="392" y="343" on="0"/>
        <pt x="437" y="321" on="0"/>
        <pt x="473" y="286" on="0"/>
        <pt x="494" y="237" on="0"/>
        <pt x="494" y="206" on="1"/>
        <pt x="494" y="153" on="0"/>
        <pt x="456" y="76" on="0"/>
        <pt x="387" y="25" on="0"/>
        <pt x="289" y="0" on="0"/>
        <pt x="230" y="0" on="1"/>
        <pt x="40" y="0" on="1"/>
      </contour>
      <contour>
        <pt x="260" y="364" on="1"/>
        <pt x="374" y="364" on="0"/>
        <pt x="488" y="450" on="0"/>
        <pt x="488" y="516" on="1"/>
        <pt x="488" y="572" on="0"/>
        <pt x="404" y="634" on="0"/>
        <pt x="312" y="634" on="1"/>
        <pt x="196" y="634" on="1"/>
        <pt x="142" y="364" on="1"/>
      </contour>
      <contour>
        <pt x="212" y="26" on="1"/>
        <pt x="268" y="26" on="0"/>
        <pt x="361" y="45" on="0"/>
        <pt x="427" y="87" on="0"/>
        <pt x="464" y="155" on="0"/>
        <pt x="464" y="203" on="1"/>
        <pt x="464" y="261" on="0"/>
        <pt x="367" y="338" on="0"/>
        <pt x="278" y="338" on="1"/>
        <pt x="138" y="338" on="1"/>
        <pt x="74" y="26" on="1"/>
      </contour>
    </TTGlyph>
    <TTGlyph name="C" xMin="58" yMin="-12" xMax="542" yMax="672">
      <contour>
        <pt x="58" y="246" on="1"/>
        <pt x="58" y="318" on="0"/>
        <pt x="103" y="469" on="0"/>
        <pt x="188" y="593" on="0"/>
        <pt x="311" y="672" on="0"/>
        <pt x="390" y="672" on="1"/>
        <pt x="446" y="672" on="0"/>
        <pt x="519" y="616" on="0"/>
        <pt x="542" y="580" on="1"/>
        <pt x="518" y="564" on="1"/>
        <pt x="498" y="599" on="0"/>
        <pt x="435" y="646" on="0"/>
        <pt x="388" y="646" on="1"/>
        <pt x="316" y="646" on="0"/>
        <pt x="204" y="571" on="0"/>
        <pt x="128" y="455" on="0"/>
        <pt x="88" y="316" on="0"/>
        <pt x="88" y="252" on="1"/>
        <pt x="88" y="202" on="0"/>
        <pt x="110" y="115" on="0"/>
        <pt x="157" y="51" on="0"/>
        <pt x="230" y="14" on="0"/>
        <pt x="280" y="14" on="1"/>
        <pt x="328" y="14" on="0"/>
        <pt x="404" y="48" on="0"/>
        <pt x="442" y="80" on="1"/>
        <pt x="460" y="60" on="1"/>
        <pt x="418" y="25" on="0"/>
        <pt x="332" y="-12" on="0"/>
        <pt x="278" y="-12" on="1"/>
        <pt x="222" y="-12" on="0"/>
        <pt x="140" y="28" on="0"/>
        <pt x="85" y="97" on="0"/>
        <pt x="58" y="191" on="0"/>
      </contour>
    </TTGlyph>
    <TTGlyph name="Cacute" xMin="58" yMin="-12" xMax="542" yMax="812">
      <component glyphName="C" x="0" y="0" flags="0x204"/>
      <component glyphName="uni0301.cap" x="270" y="0" flags="0x4"/>
    </TTGlyph>
    <TTGlyph name="Ccaron" xMin="58" yMin="-12" xMax="542" yMax="812">
      <component glyphName="C" x="0" y="0" flags="0x204"/>
      <component glyphName="uni030C.cap" x="270" y="0" flags="0x4"/>
    </TTGlyph>
    <TTGlyph name="Ccedilla" xMin="58" yMin="-208" xMax="542" yMax="672">
      <component glyphName="C" x="0" y="0" flags="0x204"/>
      <component glyphName="uni0327.cap" x="274" y="0" flags="0x4"/>
    </TTGlyph>
    <TTGlyph name="Ccircumflex" xMin="58" yMin="-12" xMax="542" yMax="812">
      <component glyphName="C" x="0" y="0" flags="0x204"/>
      <component glyphName="uni0302.cap" x="270" y="0" flags="0x4"/>
    </TTGlyph>
    <TTGlyph name="Cdotaccent" xMin="58" yMin="-12" xMax="542" yMax="794">
      <component glyphName="C" x="0" y="0" flags="0x204"/>
      <component glyphName="uni0307.cap" x="270" y="0" flags="0x4"/>
    </TTGlyph>
    <TTGlyph name="D" xMin="40" yMin="0" xMax="546" yMax="660">
      <contour>
        <pt x="172" y="660" on="1"/>
        <pt x="276" y="660" on="1"/>
        <pt x="344" y="660" on="0"/>
        <pt x="446" y="623" on="0"/>
        <pt x="513" y="555" on="0"/>
        <pt x="546" y="461" on="0"/>
        <pt x="546" y="404" on="1"/>
        <pt x="546" y="320" on="0"/>
        <pt x="501" y="173" on="0"/>
        <pt x="413" y="63" on="0"/>
        <pt x="281" y="0" on="0"/>
        <pt x="194" y="0" on="1"/>
        <pt x="40" y="0" on="1"/>
      </contour>
      <contour>
        <pt x="196" y="26" on="1"/>
        <pt x="273" y="26" on="0"/>
        <pt x="393" y="87" on="0"/>
        <pt x="474" y="191" on="0"/>
        <pt x="516" y="327" on="0"/>
        <pt x="516" y="402" on="1"/>
        <pt x="516" y="453" on="0"/>
        <pt x="486" y="538" on="0"/>
        <pt x="426" y="600" on="0"/>
        <pt x="335" y="634" on="0"/>
        <pt x="274" y="634" on="1"/>
        <pt x="196" y="634" on="1"/>
        <pt x="74" y="26" on="1"/>
      </contour>
    </TTGlyph>
    <TTGlyph name="Dcaron" xMin="40" yMin="0" xMax="546" yMax="812">
      <component glyphName="D" x="0" y="0" flags="0x204"/>
      <component glyphName="uni030C.cap" x="234" y="0" flags="0x4"/>
    </TTGlyph>
    <TTGlyph name="Dcroat" xMin="54" yMin="0" xMax="564" yMax="660">
      <component glyphName="Eth" x="0" y="0" flags="0x204"/>
    </TTGlyph>
    <TTGlyph name="E" xMin="40" yMin="0" xMax="514" yMax="660">
      <contour>
        <pt x="172" y="660" on="1"/>
        <pt x="514" y="660" on="1"/>
        <pt x="508" y="634" on="1"/>
        <pt x="196" y="634" on="1"/>
        <pt x="142" y="364" on="1"/>
        <pt x="406" y="364" on="1"/>
        <pt x="400" y="338" on="1"/>
        <pt x="138" y="338" on="1"/>
        <pt x="74" y="26" on="1"/>
        <pt x="396" y="26" on="1"/>
        <pt x="390" y="0" on="1"/>
        <pt x="40" y="0" on="1"/>
      </contour>
    </TTGlyph>
    <TTGlyph name="Eacute" xMin="40" yMin="0" xMax="514" yMax="812">
      <component glyphName="E" x="0" y="0" flags="0x204"/>
      <component glyphName="uni0301.cap" x="226" y="0" flags="0x4"/>
    </TTGlyph>
    <TTGlyph name="Ebreve" xMin="40" yMin="0" xMax="514" yMax="812">
      <component glyphName="E" x="0" y="0" flags="0x204"/>
      <component glyphName="uni0306.cap" x="226" y="0" flags="0x4"/>
    </TTGlyph>
    <TTGlyph name="Ecaron" xMin="40" yMin="0" xMax="514" yMax="812">
      <component glyphName="E" x="0" y="0" flags="0x204"/>
      <component glyphName="uni030C.cap" x="226" y="0" flags="0x4"/>
    </TTGlyph>
    <TTGlyph name="Ecircumflex" xMin="40" yMin="0" xMax="514" yMax="812">
      <component glyphName="E" x="0" y="0" flags="0x204"/>
      <component glyphName="uni0302.cap" x="226" y="0" flags="0x4"/>
    </TTGlyph>
    <TTGlyph name="Edieresis" xMin="40" yMin="0" xMax="514" yMax="790">
      <component glyphName="E" x="0" y="0" flags="0x204"/>
      <component glyphName="uni0308.cap" x="226" y="0" flags="0x4"/>
    </TTGlyph>
    <TTGlyph name="Edotaccent" xMin="40" yMin="0" xMax="514" yMax="794">
      <component glyphName="E" x="0" y="0" flags="0x204"/>
      <component glyphName="uni0307.cap" x="226" y="0" flags="0x4"/>
    </TTGlyph>
    <TTGlyph name="Egrave" xMin="40" yMin="0" xMax="514" yMax="812">
      <component glyphName="E" x="0" y="0" flags="0x204"/>
      <component glyphName="uni0300.cap" x="226" y="0" flags="0x4"/>
    </TTGlyph>
    <TTGlyph name="Emacron" xMin="40" yMin="0" xMax="514" yMax="762">
      <component glyphName="E" x="0" y="0" flags="0x204"/>
      <component glyphName="uni0304.cap" x="226" y="0" flags="0x4"/>
    </TTGlyph>
    <TTGlyph name="Eogonek" xMin="40" yMin="-202" xMax="514" yMax="660">
      <contour>
        <pt x="172" y="660" on="1"/>
        <pt x="514" y="660" on="1"/>
        <pt x="508" y="634" on="1"/>
        <pt x="196" y="634" on="1"/>
        <pt x="142" y="364" on="1"/>
        <pt x="406" y="364" on="1"/>
        <pt x="400" y="338" on="1"/>
        <pt x="138" y="338" on="1"/>
        <pt x="74" y="26" on="1"/>
        <pt x="396" y="26" on="1"/>
        <pt x="390" y="0" on="1"/>
        <pt x="367" y="-2" on="0"/>
        <pt x="323" y="-31" on="0"/>
        <pt x="289" y="-70" on="0"/>
        <pt x="268" y="-115" on="0"/>
        <pt x="268" y="-134" on="1"/>
        <pt x="268" y="-154" on="0"/>
        <pt x="289" y="-176" on="0"/>
        <pt x="306" y="-176" on="1"/>
        <pt x="318" y="-176" on="0"/>
        <pt x="337" y="-170" on="0"/>
        <pt x="348" y="-164" on="1"/>
        <pt x="358" y="-186" on="1"/>
        <pt x="329" y="-202" on="0"/>
        <pt x="304" y="-202" on="1"/>
        <pt x="275" y="-202" on="0"/>
        <pt x="238" y="-172" on="0"/>
        <pt x="238" y="-140" on="1"/>
        <pt x="238" y="-121" on="0"/>
        <pt x="254" y="-80" on="0"/>
        <pt x="281" y="-43" on="0"/>
        <pt x="313" y="-11" on="0"/>
        <pt x="330" y="0" on="1"/>
        <pt x="40" y="0" on="1"/>
      </contour>
    </TTGlyph>
    <TTGlyph name="Eth" xMin="54" yMin="0" xMax="564" yMax="660">
      <contour>
        <pt x="214" y="26" on="1"/>
        <pt x="291" y="26" on="0"/>
        <pt x="411" y="87" on="0"/>
        <pt x="492" y="191" on="0"/>
        <pt x="534" y="327" on="0"/>
        <pt x="534" y="402" on="1"/>
        <pt x="534" y="453" on="0"/>
        <pt x="504" y="538" on="0"/>
        <pt x="444" y="600" on="0"/>
        <pt x="353" y="634" on="0"/>
        <pt x="292" y="634" on="1"/>
        <pt x="214" y="634" on="1"/>
        <pt x="160" y="364" on="1"/>
        <pt x="330" y="364" on="1"/>
        <pt x="324" y="338" on="1"/>
        <pt x="155" y="338" on="1"/>
        <pt x="92" y="26" on="1"/>
      </contour>
      <contour>
        <pt x="294" y="660" on="1"/>
        <pt x="362" y="660" on="0"/>
        <pt x="464" y="623" on="0"/>
        <pt x="531" y="555" on="0"/>
        <pt x="564" y="461" on="0"/>
        <pt x="564" y="404" on="1"/>
        <pt x="564" y="320" on="0"/>
        <pt x="519" y="173" on="0"/>
        <pt x="431" y="63" on="0"/>
        <pt x="299" y="0" on="0"/>
        <pt x="212" y="0" on="1"/>
        <pt x="58" y="0" on="1"/>
        <pt x="126" y="338" on="1"/>
        <pt x="54" y="338" on="1"/>
        <pt x="60" y="362" on="1"/>
        <pt x="131" y="364" on="1"/>
        <pt x="190" y="660" on="1"/>
      </contour>
    </TTGlyph>
    <TTGlyph name="Euro" xMin="24" yMin="-12" xMax="496" yMax="652">
      <contour>
        <pt x="105" y="384" on="1"/>
        <pt x="120" y="443" on="0"/>
        <pt x="173" y="541" on="0"/>
        <pt x="240" y="612" on="0"/>
        <pt x="318" y="652" on="0"/>
        <pt x="360" y="652" on="1"/>
        <pt x="387" y="652" on="0"/>
        <pt x="429" y="636" on="0"/>
        <pt x="462" y="609" on="0"/>
        <pt x="487" y="575" on="0"/>
        <pt x="496" y="556" on="1"/>
        <pt x="472" y="542" on="1"/>
        <pt x="454" y="578" on="0"/>
        <pt x="403" y="626" on="0"/>
        <pt x="358" y="626" on="1"/>
        <pt x="322" y="626" on="0"/>
        <pt x="254" y="590" on="0"/>
        <pt x="195" y="526" on="0"/>
        <pt x="148" y="437" on="0"/>
        <pt x="133" y="384" on="1"/>
        <pt x="416" y="384" on="1"/>
        <pt x="410" y="360" on="1"/>
        <pt x="127" y="360" on="1"/>
        <pt x="123" y="340" on="0"/>
        <pt x="117" y="299" on="0"/>
        <pt x="115" y="277" on="1"/>
        <pt x="356" y="277" on="1"/>
        <pt x="350" y="253" on="1"/>
        <pt x="114" y="253" on="1"/>
        <pt x="110" y="137" on="0"/>
        <pt x="192" y="14" on="0"/>
        <pt x="260" y="14" on="1"/>
        <pt x="304" y="14" on="0"/>
        <pt x="372" y="53" on="0"/>
        <pt x="400" y="80" on="1"/>
        <pt x="418" y="60" on="1"/>
        <pt x="389" y="31" on="0"/>
        <pt x="313" y="-12" on="0"/>
        <pt x="258" y="-12" on="1"/>
        <pt x="217" y="-12" on="0"/>
        <pt x="152" y="23" on="0"/>
        <pt x="107" y="90" on="0"/>
        <pt x="84" y="189" on="0"/>
        <pt x="86" y="253" on="1"/>
        <pt x="24" y="253" on="1"/>
        <pt x="30" y="273" on="1"/>
        <pt x="87" y="277" on="1"/>
        <pt x="90" y="320" on="0"/>
        <pt x="99" y="360" on="1"/>
        <pt x="44" y="360" on="1"/>
        <pt x="50" y="380" on="1"/>
      </contour>
    </TTGlyph>
    <TTGlyph name="F" xMin="40" yMin="0" xMax="514" yMax="660">
      <contour>
        <pt x="172" y="660" on="1"/>
        <pt x="514" y="660" on="1"/>
        <pt x="508" y="634" on="1"/>
        <pt x="196" y="634" on="1"/>
        <pt x="140" y="352" on="1"/>
        <pt x="404" y="352" on="1"/>
        <pt x="398" y="326" on="1"/>
        <pt x="136" y="326" on="1"/>
        <pt x="70" y="0" on="1"/>
        <pt x="40" y="0" on="1"/>
      </contour>
    </TTGlyph>
    <TTGlyph name="G" xMin="58" yMin="-12" xMax="552" yMax="672">
      <contour>
        <pt x="58" y="246" on="1"/>
        <pt x="58" y="319" on="0"/>
        <pt x="102" y="471" on="0"/>
        <pt x="189" y="594" on="0"/>
        <pt x="317" y="672" on="0"/>
        <pt x="400" y="672" on="1"/>
        <pt x="456" y="672" on="0"/>
        <pt x="529" y="616" on="0"/>
        <pt x="552" y="580" on="1"/>
        <pt x="528" y="564" on="1"/>
        <pt x="508" y="599" on="0"/>
        <pt x="445" y="646" on="0"/>
        <pt x="398" y="646" on="1"/>
        <pt x="323" y="646" on="0"/>
        <pt x="207" y="571" on="0"/>
        <pt x="129" y="455" on="0"/>
        <pt x="88" y="316" on="0"/>
        <pt x="88" y="252" on="1"/>
        <pt x="88" y="203" on="0"/>
        <pt x="110" y="117" on="0"/>
        <pt x="158" y="52" on="0"/>
        <pt x="235" y="14" on="0"/>
        <pt x="290" y="14" on="1"/>
        <pt x="338" y="14" on="0"/>
        <pt x="410" y="45" on="0"/>
        <pt x="434" y="68" on="1"/>
        <pt x="478" y="290" on="1"/>
        <pt x="320" y="290" on="1"/>
        <pt x="326" y="316" on="1"/>
        <pt x="514" y="316" on="1"/>
        <pt x="460" y="54" on="1"/>
        <pt x="425" y="24" on="0"/>
        <pt x="341" y="-12" on="0"/>
        <pt x="288" y="-12" on="1"/>
        <pt x="229" y="-12" on="0"/>
        <pt x="143" y="26" on="0"/>
        <pt x="86" y="95" on="0"/>
        <pt x="58" y="190" on="0"/>
      </contour>
    </TTGlyph>
    <TTGlyph name="Gbreve" xMin="58" yMin="-12" xMax="552" yMax="812">
      <component glyphName="G" x="0" y="0" flags="0x204"/>
      <component glyphName="uni0306.cap" x="270" y="0" flags="0x4"/>
    </TTGlyph>
    <TTGlyph name="Gcaron" xMin="58" yMin="-12" xMax="552" yMax="812">
      <component glyphName="G" x="0" y="0" flags="0x204"/>
      <component glyphName="uni030C.cap" x="270" y="0" flags="0x4"/>
    </TTGlyph>
    <TTGlyph name="Gcircumflex" xMin="58" yMin="-12" xMax="552" yMax="812">
      <component glyphName="G" x="0" y="0" flags="0x204"/>
      <component glyphName="uni0302.cap" x="270" y="0" flags="0x4"/>
    </TTGlyph>
    <TTGlyph name="Gdotaccent" xMin="58" yMin="-12" xMax="552" yMax="794">
      <component glyphName="G" x="0" y="0" flags="0x204"/>
      <component glyphName="uni0307.cap" x="270" y="0" flags="0x4"/>
    </TTGlyph>
    <TTGlyph name="H" xMin="40" yMin="0" xMax="588" yMax="660">
      <contour>
        <pt x="172" y="660" on="1"/>
        <pt x="202" y="660" on="1"/>
        <pt x="142" y="364" on="1"/>
        <pt x="498" y="364" on="1"/>
        <pt x="558" y="660" on="1"/>
        <pt x="588" y="660" on="1"/>
        <pt x="456" y="0" on="1"/>
        <pt x="426" y="0" on="1"/>
        <pt x="494" y="338" on="1"/>
        <pt x="138" y="338" on="1"/>
        <pt x="70" y="0" on="1"/>
        <pt x="40" y="0" on="1"/>
      </contour>
    </TTGlyph>
    <TTGlyph name="Hbar" xMin="54" yMin="0" xMax="648" yMax="660">
      <contour>
        <pt x="539" y="496" on="1"/>
        <pt x="183" y="496" on="1"/>
        <pt x="156" y="364" on="1"/>
        <pt x="512" y="364" on="1"/>
      </contour>
      <contour>
        <pt x="642" y="496" on="1"/>
        <pt x="569" y="496" on="1"/>
        <pt x="470" y="0" on="1"/>
        <pt x="440" y="0" on="1"/>
        <pt x="508" y="338" on="1"/>
        <pt x="152" y="338" on="1"/>
        <pt x="84" y="0" on="1"/>
        <pt x="54" y="0" on="1"/>
        <pt x="153" y="496" on="1"/>
        <pt x="80" y="496" on="1"/>
        <pt x="86" y="520" on="1"/>
        <pt x="158" y="522" on="1"/>
        <pt x="186" y="660" on="1"/>
        <pt x="216" y="660" on="1"/>
        <pt x="188" y="522" on="1"/>
        <pt x="544" y="522" on="1"/>
        <pt x="572" y="660" on="1"/>
        <pt x="602" y="660" on="1"/>
        <pt x="574" y="522" on="1"/>
        <pt x="648" y="522" on="1"/>
      </contour>
    </TTGlyph>
    <TTGlyph name="Hcircumflex" xMin="40" yMin="0" xMax="588" yMax="812">
      <component glyphName="H" x="0" y="0" flags="0x204"/>
      <component glyphName="uni0302.cap" x="252" y="0" flags="0x4"/>
    </TTGlyph>
    <TTGlyph name="I" xMin="40" yMin="0" xMax="202" yMax="660">
      <contour>
        <pt x="172" y="660" on="1"/>
        <pt x="202" y="660" on="1"/>
        <pt x="70" y="0" on="1"/>
        <pt x="40" y="0" on="1"/>
      </contour>
    </TTGlyph>
    <TTGlyph name="I.a" xMin="-8" yMin="0" xMax="332" yMax="660">
      <contour>
        <pt x="-2" y="26" on="1"/>
        <pt x="84" y="26" on="1"/>
        <pt x="206" y="634" on="1"/>
        <pt x="118" y="634" on="1"/>
        <pt x="124" y="660" on="1"/>
        <pt x="332" y="660" on="1"/>
        <pt x="326" y="634" on="1"/>
        <pt x="236" y="634" on="1"/>
        <pt x="114" y="26" on="1"/>
        <pt x="204" y="26" on="1"/>
        <pt x="198" y="0" on="1"/>
        <pt x="-8" y="0" on="1"/>
      </contour>
    </TTGlyph>
    <TTGlyph name="Iacute" xMin="40" yMin="0" xMax="308" yMax="812">
      <component glyphName="I" x="0" y="0" flags="0x204"/>
      <component glyphName="uni0301.cap" x="66" y="0" flags="0x4"/>
    </TTGlyph>
    <TTGlyph name="Iacute.a" xMin="-8" yMin="0" xMax="342" yMax="812">
      <component glyphName="I.a" x="0" y="0" flags="0x204"/>
      <component glyphName="uni0301.cap" x="100" y="0" flags="0x4"/>
    </TTGlyph>
    <TTGlyph name="Icircumflex" xMin="40" yMin="0" xMax="294" yMax="812">
      <component glyphName="I" x="0" y="0" flags="0x204"/>
      <component glyphName="uni0302.cap" x="66" y="0" flags="0x4"/>
    </TTGlyph>
    <TTGlyph name="Icircumflex.a" xMin="-8" yMin="0" xMax="332" yMax="812">
      <component glyphName="I.a" x="0" y="0" flags="0x204"/>
      <component glyphName="uni0302.cap" x="100" y="0" flags="0x4"/>
    </TTGlyph>
    <TTGlyph name="Idieresis" xMin="40" yMin="0" xMax="302" yMax="790">
      <component glyphName="I" x="0" y="0" flags="0x204"/>
      <component glyphName="uni0308.cap" x="66" y="0" flags="0x4"/>
    </TTGlyph>
    <TTGlyph name="Idieresis.a" xMin="-8" yMin="0" xMax="336" yMax="790">
      <component glyphName="I.a" x="0" y="0" flags="0x204"/>
      <component glyphName="uni0308.cap" x="100" y="0" flags="0x4"/>
    </TTGlyph>
    <TTGlyph name="Idotaccent" xMin="40" yMin="0" xMax="232" yMax="794">
      <component glyphName="I" x="0" y="0" flags="0x204"/>
      <component glyphName="uni0307.cap" x="66" y="0" flags="0x4"/>
    </TTGlyph>
    <TTGlyph name="Idotaccent.a" xMin="-8" yMin="0" xMax="332" yMax="794">
      <component glyphName="I.a" x="0" y="0" flags="0x204"/>
      <component glyphName="uni0307.cap" x="100" y="0" flags="0x4"/>
    </TTGlyph>
    <TTGlyph name="Igrave" xMin="40" yMin="0" xMax="222" yMax="812">
      <component glyphName="I" x="0" y="0" flags="0x204"/>
      <component glyphName="uni0300.cap" x="66" y="0" flags="0x4"/>
    </TTGlyph>
    <TTGlyph name="Igrave.a" xMin="-8" yMin="0" xMax="332" yMax="812">
      <component glyphName="I.a" x="0" y="0" flags="0x204"/>
      <component glyphName="uni0300.cap" x="100" y="0" flags="0x4"/>
    </TTGlyph>
    <TTGlyph name="Imacron" xMin="40" yMin="0" xMax="306" yMax="762">
      <component glyphName="I" x="0" y="0" flags="0x204"/>
      <component glyphName="uni0304.cap" x="66" y="0" flags="0x4"/>
    </TTGlyph>
    <TTGlyph name="Imacron.a" xMin="-8" yMin="0" xMax="340" yMax="762">
      <component glyphName="I.a" x="0" y="0" flags="0x204"/>
      <component glyphName="uni0304.cap" x="100" y="0" flags="0x4"/>
    </TTGlyph>
    <TTGlyph name="Iogonek" xMin="-42" yMin="-202" xMax="202" yMax="660">
      <contour>
        <pt x="-12" y="-134" on="1"/>
        <pt x="-12" y="-154" on="0"/>
        <pt x="9" y="-176" on="0"/>
        <pt x="26" y="-176" on="1"/>
        <pt x="38" y="-176" on="0"/>
        <pt x="57" y="-170" on="0"/>
        <pt x="68" y="-164" on="1"/>
        <pt x="78" y="-182" on="1"/>
        <pt x="66" y="-191" on="0"/>
        <pt x="33" y="-202" on="0"/>
        <pt x="22" y="-202" on="1"/>
        <pt x="-5" y="-202" on="0"/>
        <pt x="-42" y="-172" on="0"/>
        <pt x="-42" y="-140" on="1"/>
        <pt x="-42" y="-121" on="0"/>
        <pt x="-26" y="-80" on="0"/>
        <pt x="-1" y="-43" on="0"/>
        <pt x="28" y="-11" on="0"/>
        <pt x="42" y="0" on="1"/>
        <pt x="40" y="0" on="1"/>
        <pt x="172" y="660" on="1"/>
        <pt x="202" y="660" on="1"/>
        <pt x="70" y="0" on="1"/>
        <pt x="55" y="-14" on="0"/>
        <pt x="26" y="-46" on="0"/>
        <pt x="2" y="-81" on="0"/>
        <pt x="-12" y="-117" on="0"/>
      </contour>
    </TTGlyph>
    <TTGlyph name="Iogonek.a" xMin="-8" yMin="-202" xMax="332" yMax="660">
      <contour>
        <pt x="-2" y="26" on="1"/>
        <pt x="84" y="26" on="1"/>
        <pt x="206" y="634" on="1"/>
        <pt x="118" y="634" on="1"/>
        <pt x="124" y="660" on="1"/>
        <pt x="332" y="660" on="1"/>
        <pt x="326" y="634" on="1"/>
        <pt x="236" y="634" on="1"/>
        <pt x="114" y="26" on="1"/>
        <pt x="204" y="26" on="1"/>
        <pt x="198" y="0" on="1"/>
        <pt x="110" y="0" on="1"/>
        <pt x="95" y="-14" on="0"/>
        <pt x="66" y="-46" on="0"/>
        <pt x="42" y="-81" on="0"/>
        <pt x="28" y="-117" on="0"/>
        <pt x="28" y="-134" on="1"/>
        <pt x="28" y="-154" on="0"/>
        <pt x="49" y="-176" on="0"/>
        <pt x="66" y="-176" on="1"/>
        <pt x="78" y="-176" on="0"/>
        <pt x="97" y="-170" on="0"/>
        <pt x="108" y="-164" on="1"/>
        <pt x="118" y="-182" on="1"/>
        <pt x="106" y="-191" on="0"/>
        <pt x="73" y="-202" on="0"/>
        <pt x="62" y="-202" on="1"/>
        <pt x="35" y="-202" on="0"/>
        <pt x="-2" y="-172" on="0"/>
        <pt x="-2" y="-140" on="1"/>
        <pt x="-2" y="-121" on="0"/>
        <pt x="14" y="-80" on="0"/>
        <pt x="39" y="-43" on="0"/>
        <pt x="68" y="-11" on="0"/>
        <pt x="82" y="0" on="1"/>
        <pt x="-8" y="0" on="1"/>
      </contour>
    </TTGlyph>
    <TTGlyph name="Itilde" xMin="40" yMin="0" xMax="325" yMax="802">
      <component glyphName="I" x="0" y="0" flags="0x204"/>
      <component glyphName="uni0303.cap" x="66" y="0" flags="0x4"/>
    </TTGlyph>
    <TTGlyph name="Itilde.a" xMin="-8" yMin="0" xMax="359" yMax="802">
      <component glyphName="I.a" x="0" y="0" flags="0x204"/>
      <component glyphName="uni0303.cap" x="100" y="0" flags="0x4"/>
    </TTGlyph>
    <TTGlyph name="J" xMin="2" yMin="-12" xMax="422" yMax="660">
      <contour>
        <pt x="324" y="168" on="1"/>
        <pt x="309" y="85" on="0"/>
        <pt x="217" y="-12" on="0"/>
        <pt x="146" y="-12" on="1"/>
        <pt x="86" y="-12" on="0"/>
        <pt x="17" y="46" on="0"/>
        <pt x="2" y="90" on="1"/>
        <pt x="28" y="102" on="1"/>
        <pt x="54" y="14" on="0"/>
        <pt x="148" y="14" on="1"/>
        <pt x="207" y="14" on="0"/>
        <pt x="280" y="101" on="0"/>
        <pt x="294" y="170" on="1"/>
        <pt x="392" y="660" on="1"/>
        <pt x="422" y="660" on="1"/>
        <pt x="324" y="168" on="1"/>
      </contour>
    </TTGlyph>
    <TTGlyph name="Jcircumflex" xMin="2" yMin="-12" xMax="514" yMax="812">
      <component glyphName="J" x="0" y="0" flags="0x204"/>
      <component glyphName="uni0302.cap" x="286" y="0" flags="0x4"/>
    </TTGlyph>
    <TTGlyph name="K" xMin="40" yMin="0" xMax="564" yMax="660">
      <contour>
        <pt x="172" y="660" on="1"/>
        <pt x="202" y="660" on="1"/>
        <pt x="128" y="290" on="1"/>
        <pt x="130" y="290" on="1"/>
        <pt x="526" y="660" on="1"/>
        <pt x="564" y="660" on="1"/>
        <pt x="312" y="420" on="1"/>
        <pt x="464" y="0" on="1"/>
        <pt x="432" y="0" on="1"/>
        <pt x="288" y="400" on="1"/>
        <pt x="120" y="244" on="1"/>
        <pt x="70" y="0" on="1"/>
        <pt x="40" y="0" on="1"/>
      </contour>
    </TTGlyph>
    <TTGlyph name="L" xMin="40" yMin="0" xMax="376" yMax="660">
      <contour>
        <pt x="172" y="660" on="1"/>
        <pt x="202" y="660" on="1"/>
        <pt x="76" y="26" on="1"/>
        <pt x="376" y="26" on="1"/>
        <pt x="370" y="0" on="1"/>
        <pt x="40" y="0" on="1"/>
      </contour>
    </TTGlyph>
    <TTGlyph name="Lacute" xMin="40" yMin="0" xMax="376" yMax="812">
      <component glyphName="L" x="0" y="0" flags="0x204"/>
      <component glyphName="uni0301.cap" x="66" y="0" flags="0x4"/>
    </TTGlyph>
    <TTGlyph name="Lcaron" xMin="40" yMin="0" xMax="421" yMax="721">
      <component glyphName="L" x="0" y="0" flags="0x204"/>
      <component glyphName="uni030C.a" x="325" y="-31" flags="0x4"/>
    </TTGlyph>
    <TTGlyph name="Ldot" xMin="40" yMin="0" xMax="378" yMax="660">
      <component glyphName="L" x="0" y="0" flags="0x204"/>
      <component glyphName="period" x="288" y="304" flags="0x4"/>
    </TTGlyph>
    <TTGlyph name="Lslash" xMin="-2" yMin="0" xMax="376" yMax="660">
      <contour>
        <pt x="376" y="26" on="1"/>
        <pt x="370" y="0" on="1"/>
        <pt x="40" y="0" on="1"/>
        <pt x="92" y="260" on="1"/>
        <pt x="-2" y="216" on="1"/>
        <pt x="4" y="248" on="1"/>
        <pt x="98" y="292" on="1"/>
        <pt x="172" y="660" on="1"/>
        <pt x="202" y="660" on="1"/>
        <pt x="132" y="308" on="1"/>
        <pt x="342" y="408" on="1"/>
        <pt x="336" y="376" on="1"/>
        <pt x="126" y="276" on="1"/>
        <pt x="76" y="26" on="1"/>
      </contour>
    </TTGlyph>
    <TTGlyph name="M" xMin="40" yMin="0" xMax="666" yMax="660">
      <contour>
        <pt x="172" y="660" on="1"/>
        <pt x="222" y="660" on="1"/>
        <pt x="288" y="262" on="1"/>
        <pt x="314" y="112" on="1"/>
        <pt x="318" y="112" on="1"/>
        <pt x="396" y="262" on="1"/>
        <pt x="616" y="660" on="1"/>
        <pt x="666" y="660" on="1"/>
        <pt x="534" y="0" on="1"/>
        <pt x="504" y="0" on="1"/>
        <pt x="596" y="460" on="1"/>
        <pt x="605" y="501" on="0"/>
        <pt x="625" y="593" on="0"/>
        <pt x="634" y="632" on="1"/>
        <pt x="630" y="632" on="1"/>
        <pt x="552" y="490" on="1"/>
        <pt x="326" y="76" on="1"/>
        <pt x="292" y="76" on="1"/>
        <pt x="220" y="490" on="1"/>
        <pt x="196" y="632" on="1"/>
        <pt x="192" y="632" on="1"/>
        <pt x="184" y="591" on="0"/>
        <pt x="170" y="501" on="0"/>
        <pt x="162" y="460" on="1"/>
        <pt x="70" y="0" on="1"/>
        <pt x="40" y="0" on="1"/>
      </contour>
    </TTGlyph>
    <TTGlyph name="N" xMin="40" yMin="0" xMax="590" yMax="660">
      <contour>
        <pt x="172" y="660" on="1"/>
        <pt x="206" y="660" on="1"/>
        <pt x="390" y="174" on="1"/>
        <pt x="438" y="42" on="1"/>
        <pt x="442" y="42" on="1"/>
        <pt x="450" y="89" on="0"/>
        <pt x="465" y="183" on="0"/>
        <pt x="474" y="230" on="1"/>
        <pt x="560" y="660" on="1"/>
        <pt x="590" y="660" on="1"/>
        <pt x="458" y="0" on="1"/>
        <pt x="426" y="0" on="1"/>
        <pt x="244" y="484" on="1"/>
        <pt x="194" y="622" on="1"/>
        <pt x="190" y="622" on="1"/>
        <pt x="182" y="574" on="0"/>
        <pt x="165" y="481" on="0"/>
        <pt x="156" y="436" on="1"/>
        <pt x="70" y="0" on="1"/>
        <pt x="40" y="0" on="1"/>
      </contour>
    </TTGlyph>
    <TTGlyph name="Nacute" xMin="40" yMin="0" xMax="590" yMax="812">
      <component glyphName="N" x="0" y="0" flags="0x204"/>
      <component glyphName="uni0301.cap" x="260" y="0" flags="0x4"/>
    </TTGlyph>
    <TTGlyph name="Ncaron" xMin="40" yMin="0" xMax="590" yMax="812">
      <component glyphName="N" x="0" y="0" flags="0x204"/>
      <component glyphName="uni030C.cap" x="260" y="0" flags="0x4"/>
    </TTGlyph>
    <TTGlyph name="Ntilde" xMin="40" yMin="0" xMax="590" yMax="802">
      <component glyphName="N" x="0" y="0" flags="0x204"/>
      <component glyphName="uni0303.cap" x="260" y="0" flags="0x4"/>
    </TTGlyph>
    <TTGlyph name="O" xMin="62" yMin="-12" xMax="584" yMax="672">
      <contour>
        <pt x="274" y="-12" on="1"/>
        <pt x="220" y="-12" on="0"/>
        <pt x="140" y="29" on="0"/>
        <pt x="88" y="101" on="0"/>
        <pt x="62" y="202" on="0"/>
        <pt x="62" y="262" on="1"/>
        <pt x="62" y="306" on="0"/>
        <pt x="80" y="401" on="0"/>
        <pt x="116" y="492" on="0"/>
        <pt x="169" y="574" on="0"/>
        <pt x="238" y="636" on="0"/>
        <pt x="322" y="672" on="0"/>
        <pt x="372" y="672" on="1"/>
        <pt x="426" y="672" on="0"/>
        <pt x="506" y="631" on="0"/>
        <pt x="558" y="559" on="0"/>
        <pt x="584" y="458" on="0"/>
        <pt x="584" y="398" on="1"/>
        <pt x="584" y="354" on="0"/>
        <pt x="566" y="259" on="0"/>
        <pt x="530" y="168" on="0"/>
        <pt x="477" y="86" on="0"/>
        <pt x="408" y="24" on="0"/>
        <pt x="323" y="-12" on="0"/>
      </contour>
      <contour>
        <pt x="370" y="646" on="1"/>
        <pt x="325" y="646" on="0"/>
        <pt x="249" y="611" on="0"/>
        <pt x="187" y="553" on="0"/>
        <pt x="140" y="476" on="0"/>
        <pt x="108" y="392" on="0"/>
        <pt x="92" y="305" on="0"/>
        <pt x="92" y="266" on="1"/>
        <pt x="92" y="210" on="0"/>
        <pt x="113" y="118" on="0"/>
        <pt x="158" y="51" on="0"/>
        <pt x="227" y="14" on="0"/>
        <pt x="276" y="14" on="1"/>
        <pt x="343" y="14" on="0"/>
        <pt x="447" y="89" on="0"/>
        <pt x="518" y="202" on="0"/>
        <pt x="554" y="335" on="0"/>
        <pt x="554" y="394" on="1"/>
        <pt x="554" y="449" on="0"/>
        <pt x="533" y="542" on="0"/>
        <pt x="488" y="609" on="0"/>
        <pt x="419" y="646" on="0"/>
      </contour>
    </TTGlyph>
    <TTGlyph name="OE" xMin="62" yMin="0" xMax="832" yMax="660">
      <contour>
        <pt x="62" y="256" on="1"/>
        <pt x="62" y="340" on="0"/>
        <pt x="107" y="487" on="0"/>
        <pt x="195" y="597" on="0"/>
        <pt x="327" y="660" on="0"/>
        <pt x="414" y="660" on="1"/>
        <pt x="832" y="660" on="1"/>
        <pt x="826" y="634" on="1"/>
        <pt x="538" y="634" on="1"/>
        <pt x="484" y="364" on="1"/>
        <pt x="724" y="364" on="1"/>
        <pt x="718" y="338" on="1"/>
        <pt x="480" y="338" on="1"/>
        <pt x="416" y="26" on="1"/>
        <pt x="714" y="26" on="1"/>
        <pt x="708" y="0" on="1"/>
        <pt x="332" y="0" on="1"/>
        <pt x="264" y="0" on="0"/>
        <pt x="162" y="37" on="0"/>
        <pt x="95" y="105" on="0"/>
        <pt x="62" y="199" on="0"/>
      </contour>
      <contour>
        <pt x="412" y="634" on="1"/>
        <pt x="335" y="634" on="0"/>
        <pt x="215" y="573" on="0"/>
        <pt x="134" y="469" on="0"/>
        <pt x="92" y="333" on="0"/>
        <pt x="92" y="258" on="1"/>
        <pt x="92" y="207" on="0"/>
        <pt x="121" y="122" on="0"/>
        <pt x="181" y="60" on="0"/>
        <pt x="272" y="26" on="0"/>
        <pt x="334" y="26" on="1"/>
        <pt x="388" y="26" on="1"/>
        <pt x="510" y="634" on="1"/>
      </contour>
    </TTGlyph>
    <TTGlyph name="Oacute" xMin="62" yMin="-12" xMax="584" yMax="812">
      <component glyphName="O" x="0" y="0" flags="0x204"/>
      <component glyphName="uni0301.cap" x="270" y="0" flags="0x4"/>
    </TTGlyph>
    <TTGlyph name="Ocircumflex" xMin="62" yMin="-12" xMax="584" yMax="812">
      <component glyphName="O" x="0" y="0" flags="0x204"/>
      <component glyphName="uni0302.cap" x="270" y="0" flags="0x4"/>
    </TTGlyph>
    <TTGlyph name="Odieresis" xMin="62" yMin="-12" xMax="584" yMax="790">
      <component glyphName="O" x="0" y="0" flags="0x204"/>
      <component glyphName="uni0308.cap" x="270" y="0" flags="0x4"/>
    </TTGlyph>
    <TTGlyph name="Ograve" xMin="62" yMin="-12" xMax="584" yMax="812">
      <component glyphName="O" x="0" y="0" flags="0x204"/>
      <component glyphName="uni0300.cap" x="270" y="0" flags="0x4"/>
    </TTGlyph>
    <TTGlyph name="Ohorn" xMin="62" yMin="-12" xMax="628" yMax="758">
      <contour>
        <pt x="276" y="14" on="1"/>
        <pt x="343" y="14" on="0"/>
        <pt x="447" y="89" on="0"/>
        <pt x="518" y="202" on="0"/>
        <pt x="554" y="335" on="0"/>
        <pt x="554" y="394" on="1"/>
        <pt x="554" y="449" on="0"/>
        <pt x="533" y="542" on="0"/>
        <pt x="488" y="609" on="0"/>
        <pt x="419" y="646" on="0"/>
        <pt x="370" y="646" on="1"/>
        <pt x="325" y="646" on="0"/>
        <pt x="249" y="611" on="0"/>
        <pt x="187" y="553" on="0"/>
        <pt x="140" y="476" on="0"/>
        <pt x="108" y="392" on="0"/>
        <pt x="92" y="305" on="0"/>
        <pt x="92" y="266" on="1"/>
        <pt x="92" y="210" on="0"/>
        <pt x="113" y="118" on="0"/>
        <pt x="158" y="51" on="0"/>
        <pt x="227" y="14" on="0"/>
      </contour>
      <contour>
        <pt x="620" y="758" on="1"/>
        <pt x="628" y="739" on="0"/>
        <pt x="628" y="722" on="1"/>
        <pt x="628" y="682" on="0"/>
        <pt x="566" y="624" on="0"/>
        <pt x="515" y="616" on="1"/>
        <pt x="550" y="579" on="0"/>
        <pt x="584" y="467" on="0"/>
        <pt x="584" y="398" on="1"/>
        <pt x="584" y="354" on="0"/>
        <pt x="566" y="259" on="0"/>
        <pt x="530" y="168" on="0"/>
        <pt x="477" y="86" on="0"/>
        <pt x="408" y="24" on="0"/>
        <pt x="323" y="-12" on="0"/>
        <pt x="274" y="-12" on="1"/>
        <pt x="220" y="-12" on="0"/>
        <pt x="140" y="29" on="0"/>
        <pt x="88" y="101" on="0"/>
        <pt x="62" y="202" on="0"/>
        <pt x="62" y="262" on="1"/>
        <pt x="62" y="306" on="0"/>
        <pt x="80" y="401" on="0"/>
        <pt x="116" y="492" on="0"/>
        <pt x="169" y="574" on="0"/>
        <pt x="238" y="636" on="0"/>
        <pt x="322" y="672" on="0"/>
        <pt x="372" y="672" on="1"/>
        <pt x="439" y="672" on="0"/>
        <pt x="486" y="640" on="1"/>
        <pt x="509" y="640" on="0"/>
        <pt x="550" y="651" on="0"/>
        <pt x="580" y="670" on="0"/>
        <pt x="598" y="698" on="0"/>
        <pt x="598" y="716" on="1"/>
        <pt x="598" y="724" on="0"/>
        <pt x="597" y="735" on="0"/>
        <pt x="594" y="746" on="1"/>
      </contour>
    </TTGlyph>
    <TTGlyph name="Ohungarumlaut" xMin="62" yMin="-12" xMax="584" yMax="814">
      <component glyphName="O" x="0" y="0" flags="0x204"/>
      <component glyphName="uni030B.cap" x="270" y="0" flags="0x4"/>
    </TTGlyph>
    <TTGlyph name="Omacron" xMin="62" yMin="-12" xMax="584" yMax="762">
      <component glyphName="O" x="0" y="0" flags="0x204"/>
      <component glyphName="uni0304.cap" x="270" y="0" flags="0x4"/>
    </TTGlyph>
    <TTGlyph name="Oslash" xMin="2" yMin="-22" xMax="642" yMax="678">
      <contour>
        <pt x="129" y="94" on="1"/>
        <pt x="152" y="56" on="0"/>
        <pt x="223" y="14" on="0"/>
        <pt x="276" y="14" on="1"/>
        <pt x="343" y="14" on="0"/>
        <pt x="447" y="89" on="0"/>
        <pt x="518" y="202" on="0"/>
        <pt x="554" y="335" on="0"/>
        <pt x="554" y="394" on="1"/>
        <pt x="554" y="436" on="0"/>
        <pt x="543" y="508" on="0"/>
        <pt x="531" y="537" on="1"/>
      </contour>
      <contour>
        <pt x="519" y="561" on="1"/>
        <pt x="497" y="601" on="0"/>
        <pt x="424" y="646" on="0"/>
        <pt x="370" y="646" on="1"/>
        <pt x="325" y="646" on="0"/>
        <pt x="249" y="611" on="0"/>
        <pt x="187" y="553" on="0"/>
        <pt x="140" y="476" on="0"/>
        <pt x="108" y="392" on="0"/>
        <pt x="92" y="305" on="0"/>
        <pt x="92" y="266" on="1"/>
        <pt x="92" y="181" on="0"/>
        <pt x="116" y="121" on="1"/>
      </contour>
      <contour>
        <pt x="552" y="561" on="1"/>
        <pt x="569" y="527" on="0"/>
        <pt x="584" y="446" on="0"/>
        <pt x="584" y="398" on="1"/>
        <pt x="584" y="354" on="0"/>
        <pt x="566" y="259" on="0"/>
        <pt x="530" y="168" on="0"/>
        <pt x="477" y="86" on="0"/>
        <pt x="408" y="24" on="0"/>
        <pt x="323" y="-12" on="0"/>
        <pt x="274" y="-12" on="1"/>
        <pt x="217" y="-12" on="0"/>
        <pt x="135" y="32" on="0"/>
        <pt x="109" y="72" on="1"/>
        <pt x="24" y="-22" on="1"/>
        <pt x="2" y="-4" on="1"/>
        <pt x="95" y="97" on="1"/>
        <pt x="62" y="164" on="0"/>
        <pt x="62" y="262" on="1"/>
        <pt x="62" y="306" on="0"/>
        <pt x="80" y="401" on="0"/>
        <pt x="116" y="492" on="0"/>
        <pt x="169" y="574" on="0"/>
        <pt x="238" y="636" on="0"/>
        <pt x="322" y="672" on="0"/>
        <pt x="372" y="672" on="1"/>
        <pt x="430" y="672" on="0"/>
        <pt x="514" y="626" on="0"/>
        <pt x="540" y="584" on="1"/>
        <pt x="626" y="678" on="1"/>
        <pt x="642" y="660" on="1"/>
      </contour>
    </TTGlyph>
    <TTGlyph name="Otilde" xMin="62" yMin="-12" xMax="584" yMax="802">
      <component glyphName="O" x="0" y="0" flags="0x204"/>
      <component glyphName="uni0303.cap" x="270" y="0" flags="0x4"/>
    </TTGlyph>
    <TTGlyph name="P" xMin="40" yMin="0" xMax="532" yMax="660">
      <contour>
        <pt x="172" y="660" on="1"/>
        <pt x="340" y="660" on="1"/>
        <pt x="431" y="660" on="0"/>
        <pt x="532" y="588" on="0"/>
        <pt x="532" y="510" on="1"/>
        <pt x="532" y="456" on="0"/>
        <pt x="494" y="375" on="0"/>
        <pt x="422" y="321" on="0"/>
        <pt x="320" y="294" on="0"/>
        <pt x="256" y="294" on="1"/>
        <pt x="128" y="294" on="1"/>
        <pt x="70" y="0" on="1"/>
        <pt x="40" y="0" on="1"/>
      </contour>
      <contour>
        <pt x="250" y="320" on="1"/>
        <pt x="375" y="320" on="0"/>
        <pt x="502" y="414" on="0"/>
        <pt x="502" y="508" on="1"/>
        <pt x="502" y="576" on="0"/>
        <pt x="411" y="634" on="0"/>
        <pt x="322" y="634" on="1"/>
        <pt x="196" y="634" on="1"/>
        <pt x="134" y="320" on="1"/>
      </contour>
    </TTGlyph>
    <TTGlyph name="Q" xMin="62" yMin="-150" xMax="584" yMax="672">
      <contour>
        <pt x="92" y="266" on="1"/>
        <pt x="92" y="210" on="0"/>
        <pt x="113" y="118" on="0"/>
        <pt x="158" y="51" on="0"/>
        <pt x="227" y="14" on="0"/>
        <pt x="276" y="14" on="1"/>
        <pt x="343" y="14" on="0"/>
        <pt x="447" y="89" on="0"/>
        <pt x="518" y="202" on="0"/>
        <pt x="554" y="335" on="0"/>
        <pt x="554" y="394" on="1"/>
        <pt x="554" y="449" on="0"/>
        <pt x="533" y="542" on="0"/>
        <pt x="488" y="609" on="0"/>
        <pt x="419" y="646" on="0"/>
        <pt x="370" y="646" on="1"/>
        <pt x="325" y="646" on="0"/>
        <pt x="249" y="611" on="0"/>
        <pt x="187" y="553" on="0"/>
        <pt x="140" y="476" on="0"/>
        <pt x="108" y="392" on="0"/>
        <pt x="92" y="305" on="0"/>
      </contour>
      <contour>
        <pt x="492" y="-144" on="1"/>
        <pt x="478" y="-147" on="0"/>
        <pt x="455" y="-150" on="0"/>
        <pt x="440" y="-150" on="1"/>
        <pt x="370" y="-150" on="0"/>
        <pt x="262" y="-83" on="0"/>
        <pt x="245" y="-10" on="1"/>
        <pt x="198" y="-5" on="0"/>
        <pt x="130" y="40" on="0"/>
        <pt x="84" y="111" on="0"/>
        <pt x="62" y="206" on="0"/>
        <pt x="62" y="262" on="1"/>
        <pt x="62" y="306" on="0"/>
        <pt x="80" y="401" on="0"/>
        <pt x="116" y="492" on="0"/>
        <pt x="169" y="574" on="0"/>
        <pt x="238" y="636" on="0"/>
        <pt x="322" y="672" on="0"/>
        <pt x="372" y="672" on="1"/>
        <pt x="426" y="672" on="0"/>
        <pt x="506" y="631" on="0"/>
        <pt x="558" y="559" on="0"/>
        <pt x="584" y="458" on="0"/>
        <pt x="584" y="398" on="1"/>
        <pt x="584" y="354" on="0"/>
        <pt x="566" y="259" on="0"/>
        <pt x="530" y="168" on="0"/>
        <pt x="477" y="86" on="0"/>
        <pt x="408" y="24" on="0"/>
        <pt x="324" y="-12" on="0"/>
        <pt x="275" y="-12" on="1"/>
        <pt x="289" y="-68" on="0"/>
        <pt x="379" y="-122" on="0"/>
        <pt x="442" y="-122" on="1"/>
        <pt x="464" y="-122" on="0"/>
        <pt x="488" y="-116" on="1"/>
      </contour>
    </TTGlyph>
    <TTGlyph name="R" xMin="40" yMin="0" xMax="522" yMax="660">
      <contour>
        <pt x="260" y="336" on="1"/>
        <pt x="372" y="336" on="0"/>
        <pt x="492" y="431" on="0"/>
        <pt x="492" y="516" on="1"/>
        <pt x="492" y="581" on="0"/>
        <pt x="403" y="634" on="0"/>
        <pt x="314" y="634" on="1"/>
        <pt x="196" y="634" on="1"/>
        <pt x="138" y="336" on="1"/>
      </contour>
      <contour>
        <pt x="332" y="660" on="1"/>
        <pt x="421" y="660" on="0"/>
        <pt x="522" y="593" on="0"/>
        <pt x="522" y="518" on="1"/>
        <pt x="522" y="474" on="0"/>
        <pt x="490" y="401" on="0"/>
        <pt x="432" y="348" on="0"/>
        <pt x="352" y="315" on="0"/>
        <pt x="305" y="311" on="1"/>
        <pt x="434" y="0" on="1"/>
        <pt x="400" y="0" on="1"/>
        <pt x="273" y="310" on="1"/>
        <pt x="132" y="310" on="1"/>
        <pt x="70" y="0" on="1"/>
        <pt x="40" y="0" on="1"/>
        <pt x="172" y="660" on="1"/>
      </contour>
    </TTGlyph>
    <TTGlyph name="Racute" xMin="40" yMin="0" xMax="522" yMax="812">
      <component glyphName="R" x="0" y="0" flags="0x204"/>
      <component glyphName="uni0301.cap" x="226" y="0" flags="0x4"/>
    </TTGlyph>
    <TTGlyph name="Rcaron" xMin="40" yMin="0" xMax="522" yMax="812">
      <component glyphName="R" x="0" y="0" flags="0x204"/>
      <component glyphName="uni030C.cap" x="226" y="0" flags="0x4"/>
    </TTGlyph>
    <TTGlyph name="S" xMin="18" yMin="-12" xMax="490" yMax="672">
      <contour>
        <pt x="42" y="114" on="1"/>
        <pt x="74" y="66" on="0"/>
        <pt x="165" y="14" on="0"/>
        <pt x="230" y="14" on="1"/>
        <pt x="267" y="14" on="0"/>
        <pt x="332" y="37" on="0"/>
        <pt x="380" y="79" on="0"/>
        <pt x="408" y="139" on="0"/>
        <pt x="408" y="176" on="1"/>
        <pt x="408" y="221" on="0"/>
        <pt x="361" y="283" on="0"/>
        <pt x="322" y="306" on="1"/>
        <pt x="234" y="358" on="1"/>
        <pt x="214" y="370" on="0"/>
        <pt x="176" y="400" on="0"/>
        <pt x="147" y="436" on="0"/>
        <pt x="130" y="480" on="0"/>
        <pt x="130" y="506" on="1"/>
        <pt x="130" y="539" on="0"/>
        <pt x="157" y="599" on="0"/>
        <pt x="205" y="645" on="0"/>
        <pt x="273" y="672" on="0"/>
        <pt x="314" y="672" on="1"/>
        <pt x="374" y="672" on="0"/>
        <pt x="464" y="620" on="0"/>
        <pt x="490" y="584" on="1"/>
        <pt x="468" y="566" on="1"/>
        <pt x="442" y="599" on="0"/>
        <pt x="362" y="646" on="0"/>
        <pt x="308" y="646" on="1"/>
        <pt x="274" y="646" on="0"/>
        <pt x="220" y="622" on="0"/>
        <pt x="181" y="583" on="0"/>
        <pt x="160" y="535" on="0"/>
        <pt x="160" y="510" on="1"/>
        <pt x="160" y="462" on="0"/>
        <pt x="213" y="404" on="0"/>
        <pt x="248" y="384" on="1"/>
        <pt x="334" y="334" on="1"/>
        <pt x="381" y="307" on="0"/>
        <pt x="438" y="234" on="0"/>
        <pt x="438" y="180" on="1"/>
        <pt x="438" y="136" on="0"/>
        <pt x="405" y="66" on="0"/>
        <pt x="348" y="15" on="0"/>
        <pt x="271" y="-12" on="0"/>
        <pt x="226" y="-12" on="1"/>
        <pt x="155" y="-12" on="0"/>
        <pt x="51" y="45" on="0"/>
        <pt x="18" y="98" on="1"/>
      </contour>
    </TTGlyph>
    <TTGlyph name="Sacute" xMin="18" yMin="-12" xMax="490" yMax="811">
      <component glyphName="S" x="0" y="0" flags="0x204"/>
      <component glyphName="uni0301.cap" x="214" y="-1" flags="0x4"/>
    </TTGlyph>
    <TTGlyph name="Scaron" xMin="18" yMin="-12" xMax="490" yMax="811">
      <component glyphName="S" x="0" y="0" flags="0x204"/>
      <component glyphName="uni030C.cap" x="214" y="-1" flags="0x4"/>
    </TTGlyph>
    <TTGlyph name="Scircumflex" xMin="18" yMin="-12" xMax="490" yMax="811">
      <component glyphName="S" x="0" y="0" flags="0x204"/>
      <component glyphName="uni0302.cap" x="214" y="-1" flags="0x4"/>
    </TTGlyph>
    <TTGlyph name="T" xMin="100" yMin="0" xMax="548" yMax="660">
      <contour>
        <pt x="306" y="632" on="1"/>
        <pt x="100" y="632" on="1"/>
        <pt x="106" y="660" on="1"/>
        <pt x="548" y="660" on="1"/>
        <pt x="542" y="632" on="1"/>
        <pt x="336" y="632" on="1"/>
        <pt x="210" y="0" on="1"/>
        <pt x="180" y="0" on="1"/>
      </contour>
    </TTGlyph>
    <TTGlyph name="Tcaron" xMin="100" yMin="0" xMax="548" yMax="812">
      <component glyphName="T" x="0" y="0" flags="0x204"/>
      <component glyphName="uni030C.cap" x="200" y="0" flags="0x4"/>
    </TTGlyph>
    <TTGlyph name="Thorn" xMin="40" yMin="0" xMax="506" yMax="660">
      <contour>
        <pt x="172" y="660" on="1"/>
        <pt x="202" y="660" on="1"/>
        <pt x="178" y="536" on="1"/>
        <pt x="314" y="536" on="1"/>
        <pt x="405" y="536" on="0"/>
        <pt x="506" y="464" on="0"/>
        <pt x="506" y="386" on="1"/>
        <pt x="506" y="332" on="0"/>
        <pt x="468" y="251" on="0"/>
        <pt x="396" y="197" on="0"/>
        <pt x="294" y="170" on="0"/>
        <pt x="230" y="170" on="1"/>
        <pt x="104" y="170" on="1"/>
        <pt x="70" y="0" on="1"/>
        <pt x="40" y="0" on="1"/>
      </contour>
      <contour>
        <pt x="224" y="196" on="1"/>
        <pt x="349" y="196" on="0"/>
        <pt x="476" y="290" on="0"/>
        <pt x="476" y="384" on="1"/>
        <pt x="476" y="452" on="0"/>
        <pt x="385" y="510" on="0"/>
        <pt x="296" y="510" on="1"/>
        <pt x="172" y="510" on="1"/>
        <pt x="110" y="196" on="1"/>
      </contour>
    </TTGlyph>
    <TTGlyph name="U" xMin="82" yMin="-12" xMax="586" yMax="660">
      <contour>
        <pt x="170" y="660" on="1"/>
        <pt x="200" y="660" on="1"/>
        <pt x="122" y="270" on="1"/>
        <pt x="116" y="246" on="0"/>
        <pt x="112" y="206" on="0"/>
        <pt x="112" y="188" on="1"/>
        <pt x="112" y="105" on="0"/>
        <pt x="192" y="14" on="0"/>
        <pt x="272" y="14" on="1"/>
        <pt x="304" y="14" on="0"/>
        <pt x="366" y="38" on="0"/>
        <pt x="419" y="92" on="0"/>
        <pt x="460" y="177" on="0"/>
        <pt x="472" y="238" on="1"/>
        <pt x="556" y="660" on="1"/>
        <pt x="586" y="660" on="1"/>
        <pt x="500" y="230" on="1"/>
        <pt x="486" y="162" on="0"/>
        <pt x="439" y="70" on="0"/>
        <pt x="377" y="13" on="0"/>
        <pt x="305" y="-12" on="0"/>
        <pt x="268" y="-12" on="1"/>
        <pt x="180" y="-12" on="0"/>
        <pt x="82" y="88" on="0"/>
        <pt x="82" y="180" on="1"/>
        <pt x="82" y="200" on="0"/>
        <pt x="85" y="238" on="0"/>
        <pt x="90" y="262" on="1"/>
      </contour>
    </TTGlyph>
    <TTGlyph name="Uacute" xMin="82" yMin="-12" xMax="586" yMax="812">
      <component glyphName="U" x="0" y="0" flags="0x204"/>
      <component glyphName="uni0301.cap" x="258" y="0" flags="0x4"/>
    </TTGlyph>
    <TTGlyph name="Ubreve" xMin="82" yMin="-12" xMax="586" yMax="812">
      <component glyphName="U" x="0" y="0" flags="0x204"/>
      <component glyphName="uni0306.cap" x="258" y="0" flags="0x4"/>
    </TTGlyph>
    <TTGlyph name="Ucircumflex" xMin="82" yMin="-12" xMax="586" yMax="812">
      <component glyphName="U" x="0" y="0" flags="0x204"/>
      <component glyphName="uni0302.cap" x="258" y="0" flags="0x4"/>
    </TTGlyph>
    <TTGlyph name="Udieresis" xMin="82" yMin="-12" xMax="586" yMax="790">
      <component glyphName="U" x="0" y="0" flags="0x204"/>
      <component glyphName="uni0308.cap" x="258" y="0" flags="0x4"/>
    </TTGlyph>
    <TTGlyph name="Ugrave" xMin="82" yMin="-12" xMax="586" yMax="812">
      <component glyphName="U" x="0" y="0" flags="0x204"/>
      <component glyphName="uni0300.cap" x="258" y="0" flags="0x4"/>
    </TTGlyph>
    <TTGlyph name="Uhorn" xMin="82" yMin="-12" xMax="698" yMax="778">
      <contour>
        <pt x="690" y="778" on="1"/>
        <pt x="698" y="759" on="0"/>
        <pt x="698" y="742" on="1"/>
        <pt x="698" y="705" on="0"/>
        <pt x="638" y="644" on="0"/>
        <pt x="581" y="637" on="1"/>
        <pt x="500" y="230" on="1"/>
        <pt x="486" y="162" on="0"/>
        <pt x="439" y="70" on="0"/>
        <pt x="377" y="13" on="0"/>
        <pt x="305" y="-12" on="0"/>
        <pt x="268" y="-12" on="1"/>
        <pt x="180" y="-12" on="0"/>
        <pt x="82" y="88" on="0"/>
        <pt x="82" y="180" on="1"/>
        <pt x="82" y="200" on="0"/>
        <pt x="85" y="238" on="0"/>
        <pt x="90" y="262" on="1"/>
        <pt x="170" y="660" on="1"/>
        <pt x="200" y="660" on="1"/>
        <pt x="122" y="270" on="1"/>
        <pt x="116" y="246" on="0"/>
        <pt x="112" y="206" on="0"/>
        <pt x="112" y="188" on="1"/>
        <pt x="112" y="105" on="0"/>
        <pt x="192" y="14" on="0"/>
        <pt x="272" y="14" on="1"/>
        <pt x="304" y="14" on="0"/>
        <pt x="366" y="38" on="0"/>
        <pt x="419" y="92" on="0"/>
        <pt x="460" y="177" on="0"/>
        <pt x="472" y="238" on="1"/>
        <pt x="556" y="660" on="1"/>
        <pt x="558" y="660" on="1"/>
        <pt x="580" y="660" on="0"/>
        <pt x="620" y="671" on="0"/>
        <pt x="650" y="691" on="0"/>
        <pt x="668" y="719" on="0"/>
        <pt x="668" y="736" on="1"/>
        <pt x="668" y="744" on="0"/>
        <pt x="667" y="755" on="0"/>
        <pt x="664" y="766" on="1"/>
      </contour>
    </TTGlyph>
    <TTGlyph name="Uhungarumlaut" xMin="82" yMin="-12" xMax="586" yMax="814">
      <component glyphName="U" x="0" y="0" flags="0x204"/>
      <component glyphName="uni030B.cap" x="258" y="0" flags="0x4"/>
    </TTGlyph>
    <TTGlyph name="Umacron" xMin="82" yMin="-12" xMax="586" yMax="762">
      <component glyphName="U" x="0" y="0" flags="0x204"/>
      <component glyphName="uni0304.cap" x="258" y="0" flags="0x4"/>
    </TTGlyph>
    <TTGlyph name="Uogonek" xMin="82" yMin="-202" xMax="586" yMax="660">
      <contour>
        <pt x="500" y="230" on="1"/>
        <pt x="489" y="174" on="0"/>
        <pt x="454" y="95" on="0"/>
        <pt x="408" y="39" on="0"/>
        <pt x="350" y="3" on="0"/>
        <pt x="316" y="-8" on="1"/>
        <pt x="285" y="-18" on="0"/>
        <pt x="241" y="-49" on="0"/>
        <pt x="212" y="-83" on="0"/>
        <pt x="198" y="-119" on="0"/>
        <pt x="198" y="-134" on="1"/>
        <pt x="198" y="-154" on="0"/>
        <pt x="219" y="-176" on="0"/>
        <pt x="236" y="-176" on="1"/>
        <pt x="248" y="-176" on="0"/>
        <pt x="267" y="-170" on="0"/>
        <pt x="278" y="-164" on="1"/>
        <pt x="288" y="-186" on="1"/>
        <pt x="259" y="-202" on="0"/>
        <pt x="234" y="-202" on="1"/>
        <pt x="205" y="-202" on="0"/>
        <pt x="168" y="-172" on="0"/>
        <pt x="168" y="-140" on="1"/>
        <pt x="168" y="-108" on="0"/>
        <pt x="215" y="-38" on="0"/>
        <pt x="250" y="-12" on="1"/>
        <pt x="169" y="-4" on="0"/>
        <pt x="82" y="94" on="0"/>
        <pt x="82" y="180" on="1"/>
        <pt x="82" y="200" on="0"/>
        <pt x="85" y="238" on="0"/>
        <pt x="90" y="262" on="1"/>
        <pt x="170" y="660" on="1"/>
        <pt x="200" y="660" on="1"/>
        <pt x="122" y="270" on="1"/>
        <pt x="116" y="246" on="0"/>
        <pt x="112" y="206" on="0"/>
        <pt x="112" y="188" on="1"/>
        <pt x="112" y="105" on="0"/>
        <pt x="192" y="14" on="0"/>
        <pt x="272" y="14" on="1"/>
        <pt x="304" y="14" on="0"/>
        <pt x="366" y="38" on="0"/>
        <pt x="419" y="92" on="0"/>
        <pt x="460" y="177" on="0"/>
        <pt x="472" y="238" on="1"/>
        <pt x="556" y="660" on="1"/>
        <pt x="586" y="660" on="1"/>
      </contour>
    </TTGlyph>
    <TTGlyph name="Uring" xMin="82" yMin="-12" xMax="586" yMax="862">
      <component glyphName="U" x="0" y="0" flags="0x204"/>
      <component glyphName="uni030A.cap" x="258" y="0" flags="0x4"/>
    </TTGlyph>
    <TTGlyph name="Utilde" xMin="82" yMin="-12" xMax="586" yMax="802">
      <component glyphName="U" x="0" y="0" flags="0x204"/>
      <component glyphName="uni0303.cap" x="258" y="0" flags="0x4"/>
    </TTGlyph>
    <TTGlyph name="V" xMin="84" yMin="0" xMax="528" yMax="660">
      <contour>
        <pt x="84" y="660" on="1"/>
        <pt x="112" y="660" on="1"/>
        <pt x="148" y="260" on="1"/>
        <pt x="154" y="206" on="0"/>
        <pt x="165" y="94" on="0"/>
        <pt x="170" y="38" on="1"/>
        <pt x="174" y="38" on="1"/>
        <pt x="201" y="92" on="0"/>
        <pt x="259" y="207" on="0"/>
        <pt x="288" y="260" on="1"/>
        <pt x="498" y="660" on="1"/>
        <pt x="528" y="660" on="1"/>
        <pt x="180" y="0" on="1"/>
        <pt x="146" y="0" on="1"/>
      </contour>
    </TTGlyph>
    <TTGlyph name="W" xMin="108" yMin="0" xMax="780" yMax="660">
      <contour>
        <pt x="108" y="660" on="1"/>
        <pt x="138" y="660" on="1"/>
        <pt x="138" y="260" on="1"/>
        <pt x="136" y="206" on="0"/>
        <pt x="138" y="98" on="0"/>
        <pt x="136" y="44" on="1"/>
        <pt x="140" y="44" on="1"/>
        <pt x="166" y="98" on="0"/>
        <pt x="216" y="206" on="0"/>
        <pt x="240" y="260" on="1"/>
        <pt x="428" y="660" on="1"/>
        <pt x="462" y="660" on="1"/>
        <pt x="476" y="260" on="1"/>
        <pt x="479" y="206" on="0"/>
        <pt x="482" y="98" on="0"/>
        <pt x="484" y="44" on="1"/>
        <pt x="488" y="44" on="1"/>
        <pt x="511" y="98" on="0"/>
        <pt x="556" y="206" on="0"/>
        <pt x="580" y="260" on="1"/>
        <pt x="748" y="660" on="1"/>
        <pt x="780" y="660" on="1"/>
        <pt x="496" y="0" on="1"/>
        <pt x="458" y="0" on="1"/>
        <pt x="442" y="472" on="1"/>
        <pt x="442" y="513" on="0"/>
        <pt x="440" y="587" on="0"/>
        <pt x="440" y="628" on="1"/>
        <pt x="436" y="628" on="1"/>
        <pt x="421" y="587" on="0"/>
        <pt x="386" y="513" on="0"/>
        <pt x="368" y="472" on="1"/>
        <pt x="148" y="0" on="1"/>
        <pt x="110" y="0" on="1"/>
      </contour>
    </TTGlyph>
    <TTGlyph name="Wacute" xMin="108" yMin="0" xMax="780" yMax="812">
      <component glyphName="W" x="0" y="0" flags="0x204"/>
      <component glyphName="uni0301.cap" x="320" y="0" flags="0x4"/>
    </TTGlyph>
    <TTGlyph name="Wcircumflex" xMin="108" yMin="0" xMax="780" yMax="812">
      <component glyphName="W" x="0" y="0" flags="0x204"/>
      <component glyphName="uni0302.cap" x="320" y="0" flags="0x4"/>
    </TTGlyph>
    <TTGlyph name="Wdieresis" xMin="108" yMin="0" xMax="780" yMax="790">
      <component glyphName="W" x="0" y="0" flags="0x204"/>
      <component glyphName="uni0308.cap" x="320" y="0" flags="0x4"/>
    </TTGlyph>
    <TTGlyph name="Wgrave" xMin="108" yMin="0" xMax="780" yMax="812">
      <component glyphName="W" x="0" y="0" flags="0x204"/>
      <component glyphName="uni0300.cap" x="320" y="0" flags="0x4"/>
    </TTGlyph>
    <TTGlyph name="X" xMin="-36" yMin="0" xMax="500" yMax="660">
      <contour>
        <pt x="224" y="344" on="1"/>
        <pt x="110" y="660" on="1"/>
        <pt x="140" y="660" on="1"/>
        <pt x="214" y="450" on="1"/>
        <pt x="222" y="427" on="0"/>
        <pt x="235" y="389" on="0"/>
        <pt x="244" y="366" on="1"/>
        <pt x="246" y="366" on="1"/>
        <pt x="264" y="387" on="0"/>
        <pt x="299" y="433" on="0"/>
        <pt x="316" y="456" on="1"/>
        <pt x="468" y="660" on="1"/>
        <pt x="500" y="660" on="1"/>
        <pt x="256" y="338" on="1"/>
        <pt x="380" y="0" on="1"/>
        <pt x="350" y="0" on="1"/>
        <pt x="272" y="218" on="1"/>
        <pt x="263" y="242" on="0"/>
        <pt x="245" y="292" on="0"/>
        <pt x="236" y="318" on="1"/>
        <pt x="234" y="318" on="1"/>
        <pt x="213" y="292" on="0"/>
        <pt x="172" y="236" on="0"/>
        <pt x="154" y="212" on="1"/>
        <pt x="-4" y="0" on="1"/>
        <pt x="-36" y="0" on="1"/>
      </contour>
    </TTGlyph>
    <TTGlyph name="Y" xMin="86" yMin="0" xMax="498" yMax="660">
      <contour>
        <pt x="195" y="273" on="1"/>
        <pt x="86" y="660" on="1"/>
        <pt x="116" y="660" on="1"/>
        <pt x="175" y="445" on="1"/>
        <pt x="185" y="409" on="0"/>
        <pt x="203" y="340" on="0"/>
        <pt x="214" y="303" on="1"/>
        <pt x="217" y="303" on="1"/>
        <pt x="242" y="338" on="0"/>
        <pt x="290" y="410" on="0"/>
        <pt x="315" y="445" on="1"/>
        <pt x="466" y="660" on="1"/>
        <pt x="498" y="660" on="1"/>
        <pt x="225" y="273" on="1"/>
        <pt x="170" y="0" on="1"/>
        <pt x="140" y="0" on="1"/>
      </contour>
    </TTGlyph>
    <TTGlyph name="Yacute" xMin="86" yMin="0" xMax="498" yMax="812">
      <component glyphName="Y" x="0" y="0" flags="0x204"/>
      <component glyphName="uni0301.cap" x="164" y="0" flags="0x4"/>
    </TTGlyph>
    <TTGlyph name="Ycircumflex" xMin="86" yMin="0" xMax="498" yMax="812">
      <component glyphName="Y" x="0" y="0" flags="0x204"/>
      <component glyphName="uni0302.cap" x="164" y="0" flags="0x4"/>
    </TTGlyph>
    <TTGlyph name="Ydieresis" xMin="86" yMin="0" xMax="498" yMax="790">
      <component glyphName="Y" x="0" y="0" flags="0x204"/>
      <component glyphName="uni0308.cap" x="164" y="0" flags="0x4"/>
    </TTGlyph>
    <TTGlyph name="Ygrave" xMin="86" yMin="0" xMax="498" yMax="812">
      <component glyphName="Y" x="0" y="0" flags="0x204"/>
      <component glyphName="uni0300.cap" x="164" y="0" flags="0x4"/>
    </TTGlyph>
    <TTGlyph name="Z" xMin="2" yMin="0" xMax="528" yMax="660">
      <contour>
        <pt x="6" y="18" on="1"/>
        <pt x="486" y="634" on="1"/>
        <pt x="152" y="634" on="1"/>
        <pt x="158" y="660" on="1"/>
        <pt x="528" y="660" on="1"/>
        <pt x="524" y="642" on="1"/>
        <pt x="46" y="26" on="1"/>
        <pt x="416" y="26" on="1"/>
        <pt x="410" y="0" on="1"/>
        <pt x="2" y="0" on="1"/>
      </contour>
    </TTGlyph>
    <TTGlyph name="Zacute" xMin="2" yMin="0" xMax="528" yMax="812">
      <component glyphName="Z" x="0" y="0" flags="0x204"/>
      <component glyphName="uni0301.cap" x="216" y="0" flags="0x4"/>
    </TTGlyph>
    <TTGlyph name="Zcaron" xMin="2" yMin="0" xMax="528" yMax="812">
      <component glyphName="Z" x="0" y="0" flags="0x204"/>
      <component glyphName="uni030C.cap" x="216" y="0" flags="0x4"/>
    </TTGlyph>
    <TTGlyph name="Zdotaccent" xMin="2" yMin="0" xMax="528" yMax="794">
      <component glyphName="Z" x="0" y="0" flags="0x204"/>
      <component glyphName="uni0307.cap" x="216" y="0" flags="0x4"/>
    </TTGlyph>
    <TTGlyph name="a" xMin="46" yMin="-12" xMax="478" yMax="490">
      <contour>
        <pt x="46" y="160" on="1"/>
        <pt x="46" y="229" on="0"/>
        <pt x="90" y="349" on="0"/>
        <pt x="163" y="439" on="0"/>
        <pt x="256" y="490" on="0"/>
        <pt x="306" y="490" on="1"/>
        <pt x="350" y="490" on="0"/>
        <pt x="412" y="446" on="0"/>
        <pt x="432" y="410" on="1"/>
        <pt x="436" y="410" on="1"/>
        <pt x="454" y="478" on="1"/>
        <pt x="478" y="478" on="1"/>
        <pt x="382" y="0" on="1"/>
        <pt x="358" y="0" on="1"/>
        <pt x="370" y="78" on="1"/>
        <pt x="366" y="78" on="1"/>
        <pt x="328" y="39" on="0"/>
        <pt x="237" y="-12" on="0"/>
        <pt x="186" y="-12" on="1"/>
        <pt x="123" y="-12" on="0"/>
        <pt x="46" y="75" on="0"/>
      </contour>
      <contour>
        <pt x="188" y="14" on="1"/>
        <pt x="238" y="14" on="0"/>
        <pt x="333" y="71" on="0"/>
        <pt x="378" y="122" on="1"/>
        <pt x="430" y="372" on="1"/>
        <pt x="401" y="422" on="0"/>
        <pt x="340" y="464" on="0"/>
        <pt x="304" y="464" on="1"/>
        <pt x="259" y="464" on="0"/>
        <pt x="176" y="412" on="0"/>
        <pt x="112" y="328" on="0"/>
        <pt x="74" y="221" on="0"/>
        <pt x="74" y="166" on="1"/>
        <pt x="74" y="89" on="0"/>
        <pt x="135" y="14" on="0"/>
      </contour>
    </TTGlyph>
    <TTGlyph name="a.a" xMin="40" yMin="-12" xMax="414" yMax="490">
      <contour>
        <pt x="40" y="102" on="1"/>
        <pt x="40" y="151" on="0"/>
        <pt x="87" y="222" on="0"/>
        <pt x="175" y="268" on="0"/>
        <pt x="300" y="292" on="0"/>
        <pt x="378" y="294" on="1"/>
        <pt x="383" y="314" on="0"/>
        <pt x="386" y="341" on="0"/>
        <pt x="386" y="356" on="1"/>
        <pt x="386" y="416" on="0"/>
        <pt x="336" y="464" on="0"/>
        <pt x="280" y="464" on="1"/>
        <pt x="245" y="464" on="0"/>
        <pt x="171" y="437" on="0"/>
        <pt x="136" y="416" on="1"/>
        <pt x="124" y="440" on="1"/>
        <pt x="157" y="460" on="0"/>
        <pt x="241" y="490" on="0"/>
        <pt x="282" y="490" on="1"/>
        <pt x="313" y="490" on="0"/>
        <pt x="362" y="476" on="0"/>
        <pt x="396" y="445" on="0"/>
        <pt x="414" y="395" on="0"/>
        <pt x="414" y="358" on="1"/>
        <pt x="414" y="344" on="0"/>
        <pt x="409" y="308" on="0"/>
        <pt x="406" y="296" on="1"/>
        <pt x="348" y="0" on="1"/>
        <pt x="324" y="0" on="1"/>
        <pt x="332" y="62" on="1"/>
        <pt x="330" y="62" on="1"/>
        <pt x="294" y="30" on="0"/>
        <pt x="202" y="-12" on="0"/>
        <pt x="158" y="-12" on="1"/>
        <pt x="135" y="-12" on="0"/>
        <pt x="92" y="2" on="0"/>
        <pt x="59" y="31" on="0"/>
        <pt x="40" y="73" on="0"/>
      </contour>
      <contour>
        <pt x="374" y="268" on="1"/>
        <pt x="304" y="266" on="0"/>
        <pt x="191" y="246" on="0"/>
        <pt x="111" y="207" on="0"/>
        <pt x="68" y="148" on="0"/>
        <pt x="68" y="108" on="1"/>
        <pt x="68" y="58" on="0"/>
        <pt x="123" y="14" on="0"/>
        <pt x="164" y="14" on="1"/>
        <pt x="242" y="14" on="0"/>
        <pt x="340" y="100" on="1"/>
      </contour>
    </TTGlyph>
    <TTGlyph name="a.supa" xMin="62" yMin="262" xMax="313" yMax="594">
      <contour>
        <pt x="62" y="338" on="1"/>
        <pt x="62" y="371" on="0"/>
        <pt x="95" y="419" on="0"/>
        <pt x="153" y="450" on="0"/>
        <pt x="234" y="466" on="0"/>
        <pt x="282" y="468" on="1"/>
        <pt x="285" y="479" on="0"/>
        <pt x="287" y="495" on="0"/>
        <pt x="287" y="504" on="1"/>
        <pt x="287" y="536" on="0"/>
        <pt x="258" y="570" on="0"/>
        <pt x="220" y="570" on="1"/>
        <pt x="197" y="570" on="0"/>
        <pt x="148" y="552" on="0"/>
        <pt x="124" y="540" on="1"/>
        <pt x="114" y="562" on="1"/>
        <pt x="138" y="576" on="0"/>
        <pt x="195" y="594" on="0"/>
        <pt x="222" y="594" on="1"/>
        <pt x="266" y="594" on="0"/>
        <pt x="313" y="554" on="0"/>
        <pt x="313" y="506" on="1"/>
        <pt x="313" y="497" on="0"/>
        <pt x="310" y="473" on="0"/>
        <pt x="308" y="464" on="1"/>
        <pt x="270" y="270" on="1"/>
        <pt x="248" y="270" on="1"/>
        <pt x="256" y="312" on="1"/>
        <pt x="252" y="312" on="1"/>
        <pt x="229" y="291" on="0"/>
        <pt x="169" y="262" on="0"/>
        <pt x="142" y="262" on="1"/>
        <pt x="109" y="262" on="0"/>
        <pt x="62" y="300" on="0"/>
      </contour>
      <contour>
        <pt x="278" y="446" on="1"/>
        <pt x="237" y="444" on="0"/>
        <pt x="167" y="431" on="0"/>
        <pt x="116" y="405" on="0"/>
        <pt x="88" y="367" on="0"/>
        <pt x="88" y="342" on="1"/>
        <pt x="88" y="312" on="0"/>
        <pt x="120" y="286" on="0"/>
        <pt x="144" y="286" on="1"/>
        <pt x="171" y="286" on="0"/>
        <pt x="228" y="317" on="0"/>
        <pt x="258" y="344" on="1"/>
      </contour>
    </TTGlyph>
    <TTGlyph name="a.sups" xMin="64" yMin="262" xMax="356" yMax="594">
      <contour>
        <pt x="64" y="378" on="1"/>
        <pt x="64" y="423" on="0"/>
        <pt x="94" y="502" on="0"/>
        <pt x="143" y="560" on="0"/>
        <pt x="206" y="594" on="0"/>
        <pt x="240" y="594" on="1"/>
        <pt x="264" y="594" on="0"/>
        <pt x="306" y="571" on="0"/>
        <pt x="320" y="544" on="1"/>
        <pt x="324" y="544" on="1"/>
        <pt x="336" y="586" on="1"/>
        <pt x="356" y="586" on="1"/>
        <pt x="294" y="270" on="1"/>
        <pt x="272" y="270" on="1"/>
        <pt x="282" y="322" on="1"/>
        <pt x="278" y="322" on="1"/>
        <pt x="252" y="295" on="0"/>
        <pt x="193" y="262" on="0"/>
        <pt x="158" y="262" on="1"/>
        <pt x="116" y="262" on="0"/>
        <pt x="64" y="321" on="0"/>
      </contour>
      <contour>
        <pt x="160" y="286" on="1"/>
        <pt x="190" y="286" on="0"/>
        <pt x="257" y="328" on="0"/>
        <pt x="286" y="360" on="1"/>
        <pt x="316" y="512" on="1"/>
        <pt x="298" y="545" on="0"/>
        <pt x="259" y="570" on="0"/>
        <pt x="238" y="570" on="1"/>
        <pt x="210" y="570" on="0"/>
        <pt x="157" y="538" on="0"/>
        <pt x="115" y="485" on="0"/>
        <pt x="90" y="417" on="0"/>
        <pt x="90" y="382" on="1"/>
        <pt x="90" y="332" on="0"/>
        <pt x="130" y="286" on="0"/>
      </contour>
    </TTGlyph>
    <TTGlyph name="aacute" xMin="46" yMin="-12" xMax="478" yMax="704">
      <component glyphName="a" x="0" y="0" flags="0x204"/>
      <component glyphName="uni0301" x="210" y="0" flags="0x4"/>
    </TTGlyph>
    <TTGlyph name="aacute.a" xMin="40" yMin="-12" xMax="414" yMax="704">
      <component glyphName="a.a" x="0" y="0" flags="0x204"/>
      <component glyphName="uni0301" x="188" y="0" flags="0x4"/>
    </TTGlyph>
    <TTGlyph name="abreve" xMin="46" yMin="-12" xMax="478" yMax="690">
      <component glyphName="a" x="0" y="0" flags="0x204"/>
      <component glyphName="uni0306" x="210" y="0" flags="0x4"/>
    </TTGlyph>
    <TTGlyph name="abreve.a" xMin="40" yMin="-12" xMax="434" yMax="690">
      <component glyphName="a.a" x="0" y="0" flags="0x204"/>
      <component glyphName="uni0306" x="188" y="0" flags="0x4"/>
    </TTGlyph>
    <TTGlyph name="acircumflex" xMin="46" yMin="-12" xMax="478" yMax="704">
      <component glyphName="a" x="0" y="0" flags="0x204"/>
      <component glyphName="uni0302" x="210" y="0" flags="0x4"/>
    </TTGlyph>
    <TTGlyph name="acircumflex.a" xMin="40" yMin="-12" xMax="414" yMax="704">
      <component glyphName="a.a" x="0" y="0" flags="0x204"/>
      <component glyphName="uni0302" x="188" y="0" flags="0x4"/>
    </TTGlyph>
    <TTGlyph name="acute" xMin="274" yMin="570" xMax="428" yMax="704">
      <component glyphName="uni0301" x="214" y="0" flags="0x4"/>
    </TTGlyph>
    <TTGlyph name="adieresis" xMin="46" yMin="-12" xMax="478" yMax="666">
      <component glyphName="a" x="0" y="0" flags="0x204"/>
      <component glyphName="uni0308" x="210" y="0" flags="0x4"/>
    </TTGlyph>
    <TTGlyph name="adieresis.a" xMin="40" yMin="-12" xMax="416" yMax="666">
      <component glyphName="a.a" x="0" y="0" flags="0x204"/>
      <component glyphName="uni0308" x="188" y="0" flags="0x4"/>
    </TTGlyph>
    <TTGlyph name="ae" xMin="40" yMin="-12" xMax="730" yMax="490">
      <contour>
        <pt x="40" y="102" on="1"/>
        <pt x="40" y="151" on="0"/>
        <pt x="87" y="222" on="0"/>
        <pt x="173" y="267" on="0"/>
        <pt x="295" y="291" on="0"/>
        <pt x="370" y="294" on="1"/>
        <pt x="375" y="314" on="0"/>
        <pt x="378" y="341" on="0"/>
        <pt x="378" y="356" on="1"/>
        <pt x="378" y="407" on="0"/>
        <pt x="334" y="464" on="0"/>
        <pt x="280" y="464" on="1"/>
        <pt x="245" y="464" on="0"/>
        <pt x="171" y="437" on="0"/>
        <pt x="136" y="416" on="1"/>
        <pt x="124" y="440" on="1"/>
        <pt x="157" y="460" on="0"/>
        <pt x="241" y="490" on="0"/>
        <pt x="282" y="490" on="1"/>
        <pt x="336" y="490" on="0"/>
        <pt x="403" y="432" on="0"/>
        <pt x="406" y="372" on="1"/>
        <pt x="441" y="426" on="0"/>
        <pt x="537" y="490" on="0"/>
        <pt x="588" y="490" on="1"/>
        <pt x="626" y="490" on="0"/>
        <pt x="680" y="465" on="0"/>
        <pt x="714" y="420" on="0"/>
        <pt x="730" y="359" on="0"/>
        <pt x="730" y="322" on="1"/>
        <pt x="730" y="298" on="0"/>
        <pt x="723" y="257" on="0"/>
        <pt x="718" y="242" on="1"/>
        <pt x="390" y="242" on="1"/>
        <pt x="380" y="192" on="0"/>
        <pt x="391" y="109" on="0"/>
        <pt x="427" y="48" on="0"/>
        <pt x="484" y="14" on="0"/>
        <pt x="522" y="14" on="1"/>
        <pt x="557" y="14" on="0"/>
        <pt x="621" y="42" on="0"/>
        <pt x="648" y="62" on="1"/>
        <pt x="662" y="40" on="1"/>
        <pt x="633" y="19" on="0"/>
        <pt x="561" y="-12" on="0"/>
        <pt x="520" y="-12" on="1"/>
        <pt x="467" y="-12" on="0"/>
        <pt x="385" y="49" on="0"/>
        <pt x="370" y="96" on="1"/>
        <pt x="319" y="45" on="0"/>
        <pt x="212" y="-12" on="0"/>
        <pt x="158" y="-12" on="1"/>
        <pt x="135" y="-12" on="0"/>
        <pt x="92" y="2" on="0"/>
        <pt x="59" y="31" on="0"/>
        <pt x="40" y="73" on="0"/>
      </contour>
      <contour>
        <pt x="696" y="268" on="1"/>
        <pt x="699" y="283" on="0"/>
        <pt x="702" y="311" on="0"/>
        <pt x="702" y="328" on="1"/>
        <pt x="702" y="353" on="0"/>
        <pt x="690" y="402" on="0"/>
        <pt x="663" y="441" on="0"/>
        <pt x="618" y="464" on="0"/>
        <pt x="586" y="464" on="1"/>
        <pt x="557" y="464" on="0"/>
        <pt x="497" y="435" on="0"/>
        <pt x="446" y="383" on="0"/>
        <pt x="406" y="311" on="0"/>
        <pt x="396" y="268" on="1"/>
      </contour>
      <contour>
        <pt x="366" y="268" on="1"/>
        <pt x="299" y="266" on="0"/>
        <pt x="189" y="246" on="0"/>
        <pt x="111" y="207" on="0"/>
        <pt x="68" y="148" on="0"/>
        <pt x="68" y="108" on="1"/>
        <pt x="68" y="61" on="0"/>
        <pt x="123" y="14" on="0"/>
        <pt x="164" y="14" on="1"/>
        <pt x="203" y="14" on="0"/>
        <pt x="308" y="66" on="0"/>
        <pt x="362" y="122" on="1"/>
        <pt x="359" y="143" on="0"/>
        <pt x="357" y="179" on="0"/>
        <pt x="358" y="213" on="0"/>
        <pt x="362" y="248" on="0"/>
      </contour>
    </TTGlyph>
    <TTGlyph name="agrave" xMin="46" yMin="-12" xMax="478" yMax="704">
      <component glyphName="a" x="0" y="0" flags="0x204"/>
      <component glyphName="uni0300" x="210" y="0" flags="0x4"/>
    </TTGlyph>
    <TTGlyph name="agrave.a" xMin="40" yMin="-12" xMax="414" yMax="704">
      <component glyphName="a.a" x="0" y="0" flags="0x204"/>
      <component glyphName="uni0300" x="188" y="0" flags="0x4"/>
    </TTGlyph>
    <TTGlyph name="amacron" xMin="46" yMin="-12" xMax="478" yMax="634">
      <component glyphName="a" x="0" y="0" flags="0x204"/>
      <component glyphName="uni0304" x="210" y="0" flags="0x4"/>
    </TTGlyph>
    <TTGlyph name="amacron.a" xMin="40" yMin="-12" xMax="418" yMax="634">
      <component glyphName="a.a" x="0" y="0" flags="0x204"/>
      <component glyphName="uni0304" x="188" y="0" flags="0x4"/>
    </TTGlyph>
    <TTGlyph name="ampersand" xMin="16" yMin="-12" xMax="534" yMax="672">
      <contour>
        <pt x="46" y="140" on="1"/>
        <pt x="46" y="111" on="0"/>
        <pt x="65" y="65" on="0"/>
        <pt x="98" y="32" on="0"/>
        <pt x="143" y="14" on="0"/>
        <pt x="170" y="14" on="1"/>
        <pt x="214" y="14" on="0"/>
        <pt x="298" y="58" on="0"/>
        <pt x="336" y="92" on="1"/>
        <pt x="294" y="142" on="0"/>
        <pt x="221" y="272" on="0"/>
        <pt x="200" y="341" on="1"/>
        <pt x="170" y="320" on="0"/>
        <pt x="114" y="277" on="0"/>
        <pt x="71" y="229" on="0"/>
        <pt x="46" y="173" on="0"/>
      </contour>
      <contour>
        <pt x="204" y="486" on="1"/>
        <pt x="204" y="436" on="0"/>
        <pt x="218" y="382" on="1"/>
        <pt x="250" y="403" on="0"/>
        <pt x="311" y="445" on="0"/>
        <pt x="358" y="491" on="0"/>
        <pt x="386" y="545" on="0"/>
        <pt x="386" y="577" on="1"/>
        <pt x="386" y="603" on="0"/>
        <pt x="358" y="646" on="0"/>
        <pt x="326" y="646" on="1"/>
        <pt x="299" y="646" on="0"/>
        <pt x="255" y="622" on="0"/>
        <pt x="222" y="579" on="0"/>
        <pt x="204" y="520" on="0"/>
      </contour>
      <contour>
        <pt x="534" y="341" on="1"/>
        <pt x="501" y="271" on="0"/>
        <pt x="422" y="145" on="0"/>
        <pt x="374" y="94" on="1"/>
        <pt x="401" y="65" on="0"/>
        <pt x="452" y="23" on="0"/>
        <pt x="478" y="12" on="1"/>
        <pt x="464" y="-12" on="1"/>
        <pt x="438" y="-1" on="0"/>
        <pt x="382" y="41" on="0"/>
        <pt x="353" y="73" on="1"/>
        <pt x="311" y="34" on="0"/>
        <pt x="216" y="-12" on="0"/>
        <pt x="163" y="-12" on="1"/>
        <pt x="131" y="-12" on="0"/>
        <pt x="78" y="8" on="0"/>
        <pt x="38" y="46" on="0"/>
        <pt x="16" y="100" on="0"/>
        <pt x="16" y="134" on="1"/>
        <pt x="16" y="175" on="0"/>
        <pt x="46" y="241" on="0"/>
        <pt x="95" y="296" on="0"/>
        <pt x="159" y="343" on="0"/>
        <pt x="193" y="365" on="1"/>
        <pt x="176" y="427" on="0"/>
        <pt x="176" y="482" on="1"/>
        <pt x="176" y="525" on="0"/>
        <pt x="202" y="595" on="0"/>
        <pt x="244" y="645" on="0"/>
        <pt x="299" y="672" on="0"/>
        <pt x="328" y="672" on="1"/>
        <pt x="373" y="672" on="0"/>
        <pt x="414" y="619" on="0"/>
        <pt x="414" y="584" on="1"/>
        <pt x="414" y="545" on="0"/>
        <pt x="381" y="482" on="0"/>
        <pt x="327" y="428" on="0"/>
        <pt x="259" y="380" on="0"/>
        <pt x="224" y="357" on="1"/>
        <pt x="244" y="289" on="0"/>
        <pt x="314" y="161" on="0"/>
        <pt x="357" y="112" on="1"/>
        <pt x="404" y="160" on="0"/>
        <pt x="474" y="274" on="0"/>
        <pt x="506" y="341" on="1"/>
      </contour>
    </TTGlyph>
    <TTGlyph name="aogonek" xMin="46" yMin="-202" xMax="478" yMax="490">
      <contour>
        <pt x="46" y="160" on="1"/>
        <pt x="46" y="229" on="0"/>
        <pt x="90" y="349" on="0"/>
        <pt x="163" y="439" on="0"/>
        <pt x="256" y="490" on="0"/>
        <pt x="306" y="490" on="1"/>
        <pt x="350" y="490" on="0"/>
        <pt x="414" y="444" on="0"/>
        <pt x="434" y="408" on="1"/>
        <pt x="436" y="408" on="1"/>
        <pt x="454" y="478" on="1"/>
        <pt x="478" y="478" on="1"/>
        <pt x="382" y="0" on="1"/>
        <pt x="329" y="-30" on="0"/>
        <pt x="268" y="-99" on="0"/>
        <pt x="268" y="-134" on="1"/>
        <pt x="268" y="-154" on="0"/>
        <pt x="289" y="-176" on="0"/>
        <pt x="306" y="-176" on="1"/>
        <pt x="318" y="-176" on="0"/>
        <pt x="337" y="-170" on="0"/>
        <pt x="348" y="-164" on="1"/>
        <pt x="358" y="-186" on="1"/>
        <pt x="329" y="-202" on="0"/>
        <pt x="304" y="-202" on="1"/>
        <pt x="275" y="-202" on="0"/>
        <pt x="238" y="-172" on="0"/>
        <pt x="238" y="-140" on="1"/>
        <pt x="238" y="-119" on="0"/>
        <pt x="258" y="-76" on="0"/>
        <pt x="291" y="-37" on="0"/>
        <pt x="335" y="-3" on="0"/>
        <pt x="360" y="10" on="1"/>
        <pt x="370" y="80" on="1"/>
        <pt x="368" y="80" on="1"/>
        <pt x="330" y="41" on="0"/>
        <pt x="237" y="-12" on="0"/>
        <pt x="186" y="-12" on="1"/>
        <pt x="123" y="-12" on="0"/>
        <pt x="46" y="75" on="0"/>
      </contour>
      <contour>
        <pt x="188" y="14" on="1"/>
        <pt x="230" y="14" on="0"/>
        <pt x="333" y="71" on="0"/>
        <pt x="378" y="122" on="1"/>
        <pt x="430" y="374" on="1"/>
        <pt x="401" y="424" on="0"/>
        <pt x="340" y="464" on="0"/>
        <pt x="304" y="464" on="1"/>
        <pt x="259" y="464" on="0"/>
        <pt x="176" y="412" on="0"/>
        <pt x="112" y="328" on="0"/>
        <pt x="74" y="221" on="0"/>
        <pt x="74" y="166" on="1"/>
        <pt x="74" y="89" on="0"/>
        <pt x="135" y="14" on="0"/>
      </contour>
    </TTGlyph>
    <TTGlyph name="aogonek.a" xMin="40" yMin="-202" xMax="414" yMax="490">
      <contour>
        <pt x="332" y="62" on="1"/>
        <pt x="330" y="62" on="1"/>
        <pt x="294" y="30" on="0"/>
        <pt x="202" y="-12" on="0"/>
        <pt x="158" y="-12" on="1"/>
        <pt x="135" y="-12" on="0"/>
        <pt x="92" y="2" on="0"/>
        <pt x="59" y="31" on="0"/>
        <pt x="40" y="73" on="0"/>
        <pt x="40" y="102" on="1"/>
        <pt x="40" y="151" on="0"/>
        <pt x="87" y="222" on="0"/>
        <pt x="175" y="268" on="0"/>
        <pt x="300" y="292" on="0"/>
        <pt x="378" y="294" on="1"/>
        <pt x="383" y="314" on="0"/>
        <pt x="386" y="341" on="0"/>
        <pt x="386" y="356" on="1"/>
        <pt x="386" y="416" on="0"/>
        <pt x="336" y="464" on="0"/>
        <pt x="280" y="464" on="1"/>
        <pt x="245" y="464" on="0"/>
        <pt x="171" y="437" on="0"/>
        <pt x="136" y="416" on="1"/>
        <pt x="124" y="440" on="1"/>
        <pt x="157" y="460" on="0"/>
        <pt x="241" y="490" on="0"/>
        <pt x="282" y="490" on="1"/>
        <pt x="313" y="490" on="0"/>
        <pt x="362" y="476" on="0"/>
        <pt x="396" y="445" on="0"/>
        <pt x="414" y="395" on="0"/>
        <pt x="414" y="358" on="1"/>
        <pt x="414" y="344" on="0"/>
        <pt x="409" y="308" on="0"/>
        <pt x="406" y="296" on="1"/>
        <pt x="348" y="0" on="1"/>
        <pt x="295" y="-30" on="0"/>
        <pt x="234" y="-99" on="0"/>
        <pt x="234" y="-134" on="1"/>
        <pt x="234" y="-154" on="0"/>
        <pt x="255" y="-176" on="0"/>
        <pt x="272" y="-176" on="1"/>
        <pt x="284" y="-176" on="0"/>
        <pt x="303" y="-170" on="0"/>
        <pt x="314" y="-164" on="1"/>
        <pt x="324" y="-186" on="1"/>
        <pt x="295" y="-202" on="0"/>
        <pt x="270" y="-202" on="1"/>
        <pt x="241" y="-202" on="0"/>
        <pt x="204" y="-172" on="0"/>
        <pt x="204" y="-140" on="1"/>
        <pt x="204" y="-119" on="0"/>
        <pt x="224" y="-76" on="0"/>
        <pt x="257" y="-37" on="0"/>
        <pt x="301" y="-3" on="0"/>
        <pt x="326" y="10" on="1"/>
      </contour>
      <contour>
        <pt x="374" y="268" on="1"/>
        <pt x="304" y="266" on="0"/>
        <pt x="191" y="246" on="0"/>
        <pt x="111" y="207" on="0"/>
        <pt x="68" y="148" on="0"/>
        <pt x="68" y="108" on="1"/>
        <pt x="68" y="58" on="0"/>
        <pt x="123" y="14" on="0"/>
        <pt x="164" y="14" on="1"/>
        <pt x="242" y="14" on="0"/>
        <pt x="340" y="100" on="1"/>
      </contour>
    </TTGlyph>
    <TTGlyph name="approxequal" xMin="50" yMin="173" xMax="424" yMax="488">
      <component glyphName="asciitilde" x="0" y="98" flags="0x204"/>
      <component glyphName="asciitilde" x="0" y="-99" flags="0x4"/>
    </TTGlyph>
    <TTGlyph name="aring" xMin="46" yMin="-12" xMax="478" yMax="704">
      <component glyphName="a" x="0" y="0" flags="0x204"/>
      <component glyphName="uni030A" x="210" y="0" flags="0x4"/>
    </TTGlyph>
    <TTGlyph name="aring.a" xMin="40" yMin="-12" xMax="414" yMax="704">
      <component glyphName="a.a" x="0" y="0" flags="0x204"/>
      <component glyphName="uni030A" x="188" y="0" flags="0x4"/>
    </TTGlyph>
    <TTGlyph name="arrowdown" xMin="32" yMin="-26" xMax="562" yMax="526">
      <contour>
        <pt x="294" y="-26" on="1"/>
        <pt x="32" y="232" on="1"/>
        <pt x="50" y="250" on="1"/>
        <pt x="284" y="18" on="1"/>
        <pt x="284" y="526" on="1"/>
        <pt x="310" y="526" on="1"/>
        <pt x="310" y="18" on="1"/>
        <pt x="544" y="250" on="1"/>
        <pt x="562" y="232" on="1"/>
        <pt x="300" y="-26" on="1"/>
      </contour>
    </TTGlyph>
    <TTGlyph name="arrowup" xMin="32" yMin="-26" xMax="562" yMax="526">
      <contour>
        <pt x="300" y="526" on="1"/>
        <pt x="562" y="268" on="1"/>
        <pt x="544" y="250" on="1"/>
        <pt x="310" y="482" on="1"/>
        <pt x="310" y="-26" on="1"/>
        <pt x="284" y="-26" on="1"/>
        <pt x="284" y="482" on="1"/>
        <pt x="50" y="250" on="1"/>
        <pt x="32" y="268" on="1"/>
        <pt x="294" y="526" on="1"/>
      </contour>
    </TTGlyph>
    <TTGlyph name="asciicircum" xMin="92" yMin="290" xMax="404" yMax="670">
      <contour>
        <pt x="236" y="670" on="1"/>
        <pt x="260" y="670" on="1"/>
        <pt x="404" y="290" on="1"/>
        <pt x="378" y="290" on="1"/>
        <pt x="298" y="502" on="1"/>
        <pt x="250" y="634" on="1"/>
        <pt x="248" y="634" on="1"/>
        <pt x="200" y="502" on="1"/>
        <pt x="120" y="290" on="1"/>
        <pt x="92" y="290" on="1"/>
      </contour>
    </TTGlyph>
    <TTGlyph name="asciitilde" xMin="50" yMin="272" xMax="424" yMax="390">
      <contour>
        <pt x="50" y="312" on="1"/>
        <pt x="70" y="351" on="0"/>
        <pt x="123" y="390" on="0"/>
        <pt x="150" y="390" on="1"/>
        <pt x="177" y="390" on="0"/>
        <pt x="223" y="361" on="0"/>
        <pt x="265" y="327" on="0"/>
        <pt x="304" y="298" on="0"/>
        <pt x="324" y="298" on="1"/>
        <pt x="347" y="298" on="0"/>
        <pt x="384" y="327" on="0"/>
        <pt x="402" y="362" on="1"/>
        <pt x="424" y="350" on="1"/>
        <pt x="404" y="311" on="0"/>
        <pt x="351" y="272" on="0"/>
        <pt x="324" y="272" on="1"/>
        <pt x="297" y="272" on="0"/>
        <pt x="251" y="301" on="0"/>
        <pt x="209" y="335" on="0"/>
        <pt x="170" y="364" on="0"/>
        <pt x="150" y="364" on="1"/>
        <pt x="127" y="364" on="0"/>
        <pt x="90" y="335" on="0"/>
        <pt x="72" y="300" on="1"/>
      </contour>
    </TTGlyph>
    <TTGlyph name="asterisk" xMin="144" yMin="476" xMax="376" yMax="712">
      <contour>
        <pt x="162" y="502" on="1"/>
        <pt x="226" y="582" on="1"/>
        <pt x="144" y="626" on="1"/>
        <pt x="152" y="646" on="1"/>
        <pt x="244" y="614" on="1"/>
        <pt x="264" y="712" on="1"/>
        <pt x="286" y="710" on="1"/>
        <pt x="278" y="612" on="1"/>
        <pt x="372" y="626" on="1"/>
        <pt x="376" y="604" on="1"/>
        <pt x="280" y="578" on="1"/>
        <pt x="318" y="488" on="1"/>
        <pt x="298" y="476" on="1"/>
        <pt x="252" y="560" on="1"/>
        <pt x="178" y="488" on="1"/>
      </contour>
    </TTGlyph>
    <TTGlyph name="at" xMin="46" yMin="-142" xMax="734" yMax="626">
      <contour>
        <pt x="552" y="80" on="1"/>
        <pt x="580" y="80" on="0"/>
        <pt x="635" y="114" on="0"/>
        <pt x="679" y="180" on="0"/>
        <pt x="706" y="274" on="0"/>
        <pt x="706" y="334" on="1"/>
        <pt x="706" y="394" on="0"/>
        <pt x="674" y="492" on="0"/>
        <pt x="612" y="562" on="0"/>
        <pt x="520" y="600" on="0"/>
        <pt x="460" y="600" on="1"/>
        <pt x="387" y="600" on="0"/>
        <pt x="248" y="534" on="0"/>
        <pt x="140" y="419" on="0"/>
        <pt x="74" y="261" on="0"/>
        <pt x="74" y="170" on="1"/>
        <pt x="74" y="103" on="0"/>
        <pt x="112" y="-3" on="0"/>
        <pt x="180" y="-77" on="0"/>
        <pt x="275" y="-116" on="0"/>
        <pt x="332" y="-116" on="1"/>
        <pt x="376" y="-116" on="0"/>
        <pt x="447" y="-98" on="0"/>
        <pt x="480" y="-78" on="1"/>
        <pt x="492" y="-100" on="1"/>
        <pt x="453" y="-123" on="0"/>
        <pt x="371" y="-142" on="0"/>
        <pt x="330" y="-142" on="1"/>
        <pt x="268" y="-142" on="0"/>
        <pt x="163" y="-99" on="0"/>
        <pt x="88" y="-20" on="0"/>
        <pt x="46" y="93" on="0"/>
        <pt x="46" y="164" on="1"/>
        <pt x="46" y="264" on="0"/>
        <pt x="117" y="433" on="0"/>
        <pt x="234" y="556" on="0"/>
        <pt x="383" y="626" on="0"/>
        <pt x="462" y="626" on="1"/>
        <pt x="527" y="626" on="0"/>
        <pt x="629" y="584" on="0"/>
        <pt x="698" y="509" on="0"/>
        <pt x="734" y="404" on="0"/>
        <pt x="734" y="340" on="1"/>
        <pt x="734" y="272" on="0"/>
        <pt x="702" y="165" on="0"/>
        <pt x="649" y="92" on="0"/>
        <pt x="582" y="54" on="0"/>
        <pt x="548" y="54" on="1"/>
        <pt x="512" y="54" on="0"/>
        <pt x="470" y="97" on="0"/>
        <pt x="464" y="130" on="1"/>
        <pt x="462" y="130" on="1"/>
        <pt x="436" y="101" on="0"/>
        <pt x="381" y="62" on="0"/>
        <pt x="346" y="62" on="1"/>
        <pt x="326" y="62" on="0"/>
        <pt x="287" y="78" on="0"/>
        <pt x="257" y="110" on="0"/>
        <pt x="238" y="158" on="0"/>
        <pt x="238" y="190" on="1"/>
        <pt x="238" y="232" on="0"/>
        <pt x="268" y="314" on="0"/>
        <pt x="319" y="380" on="0"/>
        <pt x="388" y="420" on="0"/>
        <pt x="428" y="420" on="1"/>
        <pt x="452" y="420" on="0"/>
        <pt x="490" y="392" on="0"/>
        <pt x="504" y="368" on="1"/>
        <pt x="506" y="368" on="1"/>
        <pt x="518" y="412" on="1"/>
        <pt x="542" y="412" on="1"/>
        <pt x="494" y="200" on="1"/>
        <pt x="482" y="149" on="0"/>
        <pt x="507" y="80" on="0"/>
      </contour>
      <contour>
        <pt x="266" y="196" on="1"/>
        <pt x="266" y="140" on="0"/>
        <pt x="315" y="88" on="0"/>
        <pt x="348" y="88" on="1"/>
        <pt x="404" y="88" on="0"/>
        <pt x="458" y="160" on="1"/>
        <pt x="498" y="338" on="1"/>
        <pt x="480" y="371" on="0"/>
        <pt x="444" y="394" on="0"/>
        <pt x="426" y="394" on="1"/>
        <pt x="391" y="394" on="0"/>
        <pt x="332" y="357" on="0"/>
        <pt x="290" y="299" on="0"/>
        <pt x="266" y="229" on="0"/>
      </contour>
    </TTGlyph>
    <TTGlyph name="at.case" xMin="108" yMin="-12" xMax="747" yMax="676">
      <contour>
        <pt x="590" y="182" on="1"/>
        <pt x="614" y="182" on="0"/>
        <pt x="660" y="213" on="0"/>
        <pt x="697" y="272" on="0"/>
        <pt x="719" y="358" on="0"/>
        <pt x="719" y="414" on="1"/>
        <pt x="719" y="467" on="0"/>
        <pt x="688" y="554" on="0"/>
        <pt x="630" y="616" on="0"/>
        <pt x="545" y="650" on="0"/>
        <pt x="490" y="650" on="1"/>
        <pt x="421" y="650" on="0"/>
        <pt x="293" y="590" on="0"/>
        <pt x="195" y="484" on="0"/>
        <pt x="136" y="339" on="0"/>
        <pt x="136" y="254" on="1"/>
        <pt x="136" y="198" on="0"/>
        <pt x="170" y="110" on="0"/>
        <pt x="231" y="47" on="0"/>
        <pt x="317" y="14" on="0"/>
        <pt x="370" y="14" on="1"/>
        <pt x="414" y="14" on="0"/>
        <pt x="485" y="32" on="0"/>
        <pt x="518" y="52" on="1"/>
        <pt x="530" y="30" on="1"/>
        <pt x="491" y="7" on="0"/>
        <pt x="409" y="-12" on="0"/>
        <pt x="368" y="-12" on="1"/>
        <pt x="310" y="-12" on="0"/>
        <pt x="215" y="25" on="0"/>
        <pt x="146" y="93" on="0"/>
        <pt x="108" y="189" on="0"/>
        <pt x="108" y="248" on="1"/>
        <pt x="108" y="341" on="0"/>
        <pt x="172" y="498" on="0"/>
        <pt x="278" y="612" on="0"/>
        <pt x="417" y="676" on="0"/>
        <pt x="492" y="676" on="1"/>
        <pt x="553" y="676" on="0"/>
        <pt x="648" y="639" on="0"/>
        <pt x="713" y="571" on="0"/>
        <pt x="747" y="477" on="0"/>
        <pt x="747" y="420" on="1"/>
        <pt x="747" y="356" on="0"/>
        <pt x="720" y="258" on="0"/>
        <pt x="675" y="191" on="0"/>
        <pt x="617" y="156" on="0"/>
        <pt x="586" y="156" on="1"/>
        <pt x="550" y="156" on="0"/>
        <pt x="508" y="197" on="0"/>
        <pt x="502" y="230" on="1"/>
        <pt x="500" y="230" on="1"/>
        <pt x="474" y="201" on="0"/>
        <pt x="419" y="164" on="0"/>
        <pt x="384" y="164" on="1"/>
        <pt x="366" y="164" on="0"/>
        <pt x="331" y="179" on="0"/>
        <pt x="303" y="210" on="0"/>
        <pt x="286" y="258" on="0"/>
        <pt x="286" y="290" on="1"/>
        <pt x="286" y="328" on="0"/>
        <pt x="313" y="403" on="0"/>
        <pt x="360" y="462" on="0"/>
        <pt x="424" y="498" on="0"/>
        <pt x="462" y="498" on="1"/>
        <pt x="510" y="498" on="0"/>
        <pt x="538" y="448" on="1"/>
        <pt x="540" y="448" on="1"/>
        <pt x="552" y="492" on="1"/>
        <pt x="576" y="492" on="1"/>
        <pt x="532" y="300" on="1"/>
        <pt x="520" y="249" on="0"/>
        <pt x="545" y="182" on="0"/>
      </contour>
      <contour>
        <pt x="314" y="296" on="1"/>
        <pt x="314" y="240" on="0"/>
        <pt x="357" y="190" on="0"/>
        <pt x="386" y="190" on="1"/>
        <pt x="413" y="190" on="0"/>
        <pt x="469" y="224" on="0"/>
        <pt x="496" y="260" on="1"/>
        <pt x="532" y="418" on="1"/>
        <pt x="514" y="451" on="0"/>
        <pt x="478" y="472" on="0"/>
        <pt x="460" y="472" on="1"/>
        <pt x="427" y="472" on="0"/>
        <pt x="373" y="439" on="0"/>
        <pt x="335" y="388" on="0"/>
        <pt x="314" y="326" on="0"/>
      </contour>
    </TTGlyph>
    <TTGlyph name="atilde" xMin="46" yMin="-12" xMax="478" yMax="664">
      <component glyphName="a" x="0" y="0" flags="0x204"/>
      <component glyphName="uni0303" x="210" y="0" flags="0x4"/>
    </TTGlyph>
    <TTGlyph name="atilde.a" xMin="40" yMin="-12" xMax="434" yMax="664">
      <component glyphName="a.a" x="0" y="0" flags="0x204"/>
      <component glyphName="uni0303" x="188" y="0" flags="0x4"/>
    </TTGlyph>
    <TTGlyph name="b" xMin="44" yMin="-12" xMax="476" yMax="722">
      <contour>
        <pt x="44" y="0" on="1"/>
        <pt x="188" y="722" on="1"/>
        <pt x="216" y="722" on="1"/>
        <pt x="172" y="506" on="1"/>
        <pt x="152" y="408" on="1"/>
        <pt x="154" y="408" on="1"/>
        <pt x="193" y="440" on="0"/>
        <pt x="285" y="490" on="0"/>
        <pt x="336" y="490" on="1"/>
        <pt x="399" y="490" on="0"/>
        <pt x="476" y="403" on="0"/>
        <pt x="476" y="318" on="1"/>
        <pt x="476" y="249" on="0"/>
        <pt x="432" y="129" on="0"/>
        <pt x="359" y="39" on="0"/>
        <pt x="265" y="-12" on="0"/>
        <pt x="216" y="-12" on="1"/>
        <pt x="172" y="-12" on="0"/>
        <pt x="110" y="32" on="0"/>
        <pt x="90" y="68" on="1"/>
        <pt x="86" y="68" on="1"/>
        <pt x="68" y="0" on="1"/>
      </contour>
      <contour>
        <pt x="334" y="464" on="1"/>
        <pt x="313" y="464" on="0"/>
        <pt x="265" y="450" on="0"/>
        <pt x="216" y="425" on="0"/>
        <pt x="168" y="391" on="0"/>
        <pt x="146" y="372" on="1"/>
        <pt x="92" y="106" on="1"/>
        <pt x="121" y="56" on="0"/>
        <pt x="182" y="14" on="0"/>
        <pt x="218" y="14" on="1"/>
        <pt x="263" y="14" on="0"/>
        <pt x="346" y="65" on="0"/>
        <pt x="410" y="149" on="0"/>
        <pt x="448" y="256" on="0"/>
        <pt x="448" y="312" on="1"/>
        <pt x="448" y="388" on="0"/>
        <pt x="387" y="464" on="0"/>
      </contour>
    </TTGlyph>
    <TTGlyph name="b.sups" xMin="66" yMin="262" xMax="358" yMax="744">
      <contour>
        <pt x="66" y="270" on="1"/>
        <pt x="160" y="744" on="1"/>
        <pt x="186" y="744" on="1"/>
        <pt x="160" y="612" on="1"/>
        <pt x="146" y="546" on="1"/>
        <pt x="148" y="546" on="1"/>
        <pt x="174" y="567" on="0"/>
        <pt x="229" y="594" on="0"/>
        <pt x="264" y="594" on="1"/>
        <pt x="306" y="594" on="0"/>
        <pt x="358" y="535" on="0"/>
        <pt x="358" y="478" on="1"/>
        <pt x="358" y="433" on="0"/>
        <pt x="328" y="354" on="0"/>
        <pt x="279" y="296" on="0"/>
        <pt x="216" y="262" on="0"/>
        <pt x="182" y="262" on="1"/>
        <pt x="158" y="262" on="0"/>
        <pt x="116" y="285" on="0"/>
        <pt x="102" y="312" on="1"/>
        <pt x="98" y="312" on="1"/>
        <pt x="86" y="270" on="1"/>
      </contour>
      <contour>
        <pt x="262" y="570" on="1"/>
        <pt x="232" y="570" on="0"/>
        <pt x="169" y="538" on="0"/>
        <pt x="140" y="512" on="1"/>
        <pt x="106" y="344" on="1"/>
        <pt x="124" y="311" on="0"/>
        <pt x="163" y="286" on="0"/>
        <pt x="184" y="286" on="1"/>
        <pt x="212" y="286" on="0"/>
        <pt x="265" y="318" on="0"/>
        <pt x="307" y="371" on="0"/>
        <pt x="332" y="439" on="0"/>
        <pt x="332" y="474" on="1"/>
        <pt x="332" y="524" on="0"/>
        <pt x="292" y="570" on="0"/>
      </contour>
    </TTGlyph>
    <TTGlyph name="backslash" xMin="90" yMin="-160" xMax="262" yMax="710">
      <contour>
        <pt x="90" y="710" on="1"/>
        <pt x="114" y="710" on="1"/>
        <pt x="262" y="-160" on="1"/>
        <pt x="238" y="-160" on="1"/>
      </contour>
    </TTGlyph>
    <TTGlyph name="bar" xMin="100" yMin="-250" xMax="126" yMax="750">
      <contour>
        <pt x="100" y="750" on="1"/>
        <pt x="126" y="750" on="1"/>
        <pt x="126" y="-250" on="1"/>
        <pt x="100" y="-250" on="1"/>
      </contour>
    </TTGlyph>
    <TTGlyph name="braceleft" xMin="36" yMin="-152" xMax="332" yMax="708">
      <contour>
        <pt x="48" y="-78" on="1"/>
        <pt x="48" y="-52" on="0"/>
        <pt x="66" y="27" on="0"/>
        <pt x="88" y="110" on="0"/>
        <pt x="106" y="187" on="0"/>
        <pt x="106" y="212" on="1"/>
        <pt x="106" y="222" on="0"/>
        <pt x="101" y="241" on="0"/>
        <pt x="86" y="256" on="0"/>
        <pt x="58" y="266" on="0"/>
        <pt x="36" y="266" on="1"/>
        <pt x="42" y="290" on="1"/>
        <pt x="68" y="290" on="0"/>
        <pt x="103" y="304" on="0"/>
        <pt x="125" y="328" on="0"/>
        <pt x="137" y="357" on="0"/>
        <pt x="140" y="372" on="1"/>
        <pt x="149" y="420" on="0"/>
        <pt x="165" y="529" on="0"/>
        <pt x="176" y="580" on="1"/>
        <pt x="183" y="617" on="0"/>
        <pt x="204" y="667" on="0"/>
        <pt x="233" y="696" on="0"/>
        <pt x="273" y="708" on="0"/>
        <pt x="300" y="708" on="1"/>
        <pt x="332" y="708" on="1"/>
        <pt x="328" y="686" on="1"/>
        <pt x="296" y="686" on="1"/>
        <pt x="249" y="686" on="0"/>
        <pt x="209" y="630" on="0"/>
        <pt x="198" y="576" on="1"/>
        <pt x="189" y="531" on="0"/>
        <pt x="175" y="430" on="0"/>
        <pt x="166" y="382" on="1"/>
        <pt x="157" y="340" on="0"/>
        <pt x="126" y="287" on="0"/>
        <pt x="94" y="278" on="1"/>
        <pt x="94" y="274" on="1"/>
        <pt x="115" y="265" on="0"/>
        <pt x="128" y="235" on="0"/>
        <pt x="128" y="220" on="1"/>
        <pt x="128" y="193" on="0"/>
        <pt x="110" y="114" on="0"/>
        <pt x="89" y="31" on="0"/>
        <pt x="72" y="-47" on="0"/>
        <pt x="72" y="-72" on="1"/>
        <pt x="72" y="-101" on="0"/>
        <pt x="98" y="-130" on="0"/>
        <pt x="136" y="-130" on="1"/>
        <pt x="166" y="-130" on="1"/>
        <pt x="160" y="-152" on="1"/>
        <pt x="130" y="-152" on="1"/>
        <pt x="88" y="-152" on="0"/>
        <pt x="48" y="-119" on="0"/>
      </contour>
    </TTGlyph>
    <TTGlyph name="braceright" xMin="-64" yMin="-152" xMax="232" yMax="708">
      <contour>
        <pt x="220" y="634" on="1"/>
        <pt x="220" y="608" on="0"/>
        <pt x="202" y="528" on="0"/>
        <pt x="180" y="444" on="0"/>
        <pt x="162" y="367" on="0"/>
        <pt x="162" y="342" on="1"/>
        <pt x="162" y="333" on="0"/>
        <pt x="167" y="314" on="0"/>
        <pt x="182" y="299" on="0"/>
        <pt x="209" y="290" on="0"/>
        <pt x="232" y="290" on="1"/>
        <pt x="226" y="266" on="1"/>
        <pt x="200" y="266" on="0"/>
        <pt x="165" y="252" on="0"/>
        <pt x="143" y="228" on="0"/>
        <pt x="131" y="199" on="0"/>
        <pt x="128" y="184" on="1"/>
        <pt x="119" y="136" on="0"/>
        <pt x="103" y="25" on="0"/>
        <pt x="92" y="-26" on="1"/>
        <pt x="84" y="-64" on="0"/>
        <pt x="64" y="-112" on="0"/>
        <pt x="34" y="-141" on="0"/>
        <pt x="-6" y="-152" on="0"/>
        <pt x="-32" y="-152" on="1"/>
        <pt x="-64" y="-152" on="1"/>
        <pt x="-60" y="-130" on="1"/>
        <pt x="-28" y="-130" on="1"/>
        <pt x="19" y="-130" on="0"/>
        <pt x="59" y="-76" on="0"/>
        <pt x="70" y="-22" on="1"/>
        <pt x="79" y="23" on="0"/>
        <pt x="93" y="124" on="0"/>
        <pt x="102" y="172" on="1"/>
        <pt x="111" y="216" on="0"/>
        <pt x="142" y="269" on="0"/>
        <pt x="174" y="278" on="1"/>
        <pt x="174" y="282" on="1"/>
        <pt x="151" y="291" on="0"/>
        <pt x="140" y="321" on="0"/>
        <pt x="140" y="336" on="1"/>
        <pt x="140" y="362" on="0"/>
        <pt x="157" y="440" on="0"/>
        <pt x="178" y="523" on="0"/>
        <pt x="196" y="600" on="0"/>
        <pt x="196" y="626" on="1"/>
        <pt x="196" y="656" on="0"/>
        <pt x="170" y="686" on="0"/>
        <pt x="132" y="686" on="1"/>
        <pt x="102" y="686" on="1"/>
        <pt x="108" y="708" on="1"/>
        <pt x="138" y="708" on="1"/>
        <pt x="180" y="708" on="0"/>
        <pt x="220" y="673" on="0"/>
      </contour>
    </TTGlyph>
    <TTGlyph name="bracketleft" xMin="18" yMin="-152" xMax="334" yMax="708">
      <contour>
        <pt x="168" y="-130" on="1"/>
        <pt x="162" y="-152" on="1"/>
        <pt x="18" y="-152" on="1"/>
        <pt x="190" y="708" on="1"/>
        <pt x="334" y="708" on="1"/>
        <pt x="332" y="686" on="1"/>
        <pt x="208" y="686" on="1"/>
        <pt x="46" y="-130" on="1"/>
      </contour>
    </TTGlyph>
    <TTGlyph name="bracketright" xMin="-64" yMin="-152" xMax="254" yMax="708">
      <contour>
        <pt x="62" y="-130" on="1"/>
        <pt x="228" y="686" on="1"/>
        <pt x="104" y="686" on="1"/>
        <pt x="108" y="708" on="1"/>
        <pt x="254" y="708" on="1"/>
        <pt x="82" y="-152" on="1"/>
        <pt x="-64" y="-152" on="1"/>
        <pt x="-60" y="-130" on="1"/>
      </contour>
    </TTGlyph>
    <TTGlyph name="breve" xMin="240" yMin="576" xMax="460" yMax="690">
      <component glyphName="uni0306" x="214" y="0" flags="0x4"/>
    </TTGlyph>
    <TTGlyph name="brokenbar" xMin="100" yMin="-250" xMax="126" yMax="750">
      <contour>
        <pt x="100" y="750" on="1"/>
        <pt x="126" y="750" on="1"/>
        <pt x="126" y="274" on="1"/>
        <pt x="100" y="274" on="1"/>
      </contour>
      <contour>
        <pt x="126" y="220" on="1"/>
        <pt x="126" y="-250" on="1"/>
        <pt x="100" y="-250" on="1"/>
        <pt x="100" y="220" on="1"/>
      </contour>
    </TTGlyph>
    <TTGlyph name="bullet" xMin="42" yMin="160" xMax="230" yMax="370">
      <contour>
        <pt x="126" y="160" on="1"/>
        <pt x="90" y="160" on="0"/>
        <pt x="42" y="211" on="0"/>
        <pt x="42" y="252" on="1"/>
        <pt x="42" y="274" on="0"/>
        <pt x="57" y="316" on="0"/>
        <pt x="84" y="349" on="0"/>
        <pt x="123" y="370" on="0"/>
        <pt x="148" y="370" on="1"/>
        <pt x="183" y="370" on="0"/>
        <pt x="230" y="319" on="0"/>
        <pt x="230" y="278" on="1"/>
        <pt x="230" y="255" on="0"/>
        <pt x="215" y="213" on="0"/>
        <pt x="188" y="180" on="0"/>
        <pt x="150" y="160" on="0"/>
      </contour>
    </TTGlyph>
    <TTGlyph name="c" xMin="44" yMin="-12" xMax="418" yMax="490">
      <contour>
        <pt x="44" y="176" on="1"/>
        <pt x="44" y="246" on="0"/>
        <pt x="88" y="362" on="0"/>
        <pt x="160" y="445" on="0"/>
        <pt x="251" y="490" on="0"/>
        <pt x="298" y="490" on="1"/>
        <pt x="339" y="490" on="0"/>
        <pt x="394" y="459" on="0"/>
        <pt x="418" y="432" on="1"/>
        <pt x="398" y="412" on="1"/>
        <pt x="375" y="439" on="0"/>
        <pt x="331" y="464" on="0"/>
        <pt x="296" y="464" on="1"/>
        <pt x="254" y="464" on="0"/>
        <pt x="173" y="419" on="0"/>
        <pt x="110" y="341" on="0"/>
        <pt x="72" y="239" on="0"/>
        <pt x="72" y="182" on="1"/>
        <pt x="72" y="99" on="0"/>
        <pt x="141" y="14" on="0"/>
        <pt x="212" y="14" on="1"/>
        <pt x="250" y="14" on="0"/>
        <pt x="315" y="45" on="0"/>
        <pt x="342" y="66" on="1"/>
        <pt x="358" y="44" on="1"/>
        <pt x="332" y="24" on="0"/>
        <pt x="260" y="-12" on="0"/>
        <pt x="210" y="-12" on="1"/>
        <pt x="133" y="-12" on="0"/>
        <pt x="44" y="85" on="0"/>
      </contour>
    </TTGlyph>
    <TTGlyph name="c.sups" xMin="64" yMin="262" xMax="320" yMax="594">
      <contour>
        <pt x="64" y="388" on="1"/>
        <pt x="64" y="424" on="0"/>
        <pt x="89" y="497" on="0"/>
        <pt x="134" y="557" on="0"/>
        <pt x="198" y="594" on="0"/>
        <pt x="236" y="594" on="1"/>
        <pt x="263" y="594" on="0"/>
        <pt x="303" y="574" on="0"/>
        <pt x="320" y="556" on="1"/>
        <pt x="302" y="538" on="1"/>
        <pt x="287" y="555" on="0"/>
        <pt x="255" y="570" on="0"/>
        <pt x="232" y="570" on="1"/>
        <pt x="201" y="570" on="0"/>
        <pt x="149" y="536" on="0"/>
        <pt x="111" y="483" on="0"/>
        <pt x="90" y="420" on="0"/>
        <pt x="90" y="392" on="1"/>
        <pt x="90" y="339" on="0"/>
        <pt x="145" y="286" on="0"/>
        <pt x="184" y="286" on="1"/>
        <pt x="207" y="286" on="0"/>
        <pt x="247" y="303" on="0"/>
        <pt x="264" y="314" on="1"/>
        <pt x="276" y="294" on="1"/>
        <pt x="259" y="282" on="0"/>
        <pt x="212" y="262" on="0"/>
        <pt x="182" y="262" on="1"/>
        <pt x="129" y="262" on="0"/>
        <pt x="64" y="329" on="0"/>
      </contour>
    </TTGlyph>
    <TTGlyph name="cacute" xMin="44" yMin="-12" xMax="418" yMax="704">
      <component glyphName="c" x="0" y="0" flags="0x204"/>
      <component glyphName="uni0301" x="198" y="0" flags="0x4"/>
    </TTGlyph>
    <TTGlyph name="caron" xMin="250" yMin="570" xMax="458" yMax="704">
      <component glyphName="uni030C" x="214" y="0" flags="0x4"/>
    </TTGlyph>
    <TTGlyph name="ccaron" xMin="44" yMin="-12" xMax="442" yMax="704">
      <component glyphName="c" x="0" y="0" flags="0x204"/>
      <component glyphName="uni030C" x="198" y="0" flags="0x4"/>
    </TTGlyph>
    <TTGlyph name="ccedilla" xMin="44" yMin="-208" xMax="418" yMax="490">
      <component glyphName="c" x="0" y="0" flags="0x204"/>
      <component glyphName="uni0327" x="204" y="0" flags="0x4"/>
    </TTGlyph>
    <TTGlyph name="ccircumflex" xMin="44" yMin="-12" xMax="418" yMax="704">
      <component glyphName="c" x="0" y="0" flags="0x204"/>
      <component glyphName="uni0302" x="198" y="0" flags="0x4"/>
    </TTGlyph>
    <TTGlyph name="cdotaccent" xMin="44" yMin="-12" xMax="418" yMax="668">
      <component glyphName="c" x="0" y="0" flags="0x204"/>
      <component glyphName="uni0307" x="198" y="0" flags="0x4"/>
    </TTGlyph>
    <TTGlyph name="cedilla" xMin="108" yMin="-208" xMax="232" yMax="2">
      <component glyphName="uni0327" x="214" y="0" flags="0x4"/>
    </TTGlyph>
    <TTGlyph name="cent" xMin="82" yMin="-10" xMax="446" yMax="666">
      <contour>
        <pt x="303" y="532" on="1"/>
        <pt x="270" y="529" on="0"/>
        <pt x="202" y="493" on="0"/>
        <pt x="147" y="431" on="0"/>
        <pt x="112" y="346" on="0"/>
        <pt x="112" y="294" on="1"/>
        <pt x="112" y="224" on="0"/>
        <pt x="167" y="137" on="0"/>
        <pt x="224" y="129" on="1"/>
      </contour>
      <contour>
        <pt x="336" y="557" on="1"/>
        <pt x="374" y="552" on="0"/>
        <pt x="427" y="517" on="0"/>
        <pt x="446" y="494" on="1"/>
        <pt x="426" y="474" on="1"/>
        <pt x="405" y="500" on="0"/>
        <pt x="363" y="528" on="0"/>
        <pt x="331" y="531" on="1"/>
        <pt x="251" y="128" on="1"/>
        <pt x="292" y="130" on="0"/>
        <pt x="358" y="161" on="0"/>
        <pt x="384" y="180" on="1"/>
        <pt x="398" y="156" on="1"/>
        <pt x="384" y="147" on="0"/>
        <pt x="353" y="128" on="0"/>
        <pt x="316" y="113" on="0"/>
        <pt x="273" y="102" on="0"/>
        <pt x="246" y="102" on="1"/>
        <pt x="224" y="-10" on="1"/>
        <pt x="196" y="-10" on="1"/>
        <pt x="219" y="104" on="1"/>
        <pt x="155" y="112" on="0"/>
        <pt x="82" y="206" on="0"/>
        <pt x="82" y="288" on="1"/>
        <pt x="82" y="349" on="0"/>
        <pt x="123" y="448" on="0"/>
        <pt x="188" y="517" on="0"/>
        <pt x="269" y="556" on="0"/>
        <pt x="309" y="558" on="1"/>
        <pt x="330" y="666" on="1"/>
        <pt x="358" y="666" on="1"/>
      </contour>
    </TTGlyph>
    <TTGlyph name="circumflex" xMin="222" yMin="570" xMax="430" yMax="704">
      <component glyphName="uni0302" x="214" y="0" flags="0x4"/>
    </TTGlyph>
    <TTGlyph name="colon" xMin="22" yMin="-12" xMax="160" yMax="462">
      <component glyphName="period" x="70" y="398" flags="0x204"/>
      <component glyphName="period" x="0" y="0" flags="0x4"/>
    </TTGlyph>
    <TTGlyph name="colonmonetary" xMin="66" yMin="-110" xMax="480" yMax="750">
      <contour>
        <pt x="397" y="613" on="1"/>
        <pt x="373" y="626" on="0"/>
        <pt x="342" y="626" on="1"/>
        <pt x="331" y="626" on="1"/>
        <pt x="152" y="49" on="1"/>
        <pt x="177" y="24" on="0"/>
        <pt x="212" y="17" on="1"/>
      </contour>
      <contour>
        <pt x="304" y="621" on="1"/>
        <pt x="262" y="610" on="0"/>
        <pt x="186" y="544" on="0"/>
        <pt x="128" y="441" on="0"/>
        <pt x="94" y="307" on="0"/>
        <pt x="94" y="228" on="1"/>
        <pt x="94" y="179" on="0"/>
        <pt x="114" y="100" on="0"/>
        <pt x="133" y="72" on="1"/>
      </contour>
      <contour>
        <pt x="427" y="625" on="1"/>
        <pt x="445" y="611" on="0"/>
        <pt x="470" y="576" on="0"/>
        <pt x="480" y="556" on="1"/>
        <pt x="456" y="542" on="1"/>
        <pt x="448" y="558" on="0"/>
        <pt x="429" y="586" on="0"/>
        <pt x="418" y="597" on="1"/>
        <pt x="237" y="14" on="1"/>
        <pt x="240" y="14" on="1"/>
        <pt x="284" y="14" on="0"/>
        <pt x="352" y="53" on="0"/>
        <pt x="380" y="80" on="1"/>
        <pt x="398" y="60" on="1"/>
        <pt x="369" y="31" on="0"/>
        <pt x="293" y="-12" on="0"/>
        <pt x="238" y="-12" on="1"/>
        <pt x="229" y="-12" on="1"/>
        <pt x="198" y="-110" on="1"/>
        <pt x="172" y="-110" on="1"/>
        <pt x="204" y="-9" on="1"/>
        <pt x="170" y="-2" on="0"/>
        <pt x="142" y="20" on="1"/>
        <pt x="102" y="-110" on="1"/>
        <pt x="76" y="-110" on="1"/>
        <pt x="122" y="39" on="1"/>
        <pt x="95" y="70" on="0"/>
        <pt x="66" y="163" on="0"/>
        <pt x="66" y="222" on="1"/>
        <pt x="66" y="310" on="0"/>
        <pt x="106" y="459" on="0"/>
        <pt x="174" y="571" on="0"/>
        <pt x="263" y="640" on="0"/>
        <pt x="313" y="649" on="1"/>
        <pt x="344" y="750" on="1"/>
        <pt x="370" y="750" on="1"/>
        <pt x="339" y="652" on="1"/>
        <pt x="344" y="652" on="1"/>
        <pt x="362" y="652" on="0"/>
        <pt x="392" y="645" on="0"/>
        <pt x="405" y="639" on="1"/>
        <pt x="440" y="750" on="1"/>
        <pt x="466" y="750" on="1"/>
      </contour>
    </TTGlyph>
    <TTGlyph name="comma" xMin="-34" yMin="-146" xMax="98" yMax="64">
      <contour>
        <pt x="-34" y="-122" on="1"/>
        <pt x="4" y="-104" on="0"/>
        <pt x="57" y="-45" on="0"/>
        <pt x="62" y="-8" on="1"/>
        <pt x="56" y="-8" on="1"/>
        <pt x="42" y="-8" on="0"/>
        <pt x="26" y="8" on="0"/>
        <pt x="26" y="22" on="1"/>
        <pt x="26" y="37" on="0"/>
        <pt x="48" y="64" on="0"/>
        <pt x="66" y="64" on="1"/>
        <pt x="82" y="64" on="0"/>
        <pt x="98" y="40" on="0"/>
        <pt x="98" y="22" on="1"/>
        <pt x="98" y="-6" on="0"/>
        <pt x="79" y="-57" on="0"/>
        <pt x="46" y="-101" on="0"/>
        <pt x="0" y="-136" on="0"/>
        <pt x="-26" y="-146" on="1"/>
      </contour>
    </TTGlyph>
    <TTGlyph name="comma.dnom" xMin="-34" yMin="-104" xMax="64" yMax="60">
      <contour>
        <pt x="-34" y="-82" on="1"/>
        <pt x="-9" y="-68" on="0"/>
        <pt x="27" y="-30" on="0"/>
        <pt x="32" y="-2" on="1"/>
        <pt x="26" y="-2" on="1"/>
        <pt x="15" y="-2" on="0"/>
        <pt x="0" y="11" on="0"/>
        <pt x="0" y="25" on="1"/>
        <pt x="0" y="43" on="0"/>
        <pt x="20" y="60" on="0"/>
        <pt x="34" y="60" on="1"/>
        <pt x="48" y="60" on="0"/>
        <pt x="64" y="38" on="0"/>
        <pt x="64" y="18" on="1"/>
        <pt x="64" y="-23" on="0"/>
        <pt x="14" y="-84" on="0"/>
        <pt x="-24" y="-104" on="1"/>
      </contour>
    </TTGlyph>
    <TTGlyph name="comma.numr" xMin="16" yMin="166" xMax="114" yMax="330">
      <component glyphName="comma.dnom" x="50" y="270" flags="0x204"/>
    </TTGlyph>
    <TTGlyph name="comma.subs" xMin="-63" yMin="-273" xMax="35" yMax="-109">
      <component glyphName="comma.dnom" x="-29" y="-169" flags="0x204"/>
    </TTGlyph>
    <TTGlyph name="comma.sups" xMin="56" yMin="336" xMax="154" yMax="500">
      <component glyphName="comma.dnom" x="90" y="440" flags="0x204"/>
    </TTGlyph>
    <TTGlyph name="copyright" xMin="40" yMin="-12" xMax="652" yMax="652">
      <contour>
        <pt x="184" y="272" on="1"/>
        <pt x="184" y="327" on="0"/>
        <pt x="221" y="416" on="0"/>
        <pt x="278" y="477" on="0"/>
        <pt x="348" y="510" on="0"/>
        <pt x="382" y="510" on="1"/>
        <pt x="418" y="510" on="0"/>
        <pt x="459" y="483" on="0"/>
        <pt x="476" y="460" on="1"/>
        <pt x="456" y="442" on="1"/>
        <pt x="441" y="462" on="0"/>
        <pt x="407" y="484" on="0"/>
        <pt x="380" y="484" on="1"/>
        <pt x="351" y="484" on="0"/>
        <pt x="292" y="453" on="0"/>
        <pt x="243" y="399" on="0"/>
        <pt x="212" y="323" on="0"/>
        <pt x="212" y="278" on="1"/>
        <pt x="212" y="213" on="0"/>
        <pt x="273" y="150" on="0"/>
        <pt x="324" y="150" on="1"/>
        <pt x="359" y="150" on="0"/>
        <pt x="415" y="180" on="0"/>
        <pt x="442" y="198" on="1"/>
        <pt x="456" y="176" on="1"/>
        <pt x="426" y="155" on="0"/>
        <pt x="366" y="124" on="0"/>
        <pt x="322" y="124" on="1"/>
        <pt x="262" y="124" on="0"/>
        <pt x="184" y="197" on="0"/>
      </contour>
      <contour>
        <pt x="298" y="-12" on="1"/>
        <pt x="240" y="-12" on="0"/>
        <pt x="145" y="28" on="0"/>
        <pt x="77" y="101" on="0"/>
        <pt x="40" y="202" on="0"/>
        <pt x="40" y="264" on="1"/>
        <pt x="40" y="334" on="0"/>
        <pt x="90" y="472" on="0"/>
        <pt x="182" y="583" on="0"/>
        <pt x="313" y="652" on="0"/>
        <pt x="394" y="652" on="1"/>
        <pt x="452" y="652" on="0"/>
        <pt x="547" y="612" on="0"/>
        <pt x="615" y="539" on="0"/>
        <pt x="652" y="437" on="0"/>
        <pt x="652" y="376" on="1"/>
        <pt x="652" y="306" on="0"/>
        <pt x="602" y="168" on="0"/>
        <pt x="510" y="57" on="0"/>
        <pt x="379" y="-12" on="0"/>
      </contour>
      <contour>
        <pt x="392" y="628" on="1"/>
        <pt x="318" y="628" on="0"/>
        <pt x="197" y="562" on="0"/>
        <pt x="112" y="458" on="0"/>
        <pt x="66" y="330" on="0"/>
        <pt x="66" y="268" on="1"/>
        <pt x="66" y="209" on="0"/>
        <pt x="99" y="115" on="0"/>
        <pt x="160" y="48" on="0"/>
        <pt x="247" y="12" on="0"/>
        <pt x="300" y="12" on="1"/>
        <pt x="374" y="12" on="0"/>
        <pt x="495" y="78" on="0"/>
        <pt x="580" y="182" on="0"/>
        <pt x="626" y="310" on="0"/>
        <pt x="626" y="372" on="1"/>
        <pt x="626" y="430" on="0"/>
        <pt x="593" y="525" on="0"/>
        <pt x="532" y="592" on="0"/>
        <pt x="445" y="628" on="0"/>
      </contour>
    </TTGlyph>
    <TTGlyph name="currency" xMin="14" yMin="128" xMax="466" yMax="536">
      <contour>
        <pt x="330" y="199" on="1"/>
        <pt x="304" y="174" on="0"/>
        <pt x="239" y="146" on="0"/>
        <pt x="204" y="146" on="1"/>
        <pt x="136" y="146" on="0"/>
        <pt x="102" y="195" on="1"/>
        <pt x="30" y="132" on="1"/>
        <pt x="14" y="152" on="1"/>
        <pt x="89" y="218" on="1"/>
        <pt x="83" y="234" on="0"/>
        <pt x="76" y="271" on="0"/>
        <pt x="76" y="294" on="1"/>
        <pt x="76" y="340" on="0"/>
        <pt x="109" y="422" on="0"/>
        <pt x="138" y="453" on="1"/>
        <pt x="90" y="518" on="1"/>
        <pt x="110" y="534" on="1"/>
        <pt x="157" y="471" on="1"/>
        <pt x="183" y="493" on="0"/>
        <pt x="243" y="518" on="0"/>
        <pt x="276" y="518" on="1"/>
        <pt x="340" y="518" on="0"/>
        <pt x="376" y="471" on="1"/>
        <pt x="450" y="536" on="1"/>
        <pt x="466" y="516" on="1"/>
        <pt x="389" y="448" on="1"/>
        <pt x="404" y="416" on="0"/>
        <pt x="404" y="370" on="1"/>
        <pt x="404" y="326" on="0"/>
        <pt x="374" y="248" on="0"/>
        <pt x="348" y="218" on="1"/>
        <pt x="404" y="144" on="1"/>
        <pt x="384" y="128" on="1"/>
      </contour>
      <contour>
        <pt x="274" y="492" on="1"/>
        <pt x="243" y="492" on="0"/>
        <pt x="182" y="462" on="0"/>
        <pt x="134" y="411" on="0"/>
        <pt x="104" y="340" on="0"/>
        <pt x="104" y="300" on="1"/>
        <pt x="104" y="237" on="0"/>
        <pt x="156" y="172" on="0"/>
        <pt x="206" y="172" on="1"/>
        <pt x="237" y="172" on="0"/>
        <pt x="298" y="202" on="0"/>
        <pt x="346" y="253" on="0"/>
        <pt x="376" y="323" on="0"/>
        <pt x="376" y="364" on="1"/>
        <pt x="376" y="427" on="0"/>
        <pt x="324" y="492" on="0"/>
      </contour>
    </TTGlyph>
    <TTGlyph name="d" xMin="46" yMin="-12" xMax="528" yMax="722">
      <contour>
        <pt x="456" y="506" on="1"/>
        <pt x="500" y="722" on="1"/>
        <pt x="528" y="722" on="1"/>
        <pt x="382" y="0" on="1"/>
        <pt x="358" y="0" on="1"/>
        <pt x="370" y="78" on="1"/>
        <pt x="366" y="78" on="1"/>
        <pt x="328" y="39" on="0"/>
        <pt x="237" y="-12" on="0"/>
        <pt x="186" y="-12" on="1"/>
        <pt x="123" y="-12" on="0"/>
        <pt x="46" y="75" on="0"/>
        <pt x="46" y="160" on="1"/>
        <pt x="46" y="229" on="0"/>
        <pt x="90" y="349" on="0"/>
        <pt x="163" y="439" on="0"/>
        <pt x="256" y="490" on="0"/>
        <pt x="306" y="490" on="1"/>
        <pt x="350" y="490" on="0"/>
        <pt x="412" y="446" on="0"/>
        <pt x="432" y="410" on="1"/>
        <pt x="436" y="410" on="1"/>
      </contour>
      <contour>
        <pt x="188" y="14" on="1"/>
        <pt x="238" y="14" on="0"/>
        <pt x="333" y="71" on="0"/>
        <pt x="378" y="122" on="1"/>
        <pt x="430" y="372" on="1"/>
        <pt x="401" y="422" on="0"/>
        <pt x="340" y="464" on="0"/>
        <pt x="304" y="464" on="1"/>
        <pt x="259" y="464" on="0"/>
        <pt x="176" y="412" on="0"/>
        <pt x="112" y="328" on="0"/>
        <pt x="74" y="221" on="0"/>
        <pt x="74" y="166" on="1"/>
        <pt x="74" y="89" on="0"/>
        <pt x="135" y="14" on="0"/>
      </contour>
    </TTGlyph>
    <TTGlyph name="d.sups" xMin="64" yMin="262" xMax="386" yMax="738">
      <contour>
        <pt x="334" y="608" on="1"/>
        <pt x="360" y="738" on="1"/>
        <pt x="386" y="738" on="1"/>
        <pt x="294" y="270" on="1"/>
        <pt x="272" y="270" on="1"/>
        <pt x="282" y="322" on="1"/>
        <pt x="278" y="322" on="1"/>
        <pt x="252" y="295" on="0"/>
        <pt x="193" y="262" on="0"/>
        <pt x="158" y="262" on="1"/>
        <pt x="116" y="262" on="0"/>
        <pt x="64" y="321" on="0"/>
        <pt x="64" y="378" on="1"/>
        <pt x="64" y="423" on="0"/>
        <pt x="94" y="502" on="0"/>
        <pt x="143" y="560" on="0"/>
        <pt x="206" y="594" on="0"/>
        <pt x="240" y="594" on="1"/>
        <pt x="264" y="594" on="0"/>
        <pt x="306" y="571" on="0"/>
        <pt x="320" y="544" on="1"/>
        <pt x="324" y="544" on="1"/>
      </contour>
      <contour>
        <pt x="160" y="286" on="1"/>
        <pt x="190" y="286" on="0"/>
        <pt x="257" y="328" on="0"/>
        <pt x="286" y="360" on="1"/>
        <pt x="316" y="512" on="1"/>
        <pt x="298" y="545" on="0"/>
        <pt x="259" y="570" on="0"/>
        <pt x="238" y="570" on="1"/>
        <pt x="210" y="570" on="0"/>
        <pt x="157" y="538" on="0"/>
        <pt x="115" y="485" on="0"/>
        <pt x="90" y="417" on="0"/>
        <pt x="90" y="382" on="1"/>
        <pt x="90" y="332" on="0"/>
        <pt x="130" y="286" on="0"/>
      </contour>
    </TTGlyph>
    <TTGlyph name="dagger" xMin="114" yMin="-80" xMax="394" yMax="712">
      <contour>
        <pt x="240" y="536" on="1"/>
        <pt x="116" y="534" on="1"/>
        <pt x="122" y="564" on="1"/>
        <pt x="244" y="562" on="1"/>
        <pt x="272" y="712" on="1"/>
        <pt x="302" y="712" on="1"/>
        <pt x="272" y="562" on="1"/>
        <pt x="394" y="564" on="1"/>
        <pt x="388" y="534" on="1"/>
        <pt x="266" y="536" on="1"/>
        <pt x="144" y="-80" on="1"/>
        <pt x="114" y="-80" on="1"/>
      </contour>
    </TTGlyph>
    <TTGlyph name="daggerdbl" xMin="24" yMin="-80" xMax="394" yMax="712">
      <contour>
        <pt x="30" y="98" on="1"/>
        <pt x="152" y="96" on="1"/>
        <pt x="194" y="316" on="1"/>
        <pt x="240" y="536" on="1"/>
        <pt x="116" y="534" on="1"/>
        <pt x="122" y="564" on="1"/>
        <pt x="244" y="562" on="1"/>
        <pt x="272" y="712" on="1"/>
        <pt x="302" y="712" on="1"/>
        <pt x="272" y="562" on="1"/>
        <pt x="394" y="564" on="1"/>
        <pt x="388" y="534" on="1"/>
        <pt x="266" y="536" on="1"/>
        <pt x="224" y="316" on="1"/>
        <pt x="178" y="96" on="1"/>
        <pt x="302" y="98" on="1"/>
        <pt x="296" y="68" on="1"/>
        <pt x="174" y="70" on="1"/>
        <pt x="146" y="-80" on="1"/>
        <pt x="116" y="-80" on="1"/>
        <pt x="146" y="70" on="1"/>
        <pt x="24" y="68" on="1"/>
      </contour>
    </TTGlyph>
    <TTGlyph name="dcaron" xMin="46" yMin="-12" xMax="616" yMax="752">
      <component glyphName="d" x="0" y="0" flags="0x4"/>
      <component glyphName="uni030C.a" x="520" y="0" flags="0x4"/>
    </TTGlyph>
    <TTGlyph name="dcroat" xMin="46" yMin="-12" xMax="580" yMax="722">
      <contour>
        <pt x="426" y="352" on="1"/>
        <pt x="399" y="402" on="0"/>
        <pt x="338" y="444" on="0"/>
        <pt x="302" y="444" on="1"/>
        <pt x="257" y="444" on="0"/>
        <pt x="174" y="394" on="0"/>
        <pt x="111" y="314" on="0"/>
        <pt x="74" y="215" on="0"/>
        <pt x="74" y="166" on="1"/>
        <pt x="74" y="89" on="0"/>
        <pt x="135" y="14" on="0"/>
        <pt x="188" y="14" on="1"/>
        <pt x="238" y="14" on="0"/>
        <pt x="333" y="71" on="0"/>
        <pt x="378" y="122" on="1"/>
      </contour>
      <contour>
        <pt x="574" y="588" on="1"/>
        <pt x="500" y="584" on="1"/>
        <pt x="382" y="0" on="1"/>
        <pt x="358" y="0" on="1"/>
        <pt x="370" y="78" on="1"/>
        <pt x="366" y="78" on="1"/>
        <pt x="328" y="39" on="0"/>
        <pt x="237" y="-12" on="0"/>
        <pt x="186" y="-12" on="1"/>
        <pt x="123" y="-12" on="0"/>
        <pt x="46" y="75" on="0"/>
        <pt x="46" y="160" on="1"/>
        <pt x="46" y="221" on="0"/>
        <pt x="89" y="334" on="0"/>
        <pt x="161" y="419" on="0"/>
        <pt x="254" y="470" on="0"/>
        <pt x="304" y="470" on="1"/>
        <pt x="348" y="470" on="0"/>
        <pt x="410" y="426" on="0"/>
        <pt x="428" y="390" on="1"/>
        <pt x="432" y="390" on="1"/>
        <pt x="452" y="486" on="1"/>
        <pt x="472" y="584" on="1"/>
        <pt x="306" y="584" on="1"/>
        <pt x="312" y="610" on="1"/>
        <pt x="477" y="610" on="1"/>
        <pt x="500" y="722" on="1"/>
        <pt x="528" y="722" on="1"/>
        <pt x="505" y="610" on="1"/>
        <pt x="580" y="610" on="1"/>
      </contour>
    </TTGlyph>
    <TTGlyph name="degree" xMin="106" yMin="456" xMax="312" yMax="684">
      <contour>
        <pt x="198" y="456" on="1"/>
        <pt x="159" y="456" on="0"/>
        <pt x="106" y="510" on="0"/>
        <pt x="106" y="554" on="1"/>
        <pt x="106" y="580" on="0"/>
        <pt x="124" y="627" on="0"/>
        <pt x="154" y="663" on="0"/>
        <pt x="196" y="684" on="0"/>
        <pt x="220" y="684" on="1"/>
        <pt x="259" y="684" on="0"/>
        <pt x="312" y="630" on="0"/>
        <pt x="312" y="586" on="1"/>
        <pt x="312" y="560" on="0"/>
        <pt x="294" y="513" on="0"/>
        <pt x="264" y="477" on="0"/>
        <pt x="222" y="456" on="0"/>
      </contour>
      <contour>
        <pt x="218" y="660" on="1"/>
        <pt x="198" y="660" on="0"/>
        <pt x="167" y="642" on="0"/>
        <pt x="144" y="613" on="0"/>
        <pt x="132" y="577" on="0"/>
        <pt x="132" y="558" on="1"/>
        <pt x="132" y="525" on="0"/>
        <pt x="168" y="480" on="0"/>
        <pt x="200" y="480" on="1"/>
        <pt x="219" y="480" on="0"/>
        <pt x="251" y="498" on="0"/>
        <pt x="274" y="527" on="0"/>
        <pt x="286" y="563" on="0"/>
        <pt x="286" y="582" on="1"/>
        <pt x="286" y="615" on="0"/>
        <pt x="250" y="660" on="0"/>
      </contour>
    </TTGlyph>
    <TTGlyph name="dieresis" xMin="238" yMin="602" xMax="442" yMax="666">
      <component glyphName="uni0308" x="214" y="0" flags="0x4"/>
    </TTGlyph>
    <TTGlyph name="divide" xMin="48" yMin="114" xMax="436" yMax="544">
      <contour>
        <pt x="242" y="478" on="1"/>
        <pt x="228" y="478" on="0"/>
        <pt x="212" y="498" on="0"/>
        <pt x="212" y="512" on="1"/>
        <pt x="212" y="526" on="0"/>
        <pt x="228" y="544" on="0"/>
        <pt x="242" y="544" on="1"/>
        <pt x="256" y="544" on="0"/>
        <pt x="272" y="526" on="0"/>
        <pt x="272" y="512" on="1"/>
        <pt x="272" y="498" on="0"/>
        <pt x="256" y="478" on="0"/>
      </contour>
      <contour>
        <pt x="242" y="114" on="1"/>
        <pt x="228" y="114" on="0"/>
        <pt x="212" y="134" on="0"/>
        <pt x="212" y="148" on="1"/>
        <pt x="212" y="162" on="0"/>
        <pt x="228" y="180" on="0"/>
        <pt x="242" y="180" on="1"/>
        <pt x="256" y="180" on="0"/>
        <pt x="272" y="162" on="0"/>
        <pt x="272" y="148" on="1"/>
        <pt x="272" y="134" on="0"/>
        <pt x="256" y="114" on="0"/>
      </contour>
      <contour>
        <pt x="48" y="318" on="1"/>
        <pt x="48" y="344" on="1"/>
        <pt x="436" y="344" on="1"/>
        <pt x="436" y="318" on="1"/>
      </contour>
    </TTGlyph>
    <TTGlyph name="dollar" xMin="25" yMin="-110" xMax="438" yMax="750">
      <contour>
        <pt x="322" y="649" on="1"/>
        <pt x="358" y="642" on="0"/>
        <pt x="420" y="596" on="0"/>
        <pt x="438" y="568" on="1"/>
        <pt x="416" y="550" on="1"/>
        <pt x="395" y="582" on="0"/>
        <pt x="333" y="626" on="0"/>
        <pt x="294" y="626" on="1"/>
        <pt x="265" y="626" on="0"/>
        <pt x="214" y="607" on="0"/>
        <pt x="177" y="574" on="0"/>
        <pt x="156" y="526" on="0"/>
        <pt x="156" y="498" on="1"/>
        <pt x="156" y="462" on="0"/>
        <pt x="189" y="411" on="0"/>
        <pt x="238" y="368" on="0"/>
        <pt x="296" y="328" on="0"/>
        <pt x="345" y="279" on="0"/>
        <pt x="378" y="215" on="0"/>
        <pt x="378" y="170" on="1"/>
        <pt x="378" y="132" on="0"/>
        <pt x="352" y="67" on="0"/>
        <pt x="304" y="17" on="0"/>
        <pt x="236" y="-12" on="0"/>
        <pt x="195" y="-12" on="1"/>
        <pt x="176" y="-110" on="1"/>
        <pt x="148" y="-110" on="1"/>
        <pt x="168" y="-10" on="1"/>
        <pt x="120" y="-2" on="0"/>
        <pt x="47" y="50" on="0"/>
        <pt x="25" y="78" on="1"/>
        <pt x="46" y="98" on="1"/>
        <pt x="57" y="82" on="0"/>
        <pt x="88" y="52" on="0"/>
        <pt x="125" y="28" on="0"/>
        <pt x="169" y="14" on="0"/>
        <pt x="194" y="14" on="1"/>
        <pt x="227" y="14" on="0"/>
        <pt x="284" y="36" on="0"/>
        <pt x="326" y="76" on="0"/>
        <pt x="350" y="131" on="0"/>
        <pt x="350" y="164" on="1"/>
        <pt x="350" y="207" on="0"/>
        <pt x="317" y="268" on="0"/>
        <pt x="268" y="315" on="0"/>
        <pt x="210" y="355" on="0"/>
        <pt x="161" y="399" on="0"/>
        <pt x="128" y="453" on="0"/>
        <pt x="128" y="492" on="1"/>
        <pt x="128" y="526" on="0"/>
        <pt x="153" y="585" on="0"/>
        <pt x="198" y="627" on="0"/>
        <pt x="259" y="652" on="0"/>
        <pt x="295" y="652" on="1"/>
        <pt x="315" y="750" on="1"/>
        <pt x="343" y="750" on="1"/>
      </contour>
    </TTGlyph>
    <TTGlyph name="dong" xMin="36" yMin="0" xMax="520" yMax="676">
      <contour>
        <pt x="42" y="26" on="1"/>
        <pt x="356" y="26" on="1"/>
        <pt x="350" y="0" on="1"/>
        <pt x="36" y="0" on="1"/>
      </contour>
      <contour>
        <pt x="370" y="386" on="1"/>
        <pt x="355" y="418" on="0"/>
        <pt x="310" y="448" on="0"/>
        <pt x="284" y="448" on="1"/>
        <pt x="252" y="448" on="0"/>
        <pt x="188" y="415" on="0"/>
        <pt x="137" y="358" on="0"/>
        <pt x="106" y="283" on="0"/>
        <pt x="106" y="240" on="1"/>
        <pt x="106" y="192" on="0"/>
        <pt x="148" y="132" on="0"/>
        <pt x="192" y="132" on="1"/>
        <pt x="227" y="132" on="0"/>
        <pt x="295" y="167" on="0"/>
        <pt x="334" y="200" on="1"/>
      </contour>
      <contour>
        <pt x="514" y="570" on="1"/>
        <pt x="436" y="566" on="1"/>
        <pt x="344" y="116" on="1"/>
        <pt x="320" y="116" on="1"/>
        <pt x="328" y="166" on="1"/>
        <pt x="326" y="166" on="1"/>
        <pt x="297" y="142" on="0"/>
        <pt x="226" y="106" on="0"/>
        <pt x="190" y="106" on="1"/>
        <pt x="137" y="106" on="0"/>
        <pt x="78" y="178" on="0"/>
        <pt x="78" y="234" on="1"/>
        <pt x="78" y="285" on="0"/>
        <pt x="114" y="372" on="0"/>
        <pt x="172" y="436" on="0"/>
        <pt x="247" y="472" on="0"/>
        <pt x="286" y="472" on="1"/>
        <pt x="322" y="472" on="0"/>
        <pt x="363" y="439" on="0"/>
        <pt x="378" y="416" on="1"/>
        <pt x="396" y="514" on="1"/>
        <pt x="407" y="566" on="1"/>
        <pt x="276" y="566" on="1"/>
        <pt x="282" y="592" on="1"/>
        <pt x="412" y="592" on="1"/>
        <pt x="430" y="676" on="1"/>
        <pt x="458" y="676" on="1"/>
        <pt x="441" y="592" on="1"/>
        <pt x="520" y="592" on="1"/>
      </contour>
    </TTGlyph>
    <TTGlyph name="dotaccent" xMin="306" yMin="600" xMax="370" yMax="668">
      <component glyphName="uni0307" x="214" y="0" flags="0x4"/>
    </TTGlyph>
    <TTGlyph name="dotlessi" xMin="44" yMin="0" xMax="168" yMax="478">
      <contour>
        <pt x="140" y="478" on="1"/>
        <pt x="168" y="478" on="1"/>
        <pt x="72" y="0" on="1"/>
        <pt x="44" y="0" on="1"/>
      </contour>
    </TTGlyph>
    <TTGlyph name="e" xMin="44" yMin="-12" xMax="432" yMax="490">
      <contour>
        <pt x="44" y="184" on="1"/>
        <pt x="44" y="252" on="0"/>
        <pt x="87" y="365" on="0"/>
        <pt x="156" y="446" on="0"/>
        <pt x="244" y="490" on="0"/>
        <pt x="290" y="490" on="1"/>
        <pt x="328" y="490" on="0"/>
        <pt x="382" y="465" on="0"/>
        <pt x="416" y="420" on="0"/>
        <pt x="432" y="359" on="0"/>
        <pt x="432" y="322" on="1"/>
        <pt x="432" y="298" on="0"/>
        <pt x="425" y="257" on="0"/>
        <pt x="420" y="242" on="1"/>
        <pt x="78" y="242" on="1"/>
        <pt x="67" y="182" on="0"/>
        <pt x="83" y="96" on="0"/>
        <pt x="125" y="40" on="0"/>
        <pt x="188" y="14" on="0"/>
        <pt x="226" y="14" on="1"/>
        <pt x="259" y="14" on="0"/>
        <pt x="323" y="42" on="0"/>
        <pt x="350" y="62" on="1"/>
        <pt x="364" y="40" on="1"/>
        <pt x="335" y="19" on="0"/>
        <pt x="263" y="-12" on="0"/>
        <pt x="224" y="-12" on="1"/>
        <pt x="141" y="-12" on="0"/>
        <pt x="44" y="87" on="0"/>
      </contour>
      <contour>
        <pt x="398" y="268" on="1"/>
        <pt x="401" y="283" on="0"/>
        <pt x="404" y="311" on="0"/>
        <pt x="404" y="328" on="1"/>
        <pt x="404" y="353" on="0"/>
        <pt x="392" y="402" on="0"/>
        <pt x="365" y="441" on="0"/>
        <pt x="320" y="464" on="0"/>
        <pt x="288" y="464" on="1"/>
        <pt x="254" y="464" on="0"/>
        <pt x="189" y="435" on="0"/>
        <pt x="135" y="383" on="0"/>
        <pt x="94" y="311" on="0"/>
        <pt x="84" y="268" on="1"/>
      </contour>
    </TTGlyph>
    <TTGlyph name="e.sups" xMin="64" yMin="262" xMax="330" yMax="594">
      <contour>
        <pt x="64" y="394" on="1"/>
        <pt x="64" y="438" on="0"/>
        <pt x="93" y="512" on="0"/>
        <pt x="140" y="565" on="0"/>
        <pt x="199" y="594" on="0"/>
        <pt x="230" y="594" on="1"/>
        <pt x="259" y="594" on="0"/>
        <pt x="298" y="574" on="0"/>
        <pt x="321" y="542" on="0"/>
        <pt x="330" y="502" on="0"/>
        <pt x="330" y="482" on="1"/>
        <pt x="330" y="465" on="0"/>
        <pt x="325" y="438" on="0"/>
        <pt x="320" y="426" on="1"/>
        <pt x="94" y="426" on="1"/>
        <pt x="83" y="363" on="0"/>
        <pt x="132" y="286" on="0"/>
        <pt x="186" y="286" on="1"/>
        <pt x="213" y="286" on="0"/>
        <pt x="255" y="305" on="0"/>
        <pt x="272" y="316" on="1"/>
        <pt x="284" y="294" on="1"/>
        <pt x="266" y="283" on="0"/>
        <pt x="216" y="262" on="0"/>
        <pt x="184" y="262" on="1"/>
        <pt x="128" y="262" on="0"/>
        <pt x="64" y="329" on="0"/>
      </contour>
      <contour>
        <pt x="300" y="450" on="1"/>
        <pt x="303" y="461" on="0"/>
        <pt x="304" y="476" on="0"/>
        <pt x="304" y="484" on="1"/>
        <pt x="304" y="517" on="0"/>
        <pt x="268" y="570" on="0"/>
        <pt x="228" y="570" on="1"/>
        <pt x="208" y="570" on="0"/>
        <pt x="168" y="552" on="0"/>
        <pt x="133" y="520" on="0"/>
        <pt x="106" y="476" on="0"/>
        <pt x="100" y="450" on="1"/>
      </contour>
    </TTGlyph>
    <TTGlyph name="eacute" xMin="44" yMin="-12" xMax="432" yMax="704">
      <component glyphName="e" x="0" y="0" flags="0x204"/>
      <component glyphName="uni0301" x="190" y="0" flags="0x4"/>
    </TTGlyph>
    <TTGlyph name="eacute.sups" xMin="66" yMin="272" xMax="332" yMax="736">
      <contour>
        <pt x="278" y="736" on="1"/>
        <pt x="312" y="736" on="1"/>
        <pt x="226" y="646" on="1"/>
        <pt x="200" y="646" on="1"/>
      </contour>
      <contour>
        <pt x="66" y="404" on="1"/>
        <pt x="66" y="448" on="0"/>
        <pt x="95" y="522" on="0"/>
        <pt x="142" y="575" on="0"/>
        <pt x="201" y="604" on="0"/>
        <pt x="232" y="604" on="1"/>
        <pt x="261" y="604" on="0"/>
        <pt x="300" y="584" on="0"/>
        <pt x="323" y="552" on="0"/>
        <pt x="332" y="512" on="0"/>
        <pt x="332" y="492" on="1"/>
        <pt x="332" y="475" on="0"/>
        <pt x="327" y="448" on="0"/>
        <pt x="322" y="436" on="1"/>
        <pt x="96" y="436" on="1"/>
        <pt x="85" y="373" on="0"/>
        <pt x="134" y="296" on="0"/>
        <pt x="188" y="296" on="1"/>
        <pt x="215" y="296" on="0"/>
        <pt x="257" y="315" on="0"/>
        <pt x="274" y="326" on="1"/>
        <pt x="286" y="304" on="1"/>
        <pt x="268" y="293" on="0"/>
        <pt x="218" y="272" on="0"/>
        <pt x="186" y="272" on="1"/>
        <pt x="130" y="272" on="0"/>
        <pt x="66" y="339" on="0"/>
      </contour>
      <contour>
        <pt x="302" y="460" on="1"/>
        <pt x="305" y="471" on="0"/>
        <pt x="306" y="486" on="0"/>
        <pt x="306" y="494" on="1"/>
        <pt x="306" y="527" on="0"/>
        <pt x="270" y="580" on="0"/>
        <pt x="230" y="580" on="1"/>
        <pt x="210" y="580" on="0"/>
        <pt x="170" y="562" on="0"/>
        <pt x="135" y="530" on="0"/>
        <pt x="108" y="486" on="0"/>
        <pt x="102" y="460" on="1"/>
      </contour>
    </TTGlyph>
    <TTGlyph name="ebreve" xMin="44" yMin="-12" xMax="436" yMax="690">
      <component glyphName="e" x="0" y="0" flags="0x204"/>
      <component glyphName="uni0306" x="190" y="0" flags="0x4"/>
    </TTGlyph>
    <TTGlyph name="ecaron" xMin="44" yMin="-12" xMax="434" yMax="704">
      <component glyphName="e" x="0" y="0" flags="0x204"/>
      <component glyphName="uni030C" x="190" y="0" flags="0x4"/>
    </TTGlyph>
    <TTGlyph name="ecircumflex" xMin="44" yMin="-12" xMax="432" yMax="704">
      <component glyphName="e" x="0" y="0" flags="0x204"/>
      <component glyphName="uni0302" x="190" y="0" flags="0x4"/>
    </TTGlyph>
    <TTGlyph name="edieresis" xMin="44" yMin="-12" xMax="432" yMax="666">
      <component glyphName="e" x="0" y="0" flags="0x204"/>
      <component glyphName="uni0308" x="190" y="0" flags="0x4"/>
    </TTGlyph>
    <TTGlyph name="edotaccent" xMin="44" yMin="-12" xMax="432" yMax="668">
      <component glyphName="e" x="0" y="0" flags="0x204"/>
      <component glyphName="uni0307" x="190" y="0" flags="0x4"/>
    </TTGlyph>
    <TTGlyph name="egrave" xMin="44" yMin="-12" xMax="432" yMax="704">
      <component glyphName="e" x="0" y="0" flags="0x204"/>
      <component glyphName="uni0300" x="190" y="0" flags="0x4"/>
    </TTGlyph>
    <TTGlyph name="egrave.sups" xMin="66" yMin="272" xMax="332" yMax="736">
      <contour>
        <pt x="198" y="736" on="1"/>
        <pt x="228" y="736" on="1"/>
        <pt x="268" y="646" on="1"/>
        <pt x="246" y="646" on="1"/>
      </contour>
      <contour>
        <pt x="66" y="404" on="1"/>
        <pt x="66" y="448" on="0"/>
        <pt x="95" y="522" on="0"/>
        <pt x="142" y="575" on="0"/>
        <pt x="201" y="604" on="0"/>
        <pt x="232" y="604" on="1"/>
        <pt x="261" y="604" on="0"/>
        <pt x="300" y="584" on="0"/>
        <pt x="323" y="552" on="0"/>
        <pt x="332" y="512" on="0"/>
        <pt x="332" y="492" on="1"/>
        <pt x="332" y="475" on="0"/>
        <pt x="327" y="448" on="0"/>
        <pt x="322" y="436" on="1"/>
        <pt x="96" y="436" on="1"/>
        <pt x="85" y="373" on="0"/>
        <pt x="134" y="296" on="0"/>
        <pt x="188" y="296" on="1"/>
        <pt x="215" y="296" on="0"/>
        <pt x="257" y="315" on="0"/>
        <pt x="274" y="326" on="1"/>
        <pt x="286" y="304" on="1"/>
        <pt x="268" y="293" on="0"/>
        <pt x="218" y="272" on="0"/>
        <pt x="186" y="272" on="1"/>
        <pt x="130" y="272" on="0"/>
        <pt x="66" y="339" on="0"/>
      </contour>
      <contour>
        <pt x="302" y="460" on="1"/>
        <pt x="305" y="471" on="0"/>
        <pt x="306" y="486" on="0"/>
        <pt x="306" y="494" on="1"/>
        <pt x="306" y="527" on="0"/>
        <pt x="270" y="580" on="0"/>
        <pt x="230" y="580" on="1"/>
        <pt x="210" y="580" on="0"/>
        <pt x="170" y="562" on="0"/>
        <pt x="135" y="530" on="0"/>
        <pt x="108" y="486" on="0"/>
        <pt x="102" y="460" on="1"/>
      </contour>
    </TTGlyph>
    <TTGlyph name="eight" xMin="34" yMin="-12" xMax="450" yMax="652">
      <contour>
        <pt x="212" y="344" on="1"/>
        <pt x="179" y="327" on="0"/>
        <pt x="124" y="289" on="0"/>
        <pt x="84" y="244" on="0"/>
        <pt x="62" y="190" on="0"/>
        <pt x="62" y="156" on="1"/>
        <pt x="62" y="121" on="0"/>
        <pt x="87" y="68" on="0"/>
        <pt x="129" y="32" on="0"/>
        <pt x="183" y="14" on="0"/>
        <pt x="212" y="14" on="1"/>
        <pt x="244" y="14" on="0"/>
        <pt x="306" y="34" on="0"/>
        <pt x="354" y="73" on="0"/>
        <pt x="384" y="130" on="0"/>
        <pt x="384" y="166" on="1"/>
        <pt x="384" y="200" on="0"/>
        <pt x="354" y="252" on="0"/>
        <pt x="306" y="293" on="0"/>
        <pt x="244" y="327" on="0"/>
      </contour>
      <contour>
        <pt x="296" y="330" on="1"/>
        <pt x="320" y="343" on="0"/>
        <pt x="365" y="379" on="0"/>
        <pt x="401" y="422" on="0"/>
        <pt x="422" y="474" on="0"/>
        <pt x="422" y="504" on="1"/>
        <pt x="422" y="534" on="0"/>
        <pt x="402" y="580" on="0"/>
        <pt x="369" y="610" on="0"/>
        <pt x="325" y="626" on="0"/>
        <pt x="302" y="626" on="1"/>
        <pt x="275" y="626" on="0"/>
        <pt x="224" y="607" on="0"/>
        <pt x="185" y="571" on="0"/>
        <pt x="162" y="520" on="0"/>
        <pt x="162" y="488" on="1"/>
        <pt x="162" y="457" on="0"/>
        <pt x="181" y="411" on="0"/>
        <pt x="216" y="374" on="0"/>
        <pt x="265" y="344" on="0"/>
      </contour>
      <contour>
        <pt x="34" y="154" on="1"/>
        <pt x="34" y="193" on="0"/>
        <pt x="61" y="256" on="0"/>
        <pt x="105" y="306" on="0"/>
        <pt x="162" y="344" on="0"/>
        <pt x="192" y="358" on="1"/>
        <pt x="192" y="362" on="1"/>
        <pt x="163" y="389" on="0"/>
        <pt x="134" y="445" on="0"/>
        <pt x="134" y="486" on="1"/>
        <pt x="134" y="525" on="0"/>
        <pt x="162" y="587" on="0"/>
        <pt x="209" y="629" on="0"/>
        <pt x="270" y="652" on="0"/>
        <pt x="304" y="652" on="1"/>
        <pt x="333" y="652" on="0"/>
        <pt x="386" y="633" on="0"/>
        <pt x="426" y="597" on="0"/>
        <pt x="450" y="542" on="0"/>
        <pt x="450" y="506" on="1"/>
        <pt x="450" y="472" on="0"/>
        <pt x="430" y="417" on="0"/>
        <pt x="395" y="372" on="0"/>
        <pt x="348" y="334" on="0"/>
        <pt x="320" y="318" on="1"/>
        <pt x="320" y="314" on="1"/>
        <pt x="332" y="306" on="0"/>
        <pt x="364" y="279" on="0"/>
        <pt x="392" y="243" on="0"/>
        <pt x="412" y="198" on="0"/>
        <pt x="412" y="172" on="1"/>
        <pt x="412" y="129" on="0"/>
        <pt x="380" y="61" on="0"/>
        <pt x="325" y="13" on="0"/>
        <pt x="252" y="-12" on="0"/>
        <pt x="212" y="-12" on="1"/>
        <pt x="177" y="-12" on="0"/>
        <pt x="113" y="9" on="0"/>
        <pt x="64" y="51" on="0"/>
        <pt x="34" y="113" on="0"/>
      </contour>
    </TTGlyph>
    <TTGlyph name="eight.dnom" xMin="18" yMin="-12" xMax="294" yMax="402">
      <contour>
        <pt x="46" y="96" on="1"/>
        <pt x="46" y="55" on="0"/>
        <pt x="97" y="12" on="0"/>
        <pt x="132" y="12" on="1"/>
        <pt x="151" y="12" on="0"/>
        <pt x="189" y="24" on="0"/>
        <pt x="218" y="47" on="0"/>
        <pt x="236" y="80" on="0"/>
        <pt x="236" y="100" on="1"/>
        <pt x="236" y="122" on="0"/>
        <pt x="220" y="153" on="0"/>
        <pt x="193" y="174" on="0"/>
        <pt x="157" y="191" on="0"/>
        <pt x="138" y="200" on="1"/>
        <pt x="93" y="180" on="0"/>
        <pt x="46" y="125" on="0"/>
      </contour>
      <contour>
        <pt x="188" y="208" on="1"/>
        <pt x="226" y="226" on="0"/>
        <pt x="266" y="275" on="0"/>
        <pt x="266" y="301" on="1"/>
        <pt x="266" y="337" on="0"/>
        <pt x="225" y="378" on="0"/>
        <pt x="192" y="378" on="1"/>
        <pt x="154" y="378" on="0"/>
        <pt x="104" y="333" on="0"/>
        <pt x="104" y="300" on="1"/>
        <pt x="104" y="265" on="0"/>
        <pt x="152" y="220" on="0"/>
      </contour>
      <contour>
        <pt x="18" y="90" on="1"/>
        <pt x="18" y="112" on="0"/>
        <pt x="35" y="150" on="0"/>
        <pt x="63" y="181" on="0"/>
        <pt x="99" y="206" on="0"/>
        <pt x="118" y="214" on="1"/>
        <pt x="118" y="218" on="1"/>
        <pt x="101" y="233" on="0"/>
        <pt x="76" y="271" on="0"/>
        <pt x="76" y="294" on="1"/>
        <pt x="76" y="318" on="0"/>
        <pt x="94" y="358" on="0"/>
        <pt x="126" y="386" on="0"/>
        <pt x="169" y="402" on="0"/>
        <pt x="194" y="402" on="1"/>
        <pt x="236" y="402" on="0"/>
        <pt x="294" y="350" on="0"/>
        <pt x="294" y="307" on="1"/>
        <pt x="294" y="287" on="0"/>
        <pt x="279" y="253" on="0"/>
        <pt x="255" y="225" on="0"/>
        <pt x="227" y="203" on="0"/>
        <pt x="214" y="196" on="1"/>
        <pt x="214" y="192" on="1"/>
        <pt x="235" y="177" on="0"/>
        <pt x="264" y="138" on="0"/>
        <pt x="264" y="106" on="1"/>
        <pt x="264" y="80" on="0"/>
        <pt x="243" y="36" on="0"/>
        <pt x="207" y="5" on="0"/>
        <pt x="158" y="-12" on="0"/>
        <pt x="130" y="-12" on="1"/>
        <pt x="83" y="-12" on="0"/>
        <pt x="18" y="43" on="0"/>
      </contour>
    </TTGlyph>
    <TTGlyph name="eight.numr" xMin="68" yMin="258" xMax="344" yMax="672">
      <component glyphName="eight.dnom" x="50" y="270" flags="0x204"/>
    </TTGlyph>
    <TTGlyph name="eight.onum" xMin="34" yMin="-12" xMax="450" yMax="652">
      <component glyphName="eight" x="0" y="0" flags="0x204"/>
    </TTGlyph>
    <TTGlyph name="eight.pnum" xMin="34" yMin="-12" xMax="450" yMax="652">
      <component glyphName="eight" x="0" y="0" flags="0x204"/>
    </TTGlyph>
    <TTGlyph name="eight.subs" xMin="-11" yMin="-181" xMax="265" yMax="233">
      <component glyphName="eight.dnom" x="-29" y="-169" flags="0x204"/>
    </TTGlyph>
    <TTGlyph name="eight.sups" xMin="108" yMin="428" xMax="384" yMax="842">
      <component glyphName="eight.dnom" x="90" y="440" flags="0x204"/>
    </TTGlyph>
    <TTGlyph name="eight.tnum" xMin="34" yMin="-12" xMax="450" yMax="652">
      <component glyphName="eight" x="0" y="0" flags="0x204"/>
    </TTGlyph>
    <TTGlyph name="ellipsis" xMin="94" yMin="-12" xMax="834" yMax="64">
      <component glyphName="period" x="72" y="0" flags="0x4"/>
      <component glyphName="period" x="408" y="0" flags="0x4"/>
      <component glyphName="period" x="744" y="0" flags="0x4"/>
    </TTGlyph>
    <TTGlyph name="emacron" xMin="44" yMin="-12" xMax="432" yMax="634">
      <component glyphName="e" x="0" y="0" flags="0x204"/>
      <component glyphName="uni0304" x="190" y="0" flags="0x4"/>
    </TTGlyph>
    <TTGlyph name="emdash" xMin="36" yMin="238" xMax="732" yMax="264">
      <contour>
        <pt x="42" y="264" on="1"/>
        <pt x="732" y="264" on="1"/>
        <pt x="726" y="238" on="1"/>
        <pt x="36" y="238" on="1"/>
      </contour>
    </TTGlyph>
    <TTGlyph name="endash" xMin="36" yMin="238" xMax="426" yMax="264">
      <contour>
        <pt x="42" y="264" on="1"/>
        <pt x="426" y="264" on="1"/>
        <pt x="418" y="238" on="1"/>
        <pt x="36" y="238" on="1"/>
      </contour>
    </TTGlyph>
    <TTGlyph name="eogonek" xMin="44" yMin="-202" xMax="432" yMax="490">
      <contour>
        <pt x="186" y="-140" on="1"/>
        <pt x="186" y="-121" on="0"/>
        <pt x="202" y="-82" on="0"/>
        <pt x="226" y="-47" on="0"/>
        <pt x="256" y="-17" on="0"/>
        <pt x="270" y="-6" on="1"/>
        <pt x="258" y="-9" on="0"/>
        <pt x="233" y="-12" on="0"/>
        <pt x="224" y="-12" on="1"/>
        <pt x="141" y="-12" on="0"/>
        <pt x="44" y="87" on="0"/>
        <pt x="44" y="184" on="1"/>
        <pt x="44" y="252" on="0"/>
        <pt x="87" y="365" on="0"/>
        <pt x="156" y="446" on="0"/>
        <pt x="244" y="490" on="0"/>
        <pt x="290" y="490" on="1"/>
        <pt x="328" y="490" on="0"/>
        <pt x="382" y="465" on="0"/>
        <pt x="416" y="420" on="0"/>
        <pt x="432" y="359" on="0"/>
        <pt x="432" y="322" on="1"/>
        <pt x="432" y="298" on="0"/>
        <pt x="425" y="257" on="0"/>
        <pt x="420" y="242" on="1"/>
        <pt x="78" y="242" on="1"/>
        <pt x="67" y="182" on="0"/>
        <pt x="83" y="96" on="0"/>
        <pt x="125" y="40" on="0"/>
        <pt x="188" y="14" on="0"/>
        <pt x="226" y="14" on="1"/>
        <pt x="259" y="14" on="0"/>
        <pt x="323" y="42" on="0"/>
        <pt x="350" y="62" on="1"/>
        <pt x="364" y="40" on="1"/>
        <pt x="284" y="-14" on="0"/>
        <pt x="216" y="-99" on="0"/>
        <pt x="216" y="-134" on="1"/>
        <pt x="216" y="-154" on="0"/>
        <pt x="237" y="-176" on="0"/>
        <pt x="254" y="-176" on="1"/>
        <pt x="266" y="-176" on="0"/>
        <pt x="285" y="-170" on="0"/>
        <pt x="296" y="-164" on="1"/>
        <pt x="306" y="-186" on="1"/>
        <pt x="277" y="-202" on="0"/>
        <pt x="252" y="-202" on="1"/>
        <pt x="223" y="-202" on="0"/>
        <pt x="186" y="-172" on="0"/>
      </contour>
      <contour>
        <pt x="398" y="268" on="1"/>
        <pt x="401" y="283" on="0"/>
        <pt x="404" y="311" on="0"/>
        <pt x="404" y="328" on="1"/>
        <pt x="404" y="353" on="0"/>
        <pt x="392" y="402" on="0"/>
        <pt x="365" y="441" on="0"/>
        <pt x="320" y="464" on="0"/>
        <pt x="288" y="464" on="1"/>
        <pt x="254" y="464" on="0"/>
        <pt x="189" y="435" on="0"/>
        <pt x="135" y="383" on="0"/>
        <pt x="94" y="311" on="0"/>
        <pt x="84" y="268" on="1"/>
      </contour>
    </TTGlyph>
    <TTGlyph name="equal" xMin="48" yMin="219" xMax="436" yMax="442">
      <component glyphName="minus" x="0" y="98" flags="0x204"/>
      <component glyphName="minus" x="0" y="-99" flags="0x4"/>
    </TTGlyph>
    <TTGlyph name="estimated" xMin="66" yMin="-12" xMax="774" yMax="660">
      <contour>
        <pt x="204" y="108" on="1"/>
        <pt x="245" y="61" on="0"/>
        <pt x="357" y="8" on="0"/>
        <pt x="422" y="8" on="1"/>
        <pt x="490" y="8" on="0"/>
        <pt x="608" y="69" on="0"/>
        <pt x="650" y="120" on="1"/>
        <pt x="702" y="120" on="1"/>
        <pt x="652" y="60" on="0"/>
        <pt x="506" y="-12" on="0"/>
        <pt x="420" y="-12" on="1"/>
        <pt x="346" y="-12" on="0"/>
        <pt x="217" y="41" on="0"/>
        <pt x="121" y="132" on="0"/>
        <pt x="66" y="254" on="0"/>
        <pt x="66" y="324" on="1"/>
        <pt x="66" y="394" on="0"/>
        <pt x="121" y="516" on="0"/>
        <pt x="217" y="607" on="0"/>
        <pt x="346" y="660" on="0"/>
        <pt x="420" y="660" on="1"/>
        <pt x="493" y="660" on="0"/>
        <pt x="622" y="607" on="0"/>
        <pt x="718" y="516" on="0"/>
        <pt x="774" y="394" on="0"/>
        <pt x="774" y="324" on="1"/>
        <pt x="774" y="316" on="1"/>
        <pt x="200" y="316" on="1"/>
        <pt x="196" y="316" on="0"/>
        <pt x="196" y="312" on="1"/>
        <pt x="196" y="128" on="1"/>
        <pt x="196" y="122" on="0"/>
        <pt x="201" y="113" on="0"/>
      </contour>
      <contour>
        <pt x="640" y="334" on="1"/>
        <pt x="646" y="334" on="0"/>
        <pt x="646" y="340" on="1"/>
        <pt x="646" y="524" on="1"/>
        <pt x="646" y="536" on="0"/>
        <pt x="636" y="546" on="1"/>
        <pt x="594" y="590" on="0"/>
        <pt x="484" y="640" on="0"/>
        <pt x="422" y="640" on="1"/>
        <pt x="357" y="640" on="0"/>
        <pt x="246" y="587" on="0"/>
        <pt x="204" y="542" on="1"/>
        <pt x="201" y="537" on="0"/>
        <pt x="196" y="526" on="0"/>
        <pt x="196" y="520" on="1"/>
        <pt x="196" y="340" on="1"/>
        <pt x="196" y="334" on="0"/>
        <pt x="200" y="334" on="1"/>
      </contour>
    </TTGlyph>
    <TTGlyph name="eth" xMin="50" yMin="-12" xMax="512" yMax="722">
      <contour>
        <pt x="216" y="14" on="1"/>
        <pt x="260" y="14" on="0"/>
        <pt x="333" y="64" on="0"/>
        <pt x="387" y="148" on="0"/>
        <pt x="418" y="257" on="0"/>
        <pt x="420" y="317" on="1"/>
        <pt x="408" y="335" on="0"/>
        <pt x="380" y="370" on="0"/>
        <pt x="346" y="397" on="0"/>
        <pt x="306" y="414" on="0"/>
        <pt x="282" y="414" on="1"/>
        <pt x="236" y="414" on="0"/>
        <pt x="161" y="372" on="0"/>
        <pt x="107" y="303" on="0"/>
        <pt x="78" y="214" on="0"/>
        <pt x="78" y="168" on="1"/>
        <pt x="78" y="137" on="0"/>
        <pt x="96" y="81" on="0"/>
        <pt x="132" y="39" on="0"/>
        <pt x="183" y="14" on="0"/>
      </contour>
      <contour>
        <pt x="372" y="600" on="1"/>
        <pt x="407" y="550" on="0"/>
        <pt x="448" y="423" on="0"/>
        <pt x="448" y="340" on="1"/>
        <pt x="448" y="266" on="0"/>
        <pt x="414" y="138" on="0"/>
        <pt x="351" y="43" on="0"/>
        <pt x="263" y="-12" on="0"/>
        <pt x="210" y="-12" on="1"/>
        <pt x="175" y="-12" on="0"/>
        <pt x="116" y="16" on="0"/>
        <pt x="74" y="64" on="0"/>
        <pt x="50" y="128" on="0"/>
        <pt x="50" y="164" on="1"/>
        <pt x="50" y="217" on="0"/>
        <pt x="83" y="317" on="0"/>
        <pt x="144" y="394" on="0"/>
        <pt x="231" y="440" on="0"/>
        <pt x="284" y="440" on="1"/>
        <pt x="324" y="440" on="0"/>
        <pt x="393" y="395" on="0"/>
        <pt x="420" y="359" on="1"/>
        <pt x="417" y="433" on="0"/>
        <pt x="379" y="545" on="0"/>
        <pt x="347" y="590" on="1"/>
        <pt x="198" y="526" on="1"/>
        <pt x="190" y="548" on="1"/>
        <pt x="333" y="609" on="1"/>
        <pt x="310" y="636" on="0"/>
        <pt x="257" y="682" on="0"/>
        <pt x="226" y="702" on="1"/>
        <pt x="242" y="722" on="1"/>
        <pt x="309" y="679" on="0"/>
        <pt x="358" y="620" on="1"/>
        <pt x="504" y="682" on="1"/>
        <pt x="512" y="660" on="1"/>
      </contour>
    </TTGlyph>
    <TTGlyph name="exclam" xMin="42" yMin="-12" xMax="216" yMax="672">
      <contour>
        <pt x="176" y="608" on="1"/>
        <pt x="188" y="672" on="1"/>
        <pt x="216" y="672" on="1"/>
        <pt x="204" y="608" on="1"/>
        <pt x="116" y="172" on="1"/>
        <pt x="92" y="172" on="1"/>
      </contour>
      <contour>
        <pt x="70" y="-12" on="1"/>
        <pt x="56" y="-12" on="0"/>
        <pt x="42" y="6" on="0"/>
        <pt x="42" y="18" on="1"/>
        <pt x="42" y="35" on="0"/>
        <pt x="67" y="64" on="0"/>
        <pt x="84" y="64" on="1"/>
        <pt x="98" y="64" on="0"/>
        <pt x="110" y="46" on="0"/>
        <pt x="110" y="32" on="1"/>
        <pt x="110" y="15" on="0"/>
        <pt x="87" y="-12" on="0"/>
      </contour>
    </TTGlyph>
    <TTGlyph name="exclamdown" xMin="24" yMin="-194" xMax="198" yMax="490">
      <contour>
        <pt x="64" y="-130" on="1"/>
        <pt x="52" y="-194" on="1"/>
        <pt x="24" y="-194" on="1"/>
        <pt x="36" y="-130" on="1"/>
        <pt x="124" y="306" on="1"/>
        <pt x="148" y="306" on="1"/>
      </contour>
      <contour>
        <pt x="170" y="490" on="1"/>
        <pt x="184" y="490" on="0"/>
        <pt x="198" y="472" on="0"/>
        <pt x="198" y="460" on="1"/>
        <pt x="198" y="443" on="0"/>
        <pt x="173" y="414" on="0"/>
        <pt x="156" y="414" on="1"/>
        <pt x="142" y="414" on="0"/>
        <pt x="130" y="432" on="0"/>
        <pt x="130" y="446" on="1"/>
        <pt x="130" y="463" on="0"/>
        <pt x="153" y="490" on="0"/>
      </contour>
    </TTGlyph>
    <TTGlyph name="f" xMin="48" yMin="0" xMax="362" yMax="734">
      <contour>
        <pt x="80" y="474" on="1"/>
        <pt x="144" y="478" on="1"/>
        <pt x="168" y="598" on="1"/>
        <pt x="183" y="669" on="0"/>
        <pt x="250" y="734" on="0"/>
        <pt x="292" y="734" on="1"/>
        <pt x="316" y="734" on="0"/>
        <pt x="348" y="721" on="0"/>
        <pt x="362" y="712" on="1"/>
        <pt x="348" y="690" on="1"/>
        <pt x="336" y="698" on="0"/>
        <pt x="310" y="708" on="0"/>
        <pt x="290" y="708" on="1"/>
        <pt x="271" y="708" on="0"/>
        <pt x="241" y="690" on="0"/>
        <pt x="217" y="660" on="0"/>
        <pt x="200" y="620" on="0"/>
        <pt x="196" y="598" on="1"/>
        <pt x="172" y="478" on="1"/>
        <pt x="280" y="478" on="1"/>
        <pt x="274" y="452" on="1"/>
        <pt x="166" y="452" on="1"/>
        <pt x="76" y="0" on="1"/>
        <pt x="48" y="0" on="1"/>
        <pt x="138" y="452" on="1"/>
        <pt x="76" y="452" on="1"/>
      </contour>
    </TTGlyph>
    <TTGlyph name="f.sups" xMin="66" yMin="270" xMax="284" yMax="752">
      <contour>
        <pt x="144" y="658" on="1"/>
        <pt x="153" y="706" on="0"/>
        <pt x="202" y="752" on="0"/>
        <pt x="234" y="752" on="1"/>
        <pt x="259" y="752" on="0"/>
        <pt x="284" y="738" on="1"/>
        <pt x="272" y="716" on="1"/>
        <pt x="264" y="721" on="0"/>
        <pt x="246" y="728" on="0"/>
        <pt x="232" y="728" on="1"/>
        <pt x="209" y="728" on="0"/>
        <pt x="176" y="691" on="0"/>
        <pt x="170" y="662" on="1"/>
        <pt x="155" y="586" on="1"/>
        <pt x="230" y="586" on="1"/>
        <pt x="226" y="562" on="1"/>
        <pt x="150" y="562" on="1"/>
        <pt x="92" y="270" on="1"/>
        <pt x="66" y="270" on="1"/>
        <pt x="125" y="562" on="1"/>
        <pt x="82" y="562" on="1"/>
        <pt x="86" y="584" on="1"/>
        <pt x="130" y="586" on="1"/>
      </contour>
    </TTGlyph>
    <TTGlyph name="f_f" xMin="48" yMin="0" xMax="608" yMax="734">
      <contour>
        <pt x="414" y="598" on="1"/>
        <pt x="429" y="669" on="0"/>
        <pt x="496" y="734" on="0"/>
        <pt x="538" y="734" on="1"/>
        <pt x="562" y="734" on="0"/>
        <pt x="593" y="722" on="0"/>
        <pt x="608" y="714" on="1"/>
        <pt x="594" y="690" on="1"/>
        <pt x="582" y="698" on="0"/>
        <pt x="556" y="708" on="0"/>
        <pt x="536" y="708" on="1"/>
        <pt x="517" y="708" on="0"/>
        <pt x="487" y="690" on="0"/>
        <pt x="463" y="660" on="0"/>
        <pt x="446" y="620" on="0"/>
        <pt x="442" y="598" on="1"/>
        <pt x="418" y="478" on="1"/>
        <pt x="526" y="478" on="1"/>
        <pt x="520" y="452" on="1"/>
        <pt x="413" y="452" on="1"/>
        <pt x="322" y="0" on="1"/>
        <pt x="294" y="0" on="1"/>
        <pt x="385" y="452" on="1"/>
        <pt x="167" y="452" on="1"/>
        <pt x="76" y="0" on="1"/>
        <pt x="48" y="0" on="1"/>
        <pt x="139" y="452" on="1"/>
        <pt x="76" y="452" on="1"/>
        <pt x="80" y="474" on="1"/>
        <pt x="144" y="478" on="1"/>
        <pt x="166" y="588" on="1"/>
        <pt x="183" y="659" on="0"/>
        <pt x="254" y="724" on="0"/>
        <pt x="300" y="724" on="1"/>
        <pt x="328" y="724" on="0"/>
        <pt x="363" y="712" on="0"/>
        <pt x="380" y="704" on="1"/>
        <pt x="366" y="680" on="1"/>
        <pt x="352" y="688" on="0"/>
        <pt x="322" y="698" on="0"/>
        <pt x="298" y="698" on="1"/>
        <pt x="277" y="698" on="0"/>
        <pt x="243" y="680" on="0"/>
        <pt x="217" y="650" on="0"/>
        <pt x="199" y="610" on="0"/>
        <pt x="194" y="588" on="1"/>
        <pt x="172" y="478" on="1"/>
        <pt x="390" y="478" on="1"/>
      </contour>
    </TTGlyph>
    <TTGlyph name="f_t" xMin="48" yMin="-12" xMax="512" yMax="734">
      <contour>
        <pt x="306" y="122" on="1"/>
        <pt x="304" y="113" on="0"/>
        <pt x="302" y="95" on="0"/>
        <pt x="302" y="84" on="1"/>
        <pt x="302" y="49" on="0"/>
        <pt x="331" y="14" on="0"/>
        <pt x="372" y="14" on="1"/>
        <pt x="390" y="14" on="0"/>
        <pt x="420" y="26" on="0"/>
        <pt x="432" y="32" on="1"/>
        <pt x="442" y="10" on="1"/>
        <pt x="428" y="2" on="0"/>
        <pt x="391" y="-12" on="0"/>
        <pt x="370" y="-12" on="1"/>
        <pt x="316" y="-12" on="0"/>
        <pt x="274" y="42" on="0"/>
        <pt x="274" y="78" on="1"/>
        <pt x="274" y="92" on="0"/>
        <pt x="276" y="112" on="0"/>
        <pt x="278" y="124" on="1"/>
        <pt x="346" y="452" on="1"/>
        <pt x="167" y="452" on="1"/>
        <pt x="76" y="0" on="1"/>
        <pt x="48" y="0" on="1"/>
        <pt x="139" y="452" on="1"/>
        <pt x="76" y="452" on="1"/>
        <pt x="80" y="474" on="1"/>
        <pt x="144" y="478" on="1"/>
        <pt x="168" y="598" on="1"/>
        <pt x="183" y="669" on="0"/>
        <pt x="250" y="734" on="0"/>
        <pt x="292" y="734" on="1"/>
        <pt x="316" y="734" on="0"/>
        <pt x="347" y="722" on="0"/>
        <pt x="362" y="714" on="1"/>
        <pt x="348" y="690" on="1"/>
        <pt x="336" y="698" on="0"/>
        <pt x="310" y="708" on="0"/>
        <pt x="290" y="708" on="1"/>
        <pt x="271" y="708" on="0"/>
        <pt x="241" y="690" on="0"/>
        <pt x="217" y="660" on="0"/>
        <pt x="200" y="620" on="0"/>
        <pt x="196" y="598" on="1"/>
        <pt x="172" y="478" on="1"/>
        <pt x="352" y="478" on="1"/>
        <pt x="384" y="616" on="1"/>
        <pt x="408" y="616" on="1"/>
        <pt x="380" y="478" on="1"/>
        <pt x="512" y="478" on="1"/>
        <pt x="506" y="452" on="1"/>
        <pt x="374" y="452" on="1"/>
      </contour>
    </TTGlyph>
    <TTGlyph name="fi" xMin="48" yMin="0" xMax="462" yMax="734">
      <component glyphName="f" x="0" y="0" flags="0x4"/>
      <component glyphName="i" x="246" y="0" flags="0x4"/>
    </TTGlyph>
    <TTGlyph name="figuredash" xMin="36" yMin="238" xMax="420" yMax="264">
      <contour>
        <pt x="42" y="264" on="1"/>
        <pt x="420" y="264" on="1"/>
        <pt x="412" y="238" on="1"/>
        <pt x="36" y="238" on="1"/>
      </contour>
    </TTGlyph>
    <TTGlyph name="five" xMin="-2" yMin="-12" xMax="442" yMax="640">
      <contour>
        <pt x="20" y="108" on="1"/>
        <pt x="30" y="92" on="0"/>
        <pt x="55" y="59" on="0"/>
        <pt x="91" y="32" on="0"/>
        <pt x="141" y="14" on="0"/>
        <pt x="176" y="14" on="1"/>
        <pt x="214" y="14" on="0"/>
        <pt x="284" y="45" on="0"/>
        <pt x="338" y="101" on="0"/>
        <pt x="370" y="179" on="0"/>
        <pt x="370" y="226" on="1"/>
        <pt x="370" y="301" on="0"/>
        <pt x="294" y="374" on="0"/>
        <pt x="232" y="374" on="1"/>
        <pt x="196" y="374" on="0"/>
        <pt x="144" y="355" on="0"/>
        <pt x="114" y="338" on="1"/>
        <pt x="96" y="352" on="1"/>
        <pt x="176" y="640" on="1"/>
        <pt x="442" y="640" on="1"/>
        <pt x="436" y="614" on="1"/>
        <pt x="196" y="614" on="1"/>
        <pt x="130" y="374" on="1"/>
        <pt x="150" y="385" on="0"/>
        <pt x="200" y="400" on="0"/>
        <pt x="232" y="400" on="1"/>
        <pt x="304" y="400" on="0"/>
        <pt x="398" y="316" on="0"/>
        <pt x="398" y="232" on="1"/>
        <pt x="398" y="176" on="0"/>
        <pt x="361" y="86" on="0"/>
        <pt x="298" y="23" on="0"/>
        <pt x="216" y="-12" on="0"/>
        <pt x="170" y="-12" on="1"/>
        <pt x="135" y="-12" on="0"/>
        <pt x="79" y="8" on="0"/>
        <pt x="37" y="38" on="0"/>
        <pt x="8" y="75" on="0"/>
        <pt x="-2" y="92" on="1"/>
      </contour>
    </TTGlyph>
    <TTGlyph name="five.dnom" xMin="2" yMin="-12" xMax="304" yMax="390">
      <contour>
        <pt x="24" y="82" on="1"/>
        <pt x="39" y="53" on="0"/>
        <pt x="90" y="12" on="0"/>
        <pt x="138" y="12" on="1"/>
        <pt x="157" y="12" on="0"/>
        <pt x="195" y="29" on="0"/>
        <pt x="226" y="61" on="0"/>
        <pt x="246" y="106" on="0"/>
        <pt x="246" y="134" on="1"/>
        <pt x="246" y="179" on="0"/>
        <pt x="199" y="230" on="0"/>
        <pt x="160" y="230" on="1"/>
        <pt x="130" y="230" on="0"/>
        <pt x="95" y="211" on="0"/>
        <pt x="74" y="194" on="1"/>
        <pt x="60" y="208" on="1"/>
        <pt x="112" y="390" on="1"/>
        <pt x="304" y="390" on="1"/>
        <pt x="298" y="366" on="1"/>
        <pt x="132" y="366" on="1"/>
        <pt x="94" y="234" on="1"/>
        <pt x="109" y="245" on="0"/>
        <pt x="145" y="254" on="0"/>
        <pt x="162" y="254" on="1"/>
        <pt x="212" y="254" on="0"/>
        <pt x="274" y="193" on="0"/>
        <pt x="274" y="140" on="1"/>
        <pt x="274" y="105" on="0"/>
        <pt x="250" y="48" on="0"/>
        <pt x="210" y="9" on="0"/>
        <pt x="158" y="-12" on="0"/>
        <pt x="130" y="-12" on="1"/>
        <pt x="82" y="-12" on="0"/>
        <pt x="17" y="38" on="0"/>
        <pt x="2" y="68" on="1"/>
      </contour>
    </TTGlyph>
    <TTGlyph name="five.numr" xMin="52" yMin="258" xMax="354" yMax="660">
      <component glyphName="five.dnom" x="50" y="270" flags="0x204"/>
    </TTGlyph>
    <TTGlyph name="five.onum" xMin="-16" yMin="-84" xMax="428" yMax="570">
      <component glyphName="five.tnum" x="0" y="0" flags="0x204"/>
    </TTGlyph>
    <TTGlyph name="five.pnum" xMin="-5" yMin="-12" xMax="439" yMax="640">
      <component glyphName="five" x="-3" y="0" flags="0x4"/>
    </TTGlyph>
    <TTGlyph name="five.subs" xMin="-27" yMin="-181" xMax="275" yMax="221">
      <component glyphName="five.dnom" x="-29" y="-169" flags="0x204"/>
    </TTGlyph>
    <TTGlyph name="five.sups" xMin="92" yMin="428" xMax="394" yMax="830">
      <component glyphName="five.dnom" x="90" y="440" flags="0x204"/>
    </TTGlyph>
    <TTGlyph name="five.tnum" xMin="-16" yMin="-84" xMax="428" yMax="570">
      <contour>
        <pt x="6" y="36" on="1"/>
        <pt x="16" y="20" on="0"/>
        <pt x="41" y="-13" on="0"/>
        <pt x="77" y="-40" on="0"/>
        <pt x="127" y="-58" on="0"/>
        <pt x="162" y="-58" on="1"/>
        <pt x="200" y="-58" on="0"/>
        <pt x="270" y="-28" on="0"/>
        <pt x="324" y="27" on="0"/>
        <pt x="356" y="105" on="0"/>
        <pt x="356" y="152" on="1"/>
        <pt x="356" y="227" on="0"/>
        <pt x="280" y="304" on="0"/>
        <pt x="218" y="304" on="1"/>
        <pt x="182" y="304" on="0"/>
        <pt x="130" y="285" on="0"/>
        <pt x="100" y="268" on="1"/>
        <pt x="82" y="282" on="1"/>
        <pt x="162" y="570" on="1"/>
        <pt x="428" y="570" on="1"/>
        <pt x="422" y="544" on="1"/>
        <pt x="182" y="544" on="1"/>
        <pt x="116" y="304" on="1"/>
        <pt x="136" y="315" on="0"/>
        <pt x="186" y="330" on="0"/>
        <pt x="218" y="330" on="1"/>
        <pt x="290" y="330" on="0"/>
        <pt x="384" y="242" on="0"/>
        <pt x="384" y="158" on="1"/>
        <pt x="384" y="102" on="0"/>
        <pt x="347" y="13" on="0"/>
        <pt x="284" y="-50" on="0"/>
        <pt x="202" y="-84" on="0"/>
        <pt x="156" y="-84" on="1"/>
        <pt x="121" y="-84" on="0"/>
        <pt x="65" y="-64" on="0"/>
        <pt x="23" y="-34" on="0"/>
        <pt x="-6" y="3" on="0"/>
        <pt x="-16" y="20" on="1"/>
      </contour>
    </TTGlyph>
    <TTGlyph name="fiveeighths" xMin="52" yMin="-12" xMax="710" yMax="672">
      <component glyphName="five.dnom" x="50" y="270" flags="0x4"/>
      <component glyphName="fraction" x="348" y="0" flags="0x4"/>
      <component glyphName="eight.dnom" x="416" y="0" flags="0x4"/>
    </TTGlyph>
    <TTGlyph name="fl" xMin="48" yMin="-12" xMax="462" yMax="734">
      <component glyphName="f" x="0" y="0" flags="0x4"/>
      <component glyphName="l" x="246" y="0" flags="0x4"/>
    </TTGlyph>
    <TTGlyph name="fl.a" xMin="48" yMin="0" xMax="462" yMax="734">
      <component glyphName="f" x="0" y="0" flags="0x4"/>
      <component glyphName="l.a" x="246" y="0" flags="0x4"/>
    </TTGlyph>
    <TTGlyph name="four" xMin="8" yMin="0" xMax="412" yMax="640">
      <contour>
        <pt x="248" y="0" on="1"/>
        <pt x="287" y="194" on="1"/>
        <pt x="8" y="194" on="1"/>
        <pt x="10" y="210" on="1"/>
        <pt x="384" y="640" on="1"/>
        <pt x="404" y="640" on="1"/>
        <pt x="320" y="220" on="1"/>
        <pt x="412" y="220" on="1"/>
        <pt x="406" y="194" on="1"/>
        <pt x="315" y="194" on="1"/>
        <pt x="276" y="0" on="1"/>
      </contour>
      <contour>
        <pt x="292" y="220" on="1"/>
        <pt x="342" y="470" on="1"/>
        <pt x="347" y="493" on="0"/>
        <pt x="362" y="554" on="0"/>
        <pt x="370" y="586" on="1"/>
        <pt x="366" y="586" on="1"/>
        <pt x="345" y="559" on="0"/>
        <pt x="304" y="511" on="0"/>
        <pt x="286" y="490" on="1"/>
        <pt x="54" y="220" on="1"/>
      </contour>
    </TTGlyph>
    <TTGlyph name="four.dnom" xMin="22" yMin="0" xMax="280" yMax="390">
      <contour>
        <pt x="197" y="144" on="1"/>
        <pt x="216" y="242" on="1"/>
        <pt x="240" y="340" on="1"/>
        <pt x="236" y="340" on="1"/>
        <pt x="164" y="258" on="1"/>
        <pt x="62" y="144" on="1"/>
      </contour>
      <contour>
        <pt x="274" y="120" on="1"/>
        <pt x="218" y="120" on="1"/>
        <pt x="194" y="0" on="1"/>
        <pt x="168" y="0" on="1"/>
        <pt x="192" y="120" on="1"/>
        <pt x="22" y="120" on="1"/>
        <pt x="26" y="138" on="1"/>
        <pt x="254" y="390" on="1"/>
        <pt x="272" y="390" on="1"/>
        <pt x="223" y="144" on="1"/>
        <pt x="280" y="144" on="1"/>
      </contour>
    </TTGlyph>
    <TTGlyph name="four.numr" xMin="72" yMin="270" xMax="330" yMax="660">
      <component glyphName="four.dnom" x="50" y="270" flags="0x204"/>
    </TTGlyph>
    <TTGlyph name="four.onum" xMin="-14" yMin="-70" xMax="402" yMax="570">
      <component glyphName="four.tnum" x="0" y="0" flags="0x204"/>
    </TTGlyph>
    <TTGlyph name="four.pnum" xMin="20" yMin="0" xMax="424" yMax="640">
      <component glyphName="four" x="12" y="0" flags="0x4"/>
    </TTGlyph>
    <TTGlyph name="four.subs" xMin="-7" yMin="-169" xMax="251" yMax="221">
      <component glyphName="four.dnom" x="-29" y="-169" flags="0x204"/>
    </TTGlyph>
    <TTGlyph name="four.sups" xMin="112" yMin="440" xMax="370" yMax="830">
      <component glyphName="four.dnom" x="90" y="440" flags="0x204"/>
    </TTGlyph>
    <TTGlyph name="four.tnum" xMin="-14" yMin="-70" xMax="402" yMax="570">
      <contour>
        <pt x="284" y="130" on="1"/>
        <pt x="338" y="400" on="1"/>
        <pt x="343" y="423" on="0"/>
        <pt x="358" y="484" on="0"/>
        <pt x="366" y="516" on="1"/>
        <pt x="362" y="516" on="1"/>
        <pt x="341" y="489" on="0"/>
        <pt x="300" y="441" on="0"/>
        <pt x="282" y="420" on="1"/>
        <pt x="32" y="130" on="1"/>
      </contour>
      <contour>
        <pt x="396" y="104" on="1"/>
        <pt x="307" y="104" on="1"/>
        <pt x="272" y="-70" on="1"/>
        <pt x="244" y="-70" on="1"/>
        <pt x="279" y="104" on="1"/>
        <pt x="-14" y="104" on="1"/>
        <pt x="-12" y="120" on="1"/>
        <pt x="380" y="570" on="1"/>
        <pt x="400" y="570" on="1"/>
        <pt x="312" y="130" on="1"/>
        <pt x="402" y="130" on="1"/>
      </contour>
    </TTGlyph>
    <TTGlyph name="fraction" xMin="-208" yMin="-12" xMax="314" yMax="672">
      <contour>
        <pt x="-208" y="-12" on="1"/>
        <pt x="284" y="672" on="1"/>
        <pt x="314" y="672" on="1"/>
        <pt x="-178" y="-12" on="1"/>
      </contour>
    </TTGlyph>
    <TTGlyph name="g" xMin="6" yMin="-234" xMax="472" yMax="490">
      <contour>
        <pt x="472" y="478" on="1"/>
        <pt x="366" y="-48" on="1"/>
        <pt x="348" y="-134" on="0"/>
        <pt x="247" y="-234" on="0"/>
        <pt x="166" y="-234" on="1"/>
        <pt x="113" y="-234" on="0"/>
        <pt x="36" y="-194" on="0"/>
        <pt x="6" y="-168" on="1"/>
        <pt x="24" y="-146" on="1"/>
        <pt x="51" y="-172" on="0"/>
        <pt x="123" y="-208" on="0"/>
        <pt x="168" y="-208" on="1"/>
        <pt x="241" y="-208" on="0"/>
        <pt x="325" y="-110" on="0"/>
        <pt x="342" y="-30" on="1"/>
        <pt x="366" y="82" on="1"/>
        <pt x="362" y="82" on="1"/>
        <pt x="324" y="46" on="0"/>
        <pt x="235" y="-4" on="0"/>
        <pt x="184" y="-4" on="1"/>
        <pt x="122" y="-4" on="0"/>
        <pt x="46" y="83" on="0"/>
        <pt x="46" y="166" on="1"/>
        <pt x="46" y="233" on="0"/>
        <pt x="90" y="351" on="0"/>
        <pt x="162" y="439" on="0"/>
        <pt x="253" y="490" on="0"/>
        <pt x="300" y="490" on="1"/>
        <pt x="343" y="490" on="0"/>
        <pt x="406" y="446" on="0"/>
        <pt x="426" y="410" on="1"/>
        <pt x="430" y="410" on="1"/>
        <pt x="448" y="478" on="1"/>
      </contour>
      <contour>
        <pt x="186" y="22" on="1"/>
        <pt x="228" y="22" on="0"/>
        <pt x="328" y="77" on="0"/>
        <pt x="372" y="124" on="1"/>
        <pt x="424" y="372" on="1"/>
        <pt x="395" y="422" on="0"/>
        <pt x="334" y="464" on="0"/>
        <pt x="298" y="464" on="1"/>
        <pt x="255" y="464" on="0"/>
        <pt x="175" y="413" on="0"/>
        <pt x="112" y="330" on="0"/>
        <pt x="74" y="225" on="0"/>
        <pt x="74" y="172" on="1"/>
        <pt x="74" y="97" on="0"/>
        <pt x="133" y="22" on="0"/>
      </contour>
    </TTGlyph>
    <TTGlyph name="g.a" xMin="-6" yMin="-234" xMax="486" yMax="490">
      <contour>
        <pt x="90" y="280" on="1"/>
        <pt x="90" y="324" on="0"/>
        <pt x="118" y="401" on="0"/>
        <pt x="169" y="458" on="0"/>
        <pt x="240" y="490" on="0"/>
        <pt x="282" y="490" on="1"/>
        <pt x="299" y="490" on="0"/>
        <pt x="322" y="484" on="0"/>
        <pt x="334" y="478" on="1"/>
        <pt x="486" y="478" on="1"/>
        <pt x="480" y="452" on="1"/>
        <pt x="366" y="452" on="1"/>
        <pt x="383" y="434" on="0"/>
        <pt x="402" y="385" on="0"/>
        <pt x="402" y="362" on="1"/>
        <pt x="402" y="318" on="0"/>
        <pt x="373" y="241" on="0"/>
        <pt x="322" y="184" on="0"/>
        <pt x="252" y="152" on="0"/>
        <pt x="210" y="152" on="1"/>
        <pt x="182" y="152" on="0"/>
        <pt x="158" y="164" on="1"/>
        <pt x="143" y="152" on="0"/>
        <pt x="116" y="115" on="0"/>
        <pt x="116" y="94" on="1"/>
        <pt x="116" y="64" on="0"/>
        <pt x="163" y="34" on="0"/>
        <pt x="220" y="28" on="1"/>
        <pt x="303" y="19" on="0"/>
        <pt x="374" y="-30" on="0"/>
        <pt x="374" y="-78" on="1"/>
        <pt x="374" y="-116" on="0"/>
        <pt x="338" y="-175" on="0"/>
        <pt x="278" y="-214" on="0"/>
        <pt x="199" y="-234" on="0"/>
        <pt x="156" y="-234" on="1"/>
        <pt x="125" y="-234" on="0"/>
        <pt x="67" y="-220" on="0"/>
        <pt x="22" y="-191" on="0"/>
        <pt x="-6" y="-147" on="0"/>
        <pt x="-6" y="-118" on="1"/>
        <pt x="-6" y="-92" on="0"/>
        <pt x="19" y="-48" on="0"/>
        <pt x="58" y="-13" on="0"/>
        <pt x="102" y="14" on="0"/>
        <pt x="122" y="24" on="1"/>
        <pt x="122" y="26" on="1"/>
        <pt x="105" y="35" on="0"/>
        <pt x="88" y="70" on="0"/>
        <pt x="88" y="88" on="1"/>
        <pt x="88" y="132" on="0"/>
        <pt x="136" y="174" on="1"/>
        <pt x="136" y="178" on="1"/>
        <pt x="116" y="195" on="0"/>
        <pt x="90" y="248" on="0"/>
      </contour>
      <contour>
        <pt x="144" y="10" on="1"/>
        <pt x="124" y="2" on="0"/>
        <pt x="81" y="-24" on="0"/>
        <pt x="45" y="-56" on="0"/>
        <pt x="22" y="-93" on="0"/>
        <pt x="22" y="-112" on="1"/>
        <pt x="22" y="-138" on="0"/>
        <pt x="45" y="-174" on="0"/>
        <pt x="83" y="-197" on="0"/>
        <pt x="132" y="-208" on="0"/>
        <pt x="158" y="-208" on="1"/>
        <pt x="198" y="-208" on="0"/>
        <pt x="266" y="-188" on="0"/>
        <pt x="317" y="-155" on="0"/>
        <pt x="346" y="-110" on="0"/>
        <pt x="346" y="-84" on="1"/>
        <pt x="346" y="-46" on="0"/>
        <pt x="281" y="-8" on="0"/>
        <pt x="204" y="0" on="1"/>
        <pt x="190" y="2" on="0"/>
        <pt x="159" y="7" on="0"/>
      </contour>
      <contour>
        <pt x="278" y="464" on="1"/>
        <pt x="244" y="464" on="0"/>
        <pt x="186" y="435" on="0"/>
        <pt x="143" y="387" on="0"/>
        <pt x="118" y="324" on="0"/>
        <pt x="118" y="290" on="1"/>
        <pt x="118" y="240" on="0"/>
        <pt x="169" y="178" on="0"/>
        <pt x="214" y="178" on="1"/>
        <pt x="248" y="178" on="0"/>
        <pt x="306" y="207" on="0"/>
        <pt x="349" y="255" on="0"/>
        <pt x="374" y="318" on="0"/>
        <pt x="374" y="352" on="1"/>
        <pt x="374" y="402" on="0"/>
        <pt x="323" y="464" on="0"/>
      </contour>
    </TTGlyph>
    <TTGlyph name="g.supa" xMin="26" yMin="118" xMax="359" yMax="594">
      <contour>
        <pt x="91" y="452" on="1"/>
        <pt x="91" y="481" on="0"/>
        <pt x="110" y="533" on="0"/>
        <pt x="145" y="572" on="0"/>
        <pt x="192" y="594" on="0"/>
        <pt x="220" y="594" on="1"/>
        <pt x="244" y="594" on="0"/>
        <pt x="259" y="586" on="1"/>
        <pt x="359" y="586" on="1"/>
        <pt x="354" y="562" on="1"/>
        <pt x="287" y="562" on="1"/>
        <pt x="295" y="551" on="0"/>
        <pt x="303" y="522" on="0"/>
        <pt x="303" y="508" on="1"/>
        <pt x="303" y="479" on="0"/>
        <pt x="284" y="428" on="0"/>
        <pt x="249" y="389" on="0"/>
        <pt x="202" y="366" on="0"/>
        <pt x="174" y="366" on="1"/>
        <pt x="154" y="366" on="0"/>
        <pt x="140" y="373" on="1"/>
        <pt x="130" y="365" on="0"/>
        <pt x="114" y="344" on="0"/>
        <pt x="114" y="333" on="1"/>
        <pt x="114" y="323" on="0"/>
        <pt x="119" y="309" on="0"/>
        <pt x="134" y="300" on="0"/>
        <pt x="160" y="293" on="0"/>
        <pt x="180" y="290" on="1"/>
        <pt x="240" y="281" on="0"/>
        <pt x="286" y="251" on="0"/>
        <pt x="286" y="218" on="1"/>
        <pt x="286" y="193" on="0"/>
        <pt x="260" y="156" on="0"/>
        <pt x="216" y="131" on="0"/>
        <pt x="160" y="118" on="0"/>
        <pt x="130" y="118" on="1"/>
        <pt x="113" y="118" on="0"/>
        <pt x="76" y="125" on="0"/>
        <pt x="46" y="141" on="0"/>
        <pt x="26" y="170" on="0"/>
        <pt x="26" y="192" on="1"/>
        <pt x="26" y="209" on="0"/>
        <pt x="41" y="237" on="0"/>
        <pt x="65" y="259" on="0"/>
        <pt x="93" y="276" on="0"/>
        <pt x="106" y="282" on="1"/>
        <pt x="106" y="286" on="1"/>
        <pt x="98" y="291" on="0"/>
        <pt x="88" y="312" on="0"/>
        <pt x="88" y="326" on="1"/>
        <pt x="88" y="343" on="0"/>
        <pt x="103" y="366" on="0"/>
        <pt x="120" y="380" on="1"/>
        <pt x="120" y="384" on="1"/>
        <pt x="91" y="410" on="0"/>
      </contour>
      <contour>
        <pt x="130" y="272" on="1"/>
        <pt x="100" y="261" on="0"/>
        <pt x="52" y="221" on="0"/>
        <pt x="52" y="196" on="1"/>
        <pt x="52" y="167" on="0"/>
        <pt x="100" y="142" on="0"/>
        <pt x="132" y="142" on="1"/>
        <pt x="159" y="142" on="0"/>
        <pt x="205" y="154" on="0"/>
        <pt x="240" y="173" on="0"/>
        <pt x="260" y="199" on="0"/>
        <pt x="260" y="214" on="1"/>
        <pt x="260" y="238" on="0"/>
        <pt x="222" y="260" on="0"/>
        <pt x="171" y="265" on="1"/>
        <pt x="161" y="266" on="0"/>
        <pt x="144" y="269" on="0"/>
      </contour>
      <contour>
        <pt x="218" y="570" on="1"/>
        <pt x="197" y="570" on="0"/>
        <pt x="159" y="551" on="0"/>
        <pt x="132" y="520" on="0"/>
        <pt x="116" y="480" on="0"/>
        <pt x="116" y="459" on="1"/>
        <pt x="116" y="427" on="0"/>
        <pt x="147" y="390" on="0"/>
        <pt x="176" y="390" on="1"/>
        <pt x="198" y="390" on="0"/>
        <pt x="235" y="409" on="0"/>
        <pt x="263" y="440" on="0"/>
        <pt x="279" y="481" on="0"/>
        <pt x="279" y="502" on="1"/>
        <pt x="279" y="534" on="0"/>
        <pt x="248" y="570" on="0"/>
      </contour>
    </TTGlyph>
    <TTGlyph name="g.sups" xMin="40" yMin="118" xMax="356" yMax="594">
      <contour>
        <pt x="356" y="586" on="1"/>
        <pt x="291" y="256" on="1"/>
        <pt x="279" y="196" on="0"/>
        <pt x="206" y="118" on="0"/>
        <pt x="150" y="118" on="1"/>
        <pt x="121" y="118" on="0"/>
        <pt x="64" y="141" on="0"/>
        <pt x="40" y="162" on="1"/>
        <pt x="56" y="182" on="1"/>
        <pt x="74" y="165" on="0"/>
        <pt x="125" y="142" on="0"/>
        <pt x="152" y="142" on="1"/>
        <pt x="197" y="142" on="0"/>
        <pt x="254" y="208" on="0"/>
        <pt x="266" y="262" on="1"/>
        <pt x="278" y="322" on="1"/>
        <pt x="274" y="322" on="1"/>
        <pt x="248" y="301" on="0"/>
        <pt x="191" y="274" on="0"/>
        <pt x="158" y="274" on="1"/>
        <pt x="116" y="274" on="0"/>
        <pt x="64" y="331" on="0"/>
        <pt x="64" y="384" on="1"/>
        <pt x="64" y="427" on="0"/>
        <pt x="94" y="503" on="0"/>
        <pt x="143" y="560" on="0"/>
        <pt x="206" y="594" on="0"/>
        <pt x="240" y="594" on="1"/>
        <pt x="264" y="594" on="0"/>
        <pt x="306" y="571" on="0"/>
        <pt x="320" y="544" on="1"/>
        <pt x="324" y="544" on="1"/>
        <pt x="336" y="586" on="1"/>
      </contour>
      <contour>
        <pt x="160" y="298" on="1"/>
        <pt x="190" y="298" on="0"/>
        <pt x="257" y="333" on="0"/>
        <pt x="286" y="360" on="1"/>
        <pt x="316" y="512" on="1"/>
        <pt x="298" y="545" on="0"/>
        <pt x="259" y="570" on="0"/>
        <pt x="238" y="570" on="1"/>
        <pt x="210" y="570" on="0"/>
        <pt x="157" y="538" on="0"/>
        <pt x="115" y="486" on="0"/>
        <pt x="90" y="421" on="0"/>
        <pt x="90" y="388" on="1"/>
        <pt x="90" y="343" on="0"/>
        <pt x="130" y="298" on="0"/>
      </contour>
    </TTGlyph>
    <TTGlyph name="gbreve" xMin="6" yMin="-234" xMax="472" yMax="690">
      <component glyphName="g" x="0" y="0" flags="0x204"/>
      <component glyphName="uni0306" x="208" y="0" flags="0x4"/>
    </TTGlyph>
    <TTGlyph name="gbreve.a" xMin="-6" yMin="-234" xMax="486" yMax="690">
      <component glyphName="g.a" x="0" y="0" flags="0x204"/>
      <component glyphName="uni0306" x="172" y="0" flags="0x4"/>
    </TTGlyph>
    <TTGlyph name="gcaron" xMin="6" yMin="-234" xMax="472" yMax="704">
      <component glyphName="g" x="0" y="0" flags="0x204"/>
      <component glyphName="uni030C" x="208" y="0" flags="0x4"/>
    </TTGlyph>
    <TTGlyph name="gcaron.a" xMin="-6" yMin="-234" xMax="486" yMax="704">
      <component glyphName="g.a" x="0" y="0" flags="0x204"/>
      <component glyphName="uni030C" x="172" y="0" flags="0x4"/>
    </TTGlyph>
    <TTGlyph name="gcircumflex" xMin="6" yMin="-234" xMax="472" yMax="704">
      <component glyphName="g" x="0" y="0" flags="0x204"/>
      <component glyphName="uni0302" x="208" y="0" flags="0x4"/>
    </TTGlyph>
    <TTGlyph name="gcircumflex.a" xMin="-6" yMin="-234" xMax="486" yMax="704">
      <component glyphName="g.a" x="0" y="0" flags="0x204"/>
      <component glyphName="uni0302" x="172" y="0" flags="0x4"/>
    </TTGlyph>
    <TTGlyph name="gdotaccent" xMin="6" yMin="-234" xMax="472" yMax="668">
      <component glyphName="g" x="0" y="0" flags="0x204"/>
      <component glyphName="uni0307" x="208" y="0" flags="0x4"/>
    </TTGlyph>
    <TTGlyph name="gdotaccent.a" xMin="-6" yMin="-234" xMax="486" yMax="668">
      <component glyphName="g.a" x="0" y="0" flags="0x204"/>
      <component glyphName="uni0307" x="172" y="0" flags="0x4"/>
    </TTGlyph>
    <TTGlyph name="germandbls" xMin="44" yMin="-12" xMax="460" yMax="734">
      <contour>
        <pt x="152" y="540" on="1"/>
        <pt x="160" y="579" on="0"/>
        <pt x="193" y="649" on="0"/>
        <pt x="240" y="703" on="0"/>
        <pt x="300" y="734" on="0"/>
        <pt x="336" y="734" on="1"/>
        <pt x="387" y="734" on="0"/>
        <pt x="446" y="673" on="0"/>
        <pt x="446" y="616" on="1"/>
        <pt x="446" y="566" on="0"/>
        <pt x="400" y="500" on="0"/>
        <pt x="344" y="448" on="0"/>
        <pt x="298" y="397" on="0"/>
        <pt x="298" y="362" on="1"/>
        <pt x="298" y="338" on="0"/>
        <pt x="322" y="303" on="0"/>
        <pt x="358" y="273" on="0"/>
        <pt x="400" y="243" on="0"/>
        <pt x="436" y="208" on="0"/>
        <pt x="460" y="162" on="0"/>
        <pt x="460" y="130" on="1"/>
        <pt x="460" y="101" on="0"/>
        <pt x="438" y="49" on="0"/>
        <pt x="398" y="10" on="0"/>
        <pt x="343" y="-12" on="0"/>
        <pt x="310" y="-12" on="1"/>
        <pt x="275" y="-12" on="0"/>
        <pt x="205" y="16" on="0"/>
        <pt x="176" y="42" on="1"/>
        <pt x="194" y="62" on="1"/>
        <pt x="221" y="39" on="0"/>
        <pt x="277" y="14" on="0"/>
        <pt x="312" y="14" on="1"/>
        <pt x="336" y="14" on="0"/>
        <pt x="379" y="30" on="0"/>
        <pt x="412" y="60" on="0"/>
        <pt x="432" y="100" on="0"/>
        <pt x="432" y="124" on="1"/>
        <pt x="432" y="153" on="0"/>
        <pt x="408" y="197" on="0"/>
        <pt x="372" y="231" on="0"/>
        <pt x="330" y="261" on="0"/>
        <pt x="294" y="293" on="0"/>
        <pt x="270" y="330" on="0"/>
        <pt x="270" y="356" on="1"/>
        <pt x="270" y="385" on="0"/>
        <pt x="292" y="429" on="0"/>
        <pt x="325" y="467" on="0"/>
        <pt x="363" y="502" on="0"/>
        <pt x="396" y="540" on="0"/>
        <pt x="418" y="586" on="0"/>
        <pt x="418" y="616" on="1"/>
        <pt x="418" y="655" on="0"/>
        <pt x="379" y="708" on="0"/>
        <pt x="334" y="708" on="1"/>
        <pt x="305" y="708" on="0"/>
        <pt x="254" y="680" on="0"/>
        <pt x="214" y="632" on="0"/>
        <pt x="185" y="567" on="0"/>
        <pt x="178" y="530" on="1"/>
        <pt x="72" y="0" on="1"/>
        <pt x="44" y="0" on="1"/>
      </contour>
    </TTGlyph>
    <TTGlyph name="grave" xMin="280" yMin="570" xMax="374" yMax="704">
      <component glyphName="uni0300" x="214" y="0" flags="0x4"/>
    </TTGlyph>
    <TTGlyph name="greater" xMin="48" yMin="156" xMax="438" yMax="504">
      <contour>
        <pt x="48" y="184" on="1"/>
        <pt x="278" y="278" on="1"/>
        <pt x="400" y="328" on="1"/>
        <pt x="400" y="332" on="1"/>
        <pt x="278" y="382" on="1"/>
        <pt x="48" y="476" on="1"/>
        <pt x="48" y="504" on="1"/>
        <pt x="438" y="344" on="1"/>
        <pt x="438" y="316" on="1"/>
        <pt x="48" y="156" on="1"/>
      </contour>
    </TTGlyph>
    <TTGlyph name="greaterequal" xMin="48" yMin="0" xMax="438" yMax="504">
      <contour>
        <pt x="48" y="0" on="1"/>
        <pt x="48" y="26" on="1"/>
        <pt x="436" y="26" on="1"/>
        <pt x="436" y="0" on="1"/>
      </contour>
      <contour>
        <pt x="48" y="184" on="1"/>
        <pt x="278" y="278" on="1"/>
        <pt x="400" y="328" on="1"/>
        <pt x="400" y="332" on="1"/>
        <pt x="278" y="382" on="1"/>
        <pt x="48" y="476" on="1"/>
        <pt x="48" y="504" on="1"/>
        <pt x="438" y="344" on="1"/>
        <pt x="438" y="316" on="1"/>
        <pt x="48" y="156" on="1"/>
      </contour>
    </TTGlyph>
    <TTGlyph name="guillemotleft" xMin="40" yMin="74" xMax="356" yMax="428">
      <component glyphName="guilsinglleft" x="0" y="0" flags="0x4"/>
      <component glyphName="guilsinglleft" x="136" y="0" flags="0x4"/>
    </TTGlyph>
    <TTGlyph name="guillemotright" xMin="20" yMin="74" xMax="336" yMax="428">
      <component glyphName="guilsinglright" x="0" y="0" flags="0x4"/>
      <component glyphName="guilsinglright" x="136" y="0" flags="0x4"/>
    </TTGlyph>
    <TTGlyph name="guilsinglleft" xMin="40" yMin="74" xMax="220" yMax="428">
      <contour>
        <pt x="40" y="240" on="1"/>
        <pt x="46" y="272" on="1"/>
        <pt x="204" y="428" on="1"/>
        <pt x="220" y="412" on="1"/>
        <pt x="72" y="252" on="1"/>
        <pt x="162" y="86" on="1"/>
        <pt x="142" y="74" on="1"/>
      </contour>
    </TTGlyph>
    <TTGlyph name="guilsinglright" xMin="20" yMin="74" xMax="200" yMax="428">
      <contour>
        <pt x="200" y="262" on="1"/>
        <pt x="194" y="230" on="1"/>
        <pt x="36" y="74" on="1"/>
        <pt x="20" y="90" on="1"/>
        <pt x="168" y="250" on="1"/>
        <pt x="78" y="416" on="1"/>
        <pt x="98" y="428" on="1"/>
      </contour>
    </TTGlyph>
    <TTGlyph name="h" xMin="44" yMin="0" xMax="442" yMax="722">
      <contour>
        <pt x="188" y="722" on="1"/>
        <pt x="216" y="722" on="1"/>
        <pt x="160" y="444" on="1"/>
        <pt x="148" y="398" on="1"/>
        <pt x="152" y="398" on="1"/>
        <pt x="200" y="439" on="0"/>
        <pt x="284" y="490" on="0"/>
        <pt x="328" y="490" on="1"/>
        <pt x="390" y="490" on="0"/>
        <pt x="442" y="425" on="0"/>
        <pt x="442" y="374" on="1"/>
        <pt x="442" y="356" on="0"/>
        <pt x="439" y="331" on="0"/>
        <pt x="434" y="310" on="1"/>
        <pt x="372" y="0" on="1"/>
        <pt x="344" y="0" on="1"/>
        <pt x="406" y="306" on="1"/>
        <pt x="411" y="329" on="0"/>
        <pt x="414" y="355" on="0"/>
        <pt x="414" y="370" on="1"/>
        <pt x="414" y="417" on="0"/>
        <pt x="372" y="464" on="0"/>
        <pt x="324" y="464" on="1"/>
        <pt x="291" y="464" on="0"/>
        <pt x="201" y="414" on="0"/>
        <pt x="144" y="358" on="1"/>
        <pt x="72" y="0" on="1"/>
        <pt x="44" y="0" on="1"/>
      </contour>
    </TTGlyph>
    <TTGlyph name="h.sups" xMin="66" yMin="270" xMax="336" yMax="744">
      <contour>
        <pt x="160" y="744" on="1"/>
        <pt x="186" y="744" on="1"/>
        <pt x="160" y="612" on="1"/>
        <pt x="144" y="538" on="1"/>
        <pt x="148" y="538" on="1"/>
        <pt x="177" y="562" on="0"/>
        <pt x="232" y="594" on="0"/>
        <pt x="262" y="594" on="1"/>
        <pt x="304" y="594" on="0"/>
        <pt x="336" y="552" on="0"/>
        <pt x="336" y="516" on="1"/>
        <pt x="336" y="505" on="0"/>
        <pt x="332" y="484" on="0"/>
        <pt x="330" y="474" on="1"/>
        <pt x="290" y="270" on="1"/>
        <pt x="264" y="270" on="1"/>
        <pt x="304" y="470" on="1"/>
        <pt x="307" y="484" on="0"/>
        <pt x="310" y="501" on="0"/>
        <pt x="310" y="510" on="1"/>
        <pt x="310" y="570" on="0"/>
        <pt x="260" y="570" on="1"/>
        <pt x="233" y="570" on="0"/>
        <pt x="174" y="536" on="0"/>
        <pt x="138" y="500" on="1"/>
        <pt x="92" y="270" on="1"/>
        <pt x="66" y="270" on="1"/>
      </contour>
    </TTGlyph>
    <TTGlyph name="hbar" xMin="44" yMin="0" xMax="438" yMax="722">
      <contour>
        <pt x="148" y="378" on="1"/>
        <pt x="196" y="419" on="0"/>
        <pt x="280" y="470" on="0"/>
        <pt x="324" y="470" on="1"/>
        <pt x="386" y="470" on="0"/>
        <pt x="438" y="405" on="0"/>
        <pt x="438" y="354" on="1"/>
        <pt x="438" y="336" on="0"/>
        <pt x="435" y="311" on="0"/>
        <pt x="430" y="290" on="1"/>
        <pt x="372" y="0" on="1"/>
        <pt x="344" y="0" on="1"/>
        <pt x="402" y="286" on="1"/>
        <pt x="407" y="309" on="0"/>
        <pt x="410" y="335" on="0"/>
        <pt x="410" y="350" on="1"/>
        <pt x="410" y="397" on="0"/>
        <pt x="368" y="444" on="0"/>
        <pt x="320" y="444" on="1"/>
        <pt x="287" y="444" on="0"/>
        <pt x="197" y="394" on="0"/>
        <pt x="140" y="338" on="1"/>
        <pt x="72" y="0" on="1"/>
        <pt x="44" y="0" on="1"/>
        <pt x="160" y="584" on="1"/>
        <pt x="88" y="584" on="1"/>
        <pt x="92" y="606" on="1"/>
        <pt x="166" y="610" on="1"/>
        <pt x="188" y="722" on="1"/>
        <pt x="216" y="722" on="1"/>
        <pt x="193" y="610" on="1"/>
        <pt x="380" y="610" on="1"/>
        <pt x="374" y="584" on="1"/>
        <pt x="188" y="584" on="1"/>
        <pt x="156" y="424" on="1"/>
        <pt x="144" y="378" on="1"/>
      </contour>
    </TTGlyph>
    <TTGlyph name="hcircumflex" xMin="44" yMin="0" xMax="442" yMax="853">
      <component glyphName="h" x="0" y="0" flags="0x204"/>
      <component glyphName="uni0302.cap" x="78" y="41" flags="0x4"/>
    </TTGlyph>
    <TTGlyph name="hungarumlaut" xMin="246" yMin="570" xMax="512" yMax="706">
      <component glyphName="uni030B" x="214" y="0" flags="0x4"/>
    </TTGlyph>
    <TTGlyph name="hyphen" xMin="36" yMin="236" xMax="248" yMax="264">
      <contour>
        <pt x="42" y="264" on="1"/>
        <pt x="248" y="264" on="1"/>
        <pt x="242" y="236" on="1"/>
        <pt x="36" y="236" on="1"/>
      </contour>
    </TTGlyph>
</ttFont>
